<svg xmlns="http://www.w3.org/2000/svg" width="40" height="40" viewBox="0 0 40 40" fill="none"><path d="M18.2 1.03923C19.3138 0.396152 20.6862 0.396152 21.8 1.03923L35.5205 8.96077C36.6344 9.60385 37.3205 10.7923 37.3205 12.0785V27.9215C37.3205 29.2077 36.6344 30.3962 35.5205 31.0392L21.8 38.9608C20.6862 39.6038 19.3138 39.6038 18.2 38.9608L4.47949 31.0392C3.36565 30.3962 2.67949 29.2077 2.67949 27.9215V12.0785C2.67949 10.7923 3.36565 9.60385 4.47949 8.96077L18.2 1.03923Z" fill="#F37821"></path><rect x="11" y="11" width="18" height="17.7049" rx="8.85246" fill="white"></rect><path fill-rule="evenodd" clip-rule="evenodd" d="M17.0893 25.1744C17.0631 25.1744 17.037 25.164 17.0213 25.1483L15.7554 23.8771H13.5479C13.3543 23.8771 13.1921 23.715 13.1921 23.5214V18.8343C13.1921 18.6356 13.3543 18.4734 13.5479 18.4734H20.6255C20.8191 18.4734 20.9812 18.6356 20.9812 18.8343V23.5214C20.9812 23.7202 20.8191 23.8771 20.6255 23.8771H18.418L17.1521 25.1483C17.1364 25.164 17.1102 25.1744 17.0893 25.1744Z" fill="#F37821"></path><path fill-rule="evenodd" clip-rule="evenodd" d="M18.2547 19.9812H15.5764C15.4351 19.9812 15.4351 19.772 15.5764 19.772H18.2547C18.3959 19.772 18.3959 19.9812 18.2547 19.9812Z" fill="#BFFFEE"></path><path fill-rule="evenodd" clip-rule="evenodd" d="M19.2066 21.2775H14.9695C14.8282 21.2775 14.8282 21.063 14.9695 21.063H19.2066C19.3426 21.063 19.3426 21.2775 19.2066 21.2775Z" fill="#BFFFEE"></path><path fill-rule="evenodd" clip-rule="evenodd" d="M18.6 22.5632H15.5764C15.4351 22.5632 15.4351 22.354 15.5764 22.354H18.6C18.736 22.354 18.736 22.5632 18.6 22.5632Z" fill="#BFFFEE"></path><path d="M18.21 18.4734H20.9819V21.0612H19.0044C18.5656 21.0612 18.21 20.7055 18.21 20.2668V18.4734Z" fill="white"></path><path d="M26.8084 15.2433V19.9002C26.8084 20.2942 26.486 20.6166 26.092 20.6166H19.2858C18.8917 20.6166 18.5693 20.2942 18.5693 19.9002V15.2433C18.5693 14.8493 18.8917 14.5269 19.2858 14.5269H26.092C26.486 14.5269 26.8084 14.8493 26.8084 15.2433Z" fill="url(#paint0_linear_1102_541)"></path><path d="M24.3011 15.2493H25.734C25.931 15.2493 26.0922 15.4105 26.0922 15.6075V16.3239C26.0922 16.521 25.931 16.6822 25.734 16.6822H24.3011C24.1041 16.6822 23.9429 16.521 23.9429 16.3239V15.6075C23.9429 15.4105 24.1041 15.2493 24.3011 15.2493Z" fill="url(#paint1_linear_1102_541)"></path><path d="M21.2567 15.4284C21.2567 15.5358 21.1851 15.6075 21.0776 15.6075H19.2865C19.1791 15.6075 19.1074 15.5358 19.1074 15.4284C19.1074 15.3209 19.1791 15.2493 19.2865 15.2493H21.0776C21.1851 15.2493 21.2567 15.3209 21.2567 15.4284Z" fill="white"></path><path d="M19.2865 15.2493C19.1791 15.2493 19.1074 15.3209 19.1074 15.4284C19.1074 15.5358 19.1791 15.6075 19.2865 15.6075H19.9313C19.9492 15.4821 19.9672 15.3746 19.9851 15.2493H19.2865Z" fill="white"></path><path d="M20.3605 16.3143H21.0769C21.1844 16.3143 21.2561 16.2426 21.2561 16.1352C21.2561 16.0277 21.1844 15.9561 21.0769 15.9561H20.3605C20.253 15.9561 20.1814 16.0277 20.1814 16.1352C20.1814 16.2426 20.253 16.3143 20.3605 16.3143Z" fill="#50D9D7"></path><path d="M22.6894 17.7525H22.3312C22.2237 17.7525 22.1521 17.6809 22.1521 17.5734C22.1521 17.4659 22.2237 17.3943 22.3312 17.3943H22.6894C22.7969 17.3943 22.8685 17.4659 22.8685 17.5734C22.8685 17.6809 22.7969 17.7525 22.6894 17.7525Z" fill="white"></path><path d="M23.7634 17.7525H23.4052C23.2977 17.7525 23.2261 17.6809 23.2261 17.5734C23.2261 17.4659 23.2977 17.3943 23.4052 17.3943H23.7634C23.8709 17.3943 23.9425 17.4659 23.9425 17.5734C23.9425 17.6809 23.8709 17.7525 23.7634 17.7525Z" fill="white"></path><path d="M24.8371 17.7525H24.4789C24.3714 17.7525 24.2998 17.6809 24.2998 17.5734C24.2998 17.4659 24.3714 17.3943 24.4789 17.3943H24.8371C24.9446 17.3943 25.0162 17.4659 25.0162 17.5734C25.0162 17.6809 24.9446 17.7525 24.8371 17.7525Z" fill="white"></path><path d="M25.915 17.7525H25.5568C25.4493 17.7525 25.3777 17.6809 25.3777 17.5734C25.3777 17.4659 25.4493 17.3943 25.5568 17.3943H25.915C26.0225 17.3943 26.0941 17.4659 26.0941 17.5734C26.0941 17.6809 26.0225 17.7525 25.915 17.7525Z" fill="white"></path><path d="M25.5561 19.9013C25.2158 19.9013 25.377 19.1848 25.9143 19.1848C26.0218 19.1848 26.0934 19.2565 26.0934 19.3639C26.0934 19.4714 26.0218 19.543 25.9143 19.543C25.8069 19.543 25.7352 19.6147 25.7352 19.7221C25.7352 19.8296 25.6636 19.9013 25.5561 19.9013Z" fill="white"></path><path d="M24.8383 19.9031C24.7308 19.9031 24.6592 19.8315 24.6592 19.724C24.6592 19.0255 25.2144 18.4702 25.913 18.4702C26.0204 18.4702 26.0921 18.5419 26.0921 18.6493C26.0921 18.7568 26.0204 18.8284 25.913 18.8284C25.4114 18.8284 25.0174 19.2225 25.0174 19.724C25.0174 19.8315 24.9458 19.9031 24.8383 19.9031Z" fill="white"></path><path d="M21.6321 19.7201H19.8052C19.626 19.7201 19.4648 19.5768 19.4648 19.3798L19.4648 18.6096C19.4648 18.4305 19.6081 18.2693 19.8052 18.2693H21.65C21.8291 18.2693 21.9903 18.4126 21.9903 18.6096L21.9903 19.3798C21.9724 19.5768 21.8291 19.7201 21.6321 19.7201Z" fill="url(#paint2_linear_1102_541)"></path><defs><linearGradient id="paint0_linear_1102_541" x1="22.6889" y1="14.5269" x2="22.6889" y2="20.6166" gradientUnits="userSpaceOnUse"><stop stop-color="#313131"></stop><stop offset="1" stop-color="#006258"></stop></linearGradient><linearGradient id="paint1_linear_1102_541" x1="25.0175" y1="15.2493" x2="25.0175" y2="16.6822" gradientUnits="userSpaceOnUse"><stop stop-color="#DE8E30"></stop><stop offset="1" stop-color="#A04D00"></stop></linearGradient><linearGradient id="paint2_linear_1102_541" x1="20.7276" y1="18.2693" x2="20.7276" y2="19.7201" gradientUnits="userSpaceOnUse"><stop stop-color="#50D9D7"></stop><stop offset="0.0001" stop-color="#C1FFFE"></stop><stop offset="1" stop-color="#99D2D2"></stop></linearGradient></defs></svg>