<?xml version="1.0" encoding="UTF-8"?>
<svg xmlns="http://www.w3.org/2000/svg" viewBox="0 0 722.53 609.8">
  <defs>
    <style>.cls-1{fill:#e6e6e6;}.cls-2{fill:#fff;}.cls-3{fill:#c368f7;}.cls-4{fill:#f2f2f2;}.cls-5{fill:#9f616a;}.cls-6{fill:#3f3d56;}.cls-7{fill:#2f2e41;}.cls-8{fill:#cbcbcb;}.cls-9{opacity:0.1;isolation:isolate;}</style>
  </defs>
  <g id="Layer_2" data-name="Layer 2">
    <g id="b4e9d833-dfac-4889-b0f2-073e524f4cae">
      <rect id="e81a7c33-c795-457d-8abc-c4a3c260cd56" class="cls-1" x="258.89" y="12.71" width="463.64" height="333.68"></rect>
      <rect id="be98c830-918a-42d1-b1b0-0085d5874e90" class="cls-2" x="272.15" y="31.58" width="437.13" height="299.42"></rect>
      <rect id="ea07d9fd-7a34-4098-acd7-056fd1871281" class="cls-3" x="258.69" width="463.64" height="19.7"></rect>
      <circle id="b9ed5a45-8896-4ed9-86b4-15f853c9a185" class="cls-2" cx="273.33" cy="11.58" r="3.65"></circle>
      <circle id="a9233a38-f8ba-48e0-88f3-496fd4836d40" class="cls-2" cx="287.19" cy="11.58" r="3.65"></circle>
      <circle id="aa82180f-a6a9-4f5f-82fc-e73106f4ad92" class="cls-2" cx="301.04" cy="11.58" r="3.65"></circle>
      <rect class="cls-4" x="533.69" y="61.28" width="72.68" height="124.15"></rect>
      <rect class="cls-3" x="375.06" y="61.28" width="146.59" height="34.18"></rect>
      <rect class="cls-4" x="375.06" y="104.97" width="146.59" height="36.77"></rect>
      <rect class="cls-4" x="375.06" y="151.26" width="146.59" height="34.18"></rect>
      <path class="cls-5" d="M170.62,367.1a17.86,17.86,0,0,0-17.77-18,16.78,16.78,0,0,0-4.37.53L88,297.84l3.61-19.47-29.8-9.66-9,31.21a18.12,18.12,0,0,0,7.68,20.21l74.38,47a17,17,0,0,0,.1,1.75,17.87,17.87,0,0,0,19.69,15.84,19.42,19.42,0,0,0,2-.34,17.29,17.29,0,0,0,2.1-.6A17.93,17.93,0,0,0,170.62,367.1Z"></path>
      <path class="cls-6" d="M20.3,427.21h78c0,2.24,80.34,4.06,80.34,4.06a21.1,21.1,0,0,1,3.43,3.25,20.16,20.16,0,0,1,4.71,13v3.24a20.31,20.31,0,0,1-20.3,20.3H20.3A20.31,20.31,0,0,1,0,450.75v-3.24A20.32,20.32,0,0,1,20.3,427.21Z"></path>
      <rect class="cls-6" x="83.99" y="470.25" width="21.11" height="136.4"></rect>
      <path class="cls-6" d="M165.18,608.34c0,2.55-32,1-71.45,1s-71.45,1.56-71.45-1,32-22.81,71.45-22.81S165.18,605.79,165.18,608.34Z"></path>
      <polygon class="cls-5" points="146.12 589.92 166.03 589.91 175.5 538.28 146.12 538.28 146.12 589.92"></polygon>
      <path class="cls-7" d="M141,609.21h64.19v-.81a25,25,0,0,0-25-25H141Z"></path>
      <path class="cls-8" d="M175.9,557.9l39.68-89A32.61,32.61,0,0,0,201.26,427l-86.08-46.16L75.9,377.53l-36.23-3.29-.27.44c-.33.56-8.12,14-2.85,28.78,4,11.19,14.38,19.93,30.88,26,38.51,14.12,83,26.19,100.33,30.72a5.64,5.64,0,0,1,3.59,2.86,5.7,5.7,0,0,1,.32,4.54L134.79,550.4a7.31,7.31,0,0,0,4.35,9.37,7.23,7.23,0,0,0,1.84.42l27.55,2c.23,0,.47,0,.7,0A7.32,7.32,0,0,0,175.9,557.9Z"></path>
      <polygon class="cls-5" points="133.13 589.92 153.04 589.91 162.51 538.28 133.13 538.28 133.13 589.92"></polygon>
      <path class="cls-7" d="M128.05,609.21h64.19v-.81a25,25,0,0,0-25-25H128.05Z"></path>
      <path class="cls-8" d="M161.28,562.77l39.69-89a32.62,32.62,0,0,0-14.32-41.87l-86.08-46.16L61.29,382.4,32.9,379.94v-.39c-.34.57-8.13,14-2.86,28.78,4,11.19,6.27,19.93,22.76,26,38.51,14.12,83,26.19,100.33,30.72a5.68,5.68,0,0,1,3.91,7.4l-36.87,82.84a7.31,7.31,0,0,0,4.35,9.38,7.67,7.67,0,0,0,1.84.41l27.55,2c.23,0,.46,0,.7,0A7.29,7.29,0,0,0,161.28,562.77Z"></path>
      <path class="cls-7" d="M86.49,381.56c1.9-1.34,29.23,13,34.1,1.63-22.73-56.83-7.07-81.38-21-114a40.56,40.56,0,0,0-26.9-23l-36.13-1.83-.19.09a42.24,42.24,0,0,0-23.09,44.8c.13,35.47,21.35,62.52,13.93,88.25A8.32,8.32,0,0,0,28,384a7.92,7.92,0,0,0,5.06,3.75l47.7-6.37a8,8,0,0,0,6.52-1.26Z"></path>
      <circle class="cls-5" cx="48.62" cy="191" r="39.88"></circle>
      <path class="cls-7" d="M35.92,227.6c2.12.93,6.46-15.95,4.52-19.33-2.9-5-2.72-5-4.64-8.31s-2.35-7.87.13-10.79,8.24-2.54,9.37,1.13c-.73-7,6.16-12.56,13-14.14s14-.59,20.88-2c8-1.63,16.24-8.3,13.07-17a12.42,12.42,0,0,0-2.41-4C86.15,149,81,147.28,76,145.57c-10.44-3.54-21.17-7.13-32.19-6.74-18.1.65-35.22,13.16-41.32,30.22a42.08,42.08,0,0,0-1.76,6.54C-3,195.92,8.76,216,27.94,223.73Z"></path>
      <path class="cls-6" d="M245.07,291.74l4.57,27.15a1.71,1.71,0,0,1-.09.9l-35.88,89.66a1.68,1.68,0,0,1-3.23-.55l-1.52-36a1.68,1.68,0,0,1,.13-.7l32.82-80.78a1.67,1.67,0,0,1,3.2.35Z"></path>
      <polygon class="cls-3" points="242.53 293.82 246.88 317.15 215.03 398.96 210.9 372.65 242.53 293.82"></polygon>
      <path class="cls-6" d="M103.22,409c.78,3.06,103.64,6.37,104.71,5.44a22.26,22.26,0,0,0,2.47-3.82c1.08-1.93,2.08-3.86,2.08-3.86l-1.69-32.53L109.46,363.43s-4.48,27.15-5.89,39.62A30.7,30.7,0,0,0,103.22,409Z"></path>
      <polygon class="cls-9" points="197.53 377.7 197.54 405.73 152.72 402.54 154.71 374.66 197.53 377.7"></polygon>
      <polygon class="cls-9" points="139.13 382.56 139.4 382.52 137.29 394.44 112.39 392.67 113.24 380.72 139.13 382.56"></polygon>
      <path class="cls-9" d="M103.22,409c.78,3.06,103.64,6.37,104.71,5.44a22.26,22.26,0,0,0,2.47-3.82l-106.83-7.6A30.7,30.7,0,0,0,103.22,409Z"></path>
      <path class="cls-5" d="M61.92,360.45l86.76,16.2a16.33,16.33,0,0,0,.74,1.59,17.89,17.89,0,0,0,11.49,9,17.68,17.68,0,0,0,14.4-2.61,17.86,17.86,0,0,0-18.48-30.51,17.57,17.57,0,0,0-2,1.27L79.45,329.62l-3.86-19.43-31.26,2.07,3.24,32.57A17.77,17.77,0,0,0,61.92,360.45Z"></path>
      <path class="cls-7" d="M43.28,326.78,88.7,311.86,78.1,281.43A18.13,18.13,0,0,0,58,269.51h0A18.14,18.14,0,0,0,42.84,287.6Z"></path>
      <path class="cls-3" d="M498.32,235.23a1.33,1.33,0,0,0-.45.08l-29,10.08a1.38,1.38,0,0,0-.92,1.47l4.58,37.51a1.37,1.37,0,0,0,.71,1.05l24.41,13.27a1.41,1.41,0,0,0,.66.17,1.45,1.45,0,0,0,.67-.17l24.53-13.45a1.38,1.38,0,0,0,.71-1.05l4.57-37.51a1.38,1.38,0,0,0-.93-1.48l-29.14-9.9A1.62,1.62,0,0,0,498.32,235.23Zm.09,6.92,18,38.73h-6.14l-3.85-8.29h-16l-3.85,8.29h-6.14Zm0,13.14L493,267h10.85Z"></path>
      <path class="cls-3" d="M675.32,288.71a8.33,8.33,0,0,1-8.34,8.34H623.65a8.33,8.33,0,0,1-8.33-8.34V245.38a8.33,8.33,0,0,1,8.33-8.33H667a8.33,8.33,0,0,1,8.34,8.33Z"></path>
      <path class="cls-2" d="M660.37,269.71a8.23,8.23,0,0,0-4.67-3.08,7.51,7.51,0,0,0,3.23-2.92,9.75,9.75,0,0,0,1.39-5.3,9.51,9.51,0,0,0-3.9-8.21c-2.6-1.89-5.54-3.15-10.52-3.15H630.32v40H647.7c4.72,0,8.27-1.05,10.68-3s3.6-4.92,3.6-8.84A9.17,9.17,0,0,0,660.37,269.71Zm-20-16h7.08a4.59,4.59,0,0,1,0,9.17h-7.08Zm8.33,26.67h-8.33v-10h8.33a5,5,0,0,1,0,10Z"></path>
      <path class="cls-3" d="M380.73,268.92a8.66,8.66,0,0,0,2.65-5.07,10.79,10.79,0,0,0,.22-2.65,7.85,7.85,0,0,0-.66-3.09,2.91,2.91,0,0,0-2-2.2c-1.32-.22-2.42.44-3.53,2.2a10.56,10.56,0,0,0-2,4.19,10,10,0,0,0-.22,2.43,7.85,7.85,0,0,0,.66,3.09,2.9,2.9,0,0,0,2,2.2C378.75,270.24,379.63,270,380.73,268.92Z"></path>
      <path class="cls-3" d="M385.8,241.8H317.22a7.9,7.9,0,0,0-7.94,7.93V276a7.91,7.91,0,0,0,7.94,7.94h32.64l14.77,8.38-3.53-8.6h24.7a7.91,7.91,0,0,0,7.94-7.94v-26A7.9,7.9,0,0,0,385.8,241.8Zm-41.9,34.62a3.62,3.62,0,0,1-.44,2.2A3.44,3.44,0,0,1,341.7,280a3.8,3.8,0,0,1-2.65-1.33c-3.31-3.3-5.95-8.16-7.72-14.77-2.2,4.41-4,7.72-5.07,9.92-2,4-3.75,6-5.29,6-.88,0-1.76-.67-2.43-2.43-1.76-4.63-3.75-13.23-5.73-26.24,0-.88,0-1.77.66-2.21a2.43,2.43,0,0,1,2.21-1.1,2.51,2.51,0,0,1,3.08,2.43,184.65,184.65,0,0,0,3.53,18.3l7.5-14.34a3,3,0,0,1,2.65-2c1.54,0,2.42.88,2.86,2.87a71.75,71.75,0,0,0,3.31,11.91c.88-8.83,2.43-15,4.63-19a2.66,2.66,0,0,1,2.21-1.54,3.72,3.72,0,0,1,2.2.66,2.32,2.32,0,0,1,1.11,2,2.63,2.63,0,0,1-.45,1.77c-1.32,2.42-2.42,6.61-3.3,12.35A51.48,51.48,0,0,0,343.9,276.42Zm21.17-5.52c-2,3.53-4.85,5.08-8.16,5.08a4.84,4.84,0,0,1-1.76-.22,7.79,7.79,0,0,1-5.51-4,13.63,13.63,0,0,1-1.77-6.84,18.33,18.33,0,0,1,2.65-9.7c2.2-3.53,4.85-5.07,8.16-5.07a4.84,4.84,0,0,1,1.76.22,7.8,7.8,0,0,1,5.52,4,13.1,13.1,0,0,1,1.76,6.83A18.24,18.24,0,0,1,365.07,270.9Zm21.62,0c-2,3.53-4.86,5.08-8.16,5.08a4.87,4.87,0,0,1-1.77-.22,7.81,7.81,0,0,1-5.51-4,13.74,13.74,0,0,1-1.77-6.84,18.33,18.33,0,0,1,2.65-9.7c2.21-3.53,4.85-5.07,8.16-5.07a4.84,4.84,0,0,1,1.76.22,7.8,7.8,0,0,1,5.52,4,13.1,13.1,0,0,1,1.76,6.83A18.32,18.32,0,0,1,386.69,270.9Z"></path>
      <path class="cls-3" d="M361.77,263.85a8.66,8.66,0,0,1-2.65,5.07c-1.1.88-2,1.32-2.87,1.1a2.9,2.9,0,0,1-2-2.2,8.73,8.73,0,0,1-.66-3.09,8.35,8.35,0,0,1,.22-2.43,14.23,14.23,0,0,1,1.76-4.19c1.1-1.76,2.43-2.42,3.53-2.2a2.9,2.9,0,0,1,2,2.2,8.55,8.55,0,0,1,.67,3.09A10.52,10.52,0,0,1,361.77,263.85Z"></path>
    </g>
  </g>
</svg>
