<svg xmlns="http://www.w3.org/2000/svg" xmlns:xlink="http://www.w3.org/1999/xlink" viewBox="0 0 879.1 631.5" xmlns:v="https://vecta.io/nano"><path d="M.3.4H645v412.9H.3z" fill="#e6e6e6"/><path d="M18.7 52.2h607.9v336.7H18.7z" fill="#fff"/><path d="M0 0h644.7v27.4H0z" fill="#f77d68"/><g fill="#fff"><circle cx="20.4" cy="14" r="5.1"/><circle cx="39.6" cy="14" r="5.1"/><circle cx="58.9" cy="14" r="5.1"/></g><path d="M93.5 79.8h118.9v129H93.5zm169.7 0h118.9v129H263.2zm169.7 0h118.9v129H432.9zM93.5 232.2h118.9v129H93.5zm169.7 0h118.9v129H263.2zm169.7 0h118.9v129H432.9z" fill="#e6e6e6"/><g fill="#fff"><use xlink:href="#B"/><use xlink:href="#B" x="46"/></g><path d="M340 99.5s-4.6 12.9.7 18.8l-4.5 15.4s15.9 47.6 11.3 54.3c0 0-16.9 8.5-50.8-3l13.8-53.4-2-22.5 2.7-10.6 6-.6s-3.6 13.6 3 15.7 13.1-15.4 13.1-15.4l6.7 1.3z" fill="#3f3d56"/><path d="M126.4 182.9l5.8 2.4 27.9-36.6 8.8 43 5.8-1.1c3.7-37.1 6.8-74.9 3.1-92.7l-21.7-.9-9.8 31.3-4.8 21.2-15.1 33.4zm354.3-85.3s-8 11.1-7.6 15.5 5.4 77.3 5.4 77.3l11.9.6-3.5-52.5 2.9-14.2 7.2 66.1 14.6.4-13-85.7-2.5-7.6-15.4.1z" fill="#fff"/><path d="M525.7 276c-2.1-2.5-5.8-3.9-9.2-4.7.1-.3-10.6-2.5-10.8-2.1l-4-3.2-12.4 6.4-7-4.8-3.2 1.1c.1-.6-10.1 1.2-10.1 1.2l-7.2.4c-9.7.8-10.5 26-10.5 26a42.87 42.87 0 0 1 14.1-3l2.6 30.2c13.6-1.2 27.8.2 42.5 3.5l6.9-23.7 16.1-6.3c-.1.3-2.8-15-7.8-21z" fill="#3f3d56"/><path d="M180.4 261.6c-1.7-2.1-4.7-3.2-7.6-3.8.1-.3-8.7-2.1-8.9-1.7l-3.3-2.7-10.2 5.3-5.7-3.9-2.7.9c.1-.5-8.3 1-8.3 1l-5.9.3c-8 .6-8.7 21.4-8.7 21.4 3.7-1.5 7.6-2.3 11.6-2.4l2.2 60.9c11.2-1 22.9.2 35 2.9l5.7-55.6 13.3-5.2c-.1.1-2.3-12.4-6.5-17.4z" fill="#fff"/><path d="M749.5 277.9h57v-30.5c0-15.7-12.8-28.5-28.5-28.5s-28.5 12.8-28.5 28.5v30.5z" fill="#2f2e41"/><path d="M724 617.2h-12.3l-5.8-47.3H724v47.3z" fill="#ffb6b6"/><path d="M727.1,613.2H703c-8.5,0-15.4,6.9-15.4,15.4v0.5h39.5V613.2z" fill="#2f2e41"/><path d="M870.6 600.8l-10.7 6-28.3-38.3 15.8-8.9 23.2 41.2z" fill="#ffb6b6"/><path d="M871.3 595.8l-21 11.9h0c-7.4 4.2-10 13.6-5.8 21l.2.4 34.4-19.4-7.8-13.9zm-79.1-191.3l.9 4.7s2.8 2.8 1.4 4.3-.9 8-.9 8c.8 12.1 16.6 79.9 19.4 93.2 0 0 21.8 14.2 38.8 42.1s17.5 35 17.5 35l-18.9 8-47.3-57.2s-13.2-8-18-15.1-34.1-80.4-34.1-80.4l-16.6 76.6s.9 27.9-3.3 45.9c-2.6 11.3-4.2 22.9-4.7 34.5l-22.2-2.4s1.4-67.2 3.8-74.3c0 0-9.9-81.8 9.9-114.5l16-42.7 15.7-6 42.6 40.3z" fill="#2f2e41"/><path d="M778.2 226.3c-29.8.5-29.8 44.9 0 45.4 29.9-.5 29.9-44.9 0-45.4z" fill="#ffb8b8"/><path d="M755.3 247.8h5.1l1.4-3.5-.7 3.5h27.7l-.9-7.2 6.7 7.2h6.7v-3.9c0-12.7-10.3-23-23-23.1-12.7 0-23 10.3-23.1 23h0 0l.1 4z" fill="#2f2e41"/><path d="M747.5 285l56.4.5L792 406.4s-66-3.5-66-23.6l6.2-17.9 15.3-79.9z" fill="#3f3d56"/><path d="M806.3 418c-3.3-4-2.7-9.9 1.3-13.2.4-.3.9-.7 1.4-.9l-2.5-21.3 12.6-4.6 3 30.1c2.2 4.7.2 10.3-4.5 12.5-3.9 1.9-8.6.8-11.3-2.6z" fill="#ffb6b6"/><path d="M796.5 295.9l7.4-10.4s5.1-1.1 11.1 5.9 9.5 94.5 9.5 94.5l-22 5-13-62 7-33z" fill="#3f3d56"/><path d="M700.7 403.6c4.7-2.2 6.7-7.8 4.5-12.5-.2-.5-.5-1-.8-1.4l11.4-18.1-9.3-9.6-15.8 25.8c-4 3.3-4.7 9.2-1.4 13.3 2.7 3.3 7.4 4.4 11.4 2.5h0z" fill="#ffb6b6"/><path d="M756.1 289.7l-8.2-5.4s-6.3 1.4-13 14.3-33.8 70.7-33.8 70.7l11.1 11.3 29.7-45.3 14.2-45.6z" fill="#3f3d56"/><defs ><path id="B" d="M291.9 265.3l21.7-8.6 2.5 42.9s4.5 13.1 3 18.2c0 0 1 8.6-1.5 9.1s-9.6 1.5-10.1 1-.5-2-.5-2-5.1 3.5-5.6 7.6c0 0-21.2 6.6-21.7.5s10.6-11.1 10.6-11.1l8.6-13.1-7-44.5z"/></defs></svg>