<svg xmlns="http://www.w3.org/2000/svg" viewBox="0 0 841.6 589" xmlns:v="https://vecta.io/nano"><style><![CDATA[.J{fill:#2f2e41}.K{fill:#3f3d56}.L{fill:#ffb8b8}.M{fill:#f7c368}]]></style><path d="M743.2 574.2h-14.1l-6.7-54.3h20.8z" class="L"/><path d="M746.8 587.8h-45.4v-.6a17.67 17.67 0 0 1 17.7-17.7h0 27.7v18.3z" class="J"/><path d="M805.3 539.6l-9.1 10.7-45.7-30.2 13.5-15.8z" class="L"/><path d="M818.1 545.7l-29.5 34.5-.4-.4c-7.4-6.3-8.3-17.5-2-24.9h0l18-21.1 13.9 11.9zM643.2 307.1l-4.3 40.4L816 345l-77.2-125.9-63.1-2.3z" class="J"/><path d="M643.2 307.1l-4.3 40.4L816 345l-77.2-125.9-63.1-2.3z" opacity=".28" enable-background="new"/><g class="J"><path d="M678.1 314.1l-6.3 37v33.1l50.4 16.5s-5.9 128.4 2 136.6L724 557l22 1 .2-13.9 9.3-103.9 5.5-76.3-8.9-57.8-74 8z"/><path d="M717.1 345.9l-45.3 38.2s-2.7 68.9 4.1 77c5.8 6.9 81 66.8 81 66.8s13.4 12.3 20.9 12.5 16.2-15.5 16.2-15.5l-17.4-13.2s-45-42-58.3-58.7c-5.4-6.7-5.4-7.4-5.4-7.4l1.8-28 18.5-52-16.1-19.7zm-48.1-183l-19.5-1.8-17.7 2.9h-37.6l-3.2 27.2 34.3 7.7 8.3-4.1 34.8 13.3z"/></g><path d="M692.4 162.8s41.5-3.9 50.9 3.5 29.6 154.3 29.6 154.3l-80.5 4.5-14.4-9.9 4.1-73.3 10.3-79.1z" fill="#ccc"/><path d="M705 161.9l-45.7 1-42.7 192.7 33.7 7.4zm32.5-1.6l36.1 11.2-2.1 79.2 44.5 94.7-52.3 5.5-41.3-102.2z" class="J"/><path d="M797 355c4.8-4.2 5.2-11.5 1-16.2a6.73 6.73 0 0 0-1.5-1.4l7.2-25.3-14.3-8.2-9.7 35.9c-3.6 5.3-2.3 12.5 2.9 16.1 4.5 3 10.4 2.7 14.4-.9h0z" class="L"/><path d="M752.7 173.7l21.3-1.8s19.1 20 23.5 35.5 9.1 64 9.1 64l-2 71-24.9-16.9-1.7-61-25.3-90.8z" class="J"/><circle transform="matrix(.4797 -.8775 .8775 .4797 266.7543 696.9739)" cx="721" cy="123.6" r="30.2" class="L"/><path d="M717.7 111c-4-.9-8.1.1-12.1.8s-8.4.9-11.8-1.4c-2.5-1.7-4.1-4.4-5.5-7-.6-.9-1-2-1.2-3.1-.2-1.9 1.1-3.7 2.4-5.2 6.1-6.7 15-10.4 24.1-11.6a41.5 41.5 0 0 1 22 2.7c6.8 3 12.7 8.5 15.4 15.5 1.2 3.6 2 7.3 2.3 11 .4 2.8.5 5.6.2 8.4-.4 2.1-.9 4.1-1.6 6.1l-4.5 13.4c-.3 1.3-.9 2.5-1.8 3.5s-2.3 1.3-3.5.8c.4-1.5.4-3 .2-4.5-.3-1.5-1.5-2.7-3-3-1.6-.2-3 1.1-4.6 1.6-3 .9-6.1-.8-7-3.8 0-.1-.1-.3-.1-.4-.2-1.5.2-3.2-.4-4.6-.7-1.7-2.5-2.6-3.9-3.8-2.5-2.3-3.5-5.9-2.4-9.2.4-1.1 1.4-1.6 1.2-2.9-.5-1.8-3-3-4.4-3.3z" class="J"/><path d="M381.6,238.7H0V0h381.6V238.7z" fill="#fff"/><path d="M381.6 238.7H0V0h381.6v238.7zM1.7 237h378.1V1.7H1.7V237z" class="K"/><path d="M335,569.4H117.2V330.6H335V569.4z" fill="#fff"/><path d="M335 569.4H117.2V330.6H335v238.8zm-216.1-1.8h214.3V332.4H118.9v235.2zm141.2-20.8h45.3v1.8h-45.3zm0 5.5h45.3v1.8h-45.3zm0 5.5h45.3v1.8h-45.3z" class="K"/><path d="M226.1 373.3v19.2c31.8 0 57.5 25.7 57.5 57.5 0 15.3-6.1 29.9-16.8 40.7l13.6 13.6c29.9-29.9 29.9-78.5 0-108.4-14.5-14.5-34-22.6-54.3-22.6z" fill="#e6e6e6"/><path d="M280.3 504.2l-13.6-13.6c-20.3 20.3-52.6 22.5-75.5 5.1L179.7 511c30.5 23.2 73.5 20.3 100.6-6.8z" fill="#575a89"/><path d="M168.6 450c0-31.8 25.7-57.5 57.5-57.5h0v-19.2c-42.3 0-76.7 34.3-76.7 76.7 0 24 11.2 46.5 30.3 61l11.6-15.3C177 484.9 168.6 468 168.6 450z" class="M"/><path d="M657.4,421.3H439.6V182.5h217.8V421.3z" fill="#fff"/><path d="M657.4 421.3H439.6V182.5h217.8v238.8zm-216.1-1.8h214.3V184.3H441.3v235.2z" class="K"/><path d="M470.9 328.5h39.2v62.7h-39.2z" fill="#575a89"/><path d="M527.5 285.8h39.2v105.4h-39.2z" fill="#e6e6e6"/><path d="M584.2 236.1h39.2v155.1h-39.2z" class="M"/><path d="M636.5 392.9h-176V210.8h1.7v180.4h174.3z" class="K"/><circle cx="594" cy="176.9" r="12" class="L"/><path d="M328.6 188.8H53c-.5 0-.9-.4-.9-.9V55.8c0-.5.4-.9.9-.9s.9.4.9.9V187h274.8c.5 0 .9.4.9.9s-.5.9-1 .9h0z" class="K"/><path d="M111.9 179.3H86.8c-1.4 0-2.6-1.1-2.6-2.6v-34.6c0-1.4 1.1-2.6 2.6-2.6h25.1c1.4 0 2.6 1.1 2.6 2.6v34.6c-.1 1.5-1.2 2.6-2.6 2.6zm45.7 0h-25.1c-1.4 0-2.6-1.1-2.6-2.6v-67.3c0-1.4 1.1-2.6 2.6-2.6h25.1c1.4 0 2.6 1.1 2.6 2.6v67.3c0 1.5-1.2 2.6-2.6 2.6zm45.7 0h-25.1c-1.4 0-2.6-1.1-2.6-2.6v-34.6c0-1.4 1.1-2.6 2.6-2.6h25.1c1.4 0 2.6 1.1 2.6 2.6v34.6c0 1.5-1.2 2.6-2.6 2.6zm45.7 0h-25c-1.4 0-2.5-1.1-2.6-2.4V96.4A2.42 2.42 0 0 1 224 94h25c1.4 0 2.5 1.1 2.6 2.4v80.5c0 1.3-1.2 2.4-2.6 2.4zm45.7 0h-25.1c-1.4 0-2.6-1.1-2.6-2.6V73.2c0-1.4 1.1-2.6 2.6-2.6h25.1c1.4 0 2.6 1.1 2.6 2.6v103.6c0 1.4-1.1 2.5-2.6 2.5z" class="M"/><g class="K"><circle cx="99.4" cy="124.1" r="5.2"/><circle cx="145.1" cy="90.5" r="5.2"/><circle cx="190.8" cy="124.1" r="5.2"/><circle cx="236.5" cy="74.1" r="5.2"/><circle cx="282.2" cy="55.1" r="5.2"/><path d="M190.9 125.3l-45.8-34.4-45.2 33.9-1.1-1.4 46.3-34.6 45.6 34.1L236 73.4l.2-.1 45.7-18.4.6 1.6L237 74.8z"/></g></svg>