<svg xmlns="http://www.w3.org/2000/svg" xmlns:xlink="http://www.w3.org/1999/xlink" viewBox="0 0 936.3 656" xmlns:v="https://vecta.io/nano"><style><![CDATA[.O{fill:#263238}.P{fill:#6880f7}.Q{fill:#37474f}.R{fill:#455a64}.S{fill:#ffb8b8}.T{fill:#2f2e41}]]></style><path d="M562,357H17c-8.3,0-15-6.7-15-15V69c0-8.3,6.7-15,15-15h545c8.3,0,15,6.7,15,15v273   C577,350.3,570.3,357,562,357z" fill="#fcfcfc" stroke="#3f3d56" stroke-miterlimit="10"/><path d="M441 147h-88a5 5 0 1 1 0-10h88a5 5 0 1 1 0 10zm68 35H353a5 5 0 1 1 0-10h156a5 5 0 1 1 0 10zm-39 35H353a5 5 0 1 1 0-10h117a5 5 0 1 1 0 10zm39 35H353a5 5 0 1 1 0-10h156a5 5 0 1 1 0 10z" fill="#ccc"/><circle cx="149.3" cy="192.5" r="89.5" class="P"/><g fill="#3f3d56"><path d="M154.3 108.1h-10v-10h10v10zm-8-2h6v-6h-6v6z"/><path d="M152.5 102.1h53v2h-53z"/><circle cx="205.5" cy="103.1" r="2.1"/><path d="M93.5 102.1h52v2h-52z"/><circle cx="93.5" cy="103.1" r="2.1"/><path d="M243.5 197.3h-10v-10h10v10zm-8-2h6v-6h-6v6z"/><path d="M237.5 196.5h2v52h-2z"/><circle cx="238.5" cy="248.5" r="2.1"/><path d="M237.5 136.5h2v52h-2z"/><circle cx="238.5" cy="136.5" r="2.1"/><path d="M64.5 197.3h-10v-10h10v10zm-8-2h6v-6h-6v6z"/><path d="M58.5 196.5h2v52h-2z"/><circle cx="59.5" cy="248.5" r="2.1"/><path d="M58.5 134.5h2v54h-2z"/><circle cx="59.5" cy="136.5" r="2.1"/><path d="M154.3 287.1h-10v-10h10v10zm-8-2h6v-6h-6v6z"/><path d="M153.5 281.1h53v2h-53z"/><circle cx="205.5" cy="282.1" r="2.1"/><path d="M93.5 281.1h52v2h-52z"/><circle cx="93.5" cy="282.1" r="2.1"/><path d="M562,357H17c-9.4,0-17-7.6-17-17V69c0-9.4,7.6-17,17-17h545c9.4,0,17,7.6,17,17v271   C579,349.4,571.4,357,562,357z M17,54C8.7,54,2,60.7,2,69v271c0,8.3,6.7,15,15,15h545c8.3,0,15-6.7,15-15V69c0-8.3-6.7-15-15-15H17z   "/></g><g fill="#ccc"><circle cx="330" cy="142" r="5"/><circle cx="330" cy="177" r="5"/><circle cx="330" cy="212" r="5"/><circle cx="330" cy="247" r="5"/></g><path d="M701.3 434c0-6.3 5.1-11.4 11.4-11.4h.3l35.2-28.1-25.2-25.1a10.99 10.99 0 0 1 0-15.7c4.4-4.3 11.4-4.4 15.7 0l40.6 40.6-55.3 40c-.2 6.3-5.4 11.2-11.7 11.1-6.1-.1-11-5.2-11-11.4zm-41.4 208l-11.9-4.4 11.5-48 17.6 6.5z" class="S"/><path d="M640.3 630.8l23.5 8.8h0l-5.4 14.5h0l-37.4-14h0l.2-.5c2.8-7.7 11.4-11.6 19.1-8.8z" class="T"/><path d="M767.1 642.2h-12.7l-6.1-49h18.8z" class="S"/><path d="M744.7 638.6h25.1 0V654h0-39.9 0v-.5c-.1-8.2 6.6-14.9 14.8-14.9zm5.5-15c-.9-.9-1.4-2.2-1.4-3.5 2.3-37.4-17.5-105.5-23.6-125.5-.3-1.1-1.2-2-2.4-2.3s-2.4-.1-3.3.7c-33 28.7-42.8 109.7-44.4 125.7-.3 2.5-2.5 4.3-4.9 4h-.1l-16.5-2.1c-2.5-.3-4.2-2.6-3.9-5 0-.1 0-.3.1-.4L693 415.8v-.1l.1-.1c10.4-12.5 40.7-7.6 41.9-7.4h.1l.1.1c38.8 32.2 36.8 181.4 36.1 210.9-.1 2.3-1.8 4.1-4.1 4.4l-13.5 1.3h-.4c-1.1 0-2.2-.5-3.1-1.3z" class="T"/><circle cx="727.4" cy="303.3" r="24.6" class="S"/><path d="M751.5 349.5s-22.8-27-41.5-5.2h0c-12 14-18.4 32-17.8 50.4l.7 23.7 43-6.7 15.6-62.2z" class="P"/><path d="M723.4 307.5l-10.6-12.4c-2.7-3.2-5.6-6.7-5.9-10.9-.4-4.6 2.4-9 6.2-11.6s8.5-3.6 13.1-3.9c8.5-.7 17.5.7 24.5 5.6s11.6 13.7 9.9 22.1c-1.3 6.6-6.3 12.9-4.4 19.4 2.1 7.1 10.7 9.2 17.8 11.3 11.8 3.5 23.1 10.5 29.4 21.2s6.2 25.4-2.1 34.6c-5.4 5.9-13.4 8.9-21.4 9.4s-15.9-1.4-23.5-4c-7-2.4-13.9-5.4-19.4-10.3s-9.4-11.9-9.3-19.3c.2-7 3.9-13.4 5.5-20.3a33.13 33.13 0 0 0-10.4-31.7" class="T"/><path d="M697.4 529.3h-30.5a3.8 3.8 0 0 1-3.8-3.8v-36a3.8 3.8 0 0 1 3.8-3.8h30.5a3.8 3.8 0 0 1 3.8 3.8v36c-.1 2.2-1.8 3.8-3.8 3.8z" class="P"/><path d="M688.3 498.5c-3-4.7-2.1-10.9 2.2-14.5l16.7-131.7c.7-5.8 5.7-10.2 11.6-10.2h.2c6.4.1 11.6 5.4 11.5 11.8 0 .6-.1 1.3-.2 1.9l-23.5 130.1h0c3.6 5 2.6 12-2.4 15.6-.6.5-1.3.8-2 1.2-1.4.6-3 1-4.5 1-3.9 0-7.5-2-9.6-5.2z" class="S"/><path d="M277.6 482.1h250.9v73.6H277.6z" class="R"/><path d="M277.6 470.2h250.9v11.9H277.6z" class="P"/><g class="O"><path d="M284.7 478.3l-4.1-4 .4-.3 4 4z"/><path d="M281 478.3l-.4-.3 4.1-4 .3.3zm239.084-2.171l.354-.353 2.404 2.404-.354.353z"/><path d="M520.013 476.202l2.404-2.404.354.354-2.404 2.404zm2.665-.046l.354-.353 2.404 2.404-.354.353z"/><path d="M522.688 476.123l2.403-2.406.354.353-2.403 2.406z"/></g><path d="M279.8 482.1h246.4V497H279.8z" class="Q"/><path d="M340.5 491.1h.2v5.8h-.2zm-12.3 1.9h.2v4h-.2zm3.1 0h.2v4h-.2zm3.1 0h.2v4h-.2zm3.1 0h.2v4h-.2zm18.4-1.9h.2v5.8h-.2zm-12.3 1.9h.2v4h-.2zm3.1 0h.2v4h-.2zm3 0h.2v4h-.2zm3.1 0h.2v4h-.2zm18.4-1.9h.2v5.8h-.2zm-12.3 1.9h.2v4h-.2zm3.1 0h.2v4h-.2zm3.1 0h.2v4h-.2zm3 0h.2v4h-.2zm18.5-1.9h.2v5.8h-.2zm-12.3 1.9h.2v4h-.2zm3 0h.2v4h-.2zm3.1 0h.2v4h-.2zm3.1 0h.2v4h-.2zm18.4-1.9h.2v5.8h-.2zm-12.3 1.9h.2v4h-.2zm3.1 0h.2v4h-.2zm3.1 0h.2v4h-.2zm3 0h.2v4h-.2zm18.4-1.9h.2v5.8h-.2zM405 493h.2v4h-.2zm3 0h.2v4h-.2zm3.1 0h.2v4h-.2zm3.1 0h.2v4h-.2zm18.4-1.9h.2v5.8h-.2zm-12.3 1.9h.2v4h-.2zm3.1 0h.2v4h-.2zm3 0h.2v4h-.2zm3.1 0h.2v4h-.2zm18.4-1.9h.2v5.8h-.2zm-12.2 1.9h.2v4h-.2zm3 0h.2v4h-.2zm3.1 0h.2v4h-.2zm3.1 0h.2v4h-.2zm18.4-1.9h.2v5.8h-.2zM451 493h.2v4h-.2zm3.1 0h.2v4h-.2zm3 0h.2v4h-.2zm3.1 0h.2v4h-.2zm18.4-1.9h.2v5.8h-.2zm-12.3 1.9h.2v4h-.2zm3.1 0h.2v4h-.2zm3.1 0h.2v4h-.2zm3 0h.2v4h-.2zm18.5-1.9h.2v5.8h-.2zm-12.3 1.9h.2v4h-.2zm3.1 0h.2v4h-.2zm3 0h.2v4h-.2zm3.1 0h.2v4h-.2zm18.4-1.9h.2v5.8h-.2zM497 493h.2v4h-.2zm3.1 0h.2v4h-.2zm3.1 0h.2v4h-.2zm3 0h.2v4h-.2zm18.5-1.9h.2v5.8h-.2zm-12.3 1.9h.2v4h-.2zm3 0h.2v4h-.2zm3.1 0h.2v4h-.2zm3.1 0h.2v4h-.2z" class="O"/><g class="P"><path d="M328.2 497h82.6v7.1h-82.6zm50.8 14.1h48.7v7.1H379zm48.7 14.1h38.2v7.1h-38.2zm47.3 14.2h16.5v7.1H475z" opacity=".5" enable-background="new"/><path d="M491.4 546.4h34.8v7.1h-34.8zm-101.8-28.2h16.9v7.1h-16.9zm45.9 14.1H475v7.1h-39.5zM336.6 504h52.9v7.1h-52.9z"/></g><g fill="#fff"><use xlink:href="#B"/><use xlink:href="#B" x="14.6"/><path d="M370.8 500.5c0 .7-.6 1.3-1.3 1.3s-1.3-.6-1.3-1.3.6-1.3 1.3-1.3c.8 0 1.3.6 1.3 1.3z"/><use xlink:href="#B" x="43.7"/><use xlink:href="#B" x="58.3"/><path d="M433.5 528.8c0 .7-.6 1.3-1.3 1.3s-1.3-.6-1.3-1.3.6-1.3 1.3-1.3c.8 0 1.3.5 1.3 1.3z"/><use xlink:href="#C"/><use xlink:href="#C" x="14.6"/><use xlink:href="#B" x="100.3" y="35.3"/><path d="M456.5 535.8c0 .7-.6 1.3-1.3 1.3s-1.3-.6-1.3-1.3.6-1.3 1.3-1.3h0c.8 0 1.3.6 1.3 1.3zm14.6 0c0 .7-.6 1.3-1.3 1.3s-1.3-.6-1.3-1.3.6-1.3 1.3-1.3 1.3.6 1.3 1.3zm24.4 14.2c0 .7-.6 1.3-1.3 1.3s-1.3-.6-1.3-1.3.6-1.3 1.3-1.3h0c.8 0 1.3.5 1.3 1.3zm14.6 0c0 .7-.6 1.3-1.3 1.3s-1.3-.6-1.3-1.3.6-1.3 1.3-1.3h0c.8 0 1.3.5 1.3 1.3zm14.6 0c0 .7-.6 1.3-1.3 1.3s-1.3-.6-1.3-1.3.6-1.3 1.3-1.3 1.3.5 1.3 1.3z"/><circle cx="398.1" cy="521.7" r="1.3"/><path d="M484.5 542.9c0 .7-.6 1.3-1.3 1.3s-1.3-.6-1.3-1.3.6-1.3 1.3-1.3c.8 0 1.3.6 1.3 1.3z"/><circle cx="388.8" cy="514.6" r="1.3"/><circle cx="403.4" cy="514.6" r="1.3"/><path d="M419.2 514.6c0 .7-.6 1.3-1.3 1.3s-1.3-.6-1.3-1.3.6-1.3 1.3-1.3 1.3.6 1.3 1.3zm-69.4-7c0 .7-.6 1.3-1.3 1.3s-1.3-.6-1.3-1.3.6-1.3 1.3-1.3h.1c.6 0 1.2.6 1.2 1.3z"/><use xlink:href="#C" x="-83.7" y="-21.2"/><use xlink:href="#C" x="-69.2" y="-21.2"/></g><path d="M279.8 497h48.4v7.1h-48.4z" class="O"/><path d="M279.8 504h48.4v7.1h-48.4z" class="Q"/><path d="M279.8 511.1h48.4v7.1h-48.4z" class="O"/><path d="M279.8 518.2h48.4v7.1h-48.4z" class="Q"/><path d="M279.8 525.2h48.4v7.1h-48.4z" class="O"/><path d="M279.8 532.3h48.4v7.1h-48.4z" class="Q"/><path d="M279.8 539.4h48.4v7.1h-48.4z" class="O"/><g class="Q"><path d="M279.8 546.5h48.4v7.1h-48.4zm48.4-42.6h198v.2h-198zm0 7.1h198v.2h-198zm0 7h198v.2h-198zm0 7.1h198v.2h-198zm0 7.1h198v.2h-198zm0 7h198v.2h-198z"/><path d="M328.2 546.3h198v.2h-198zm0 7.1h198v.2h-198z"/></g><g fill="#fff"><path d="M378.7 478.4h.5v75.1h-.5z"/><path d="M381.1 475.2v4.7l-2.2 1.8-2.1-1.8v-4.7z"/></g><path d="M248.1 46.7H431v26.5H248.1z" class="R"/><path d="M248.1 34.8H431v11.9H248.1z" class="P"/><g class="O"><path d="M255.2 43l-4-4.1.3-.3 4.1 4z"/><path d="M251.5 43l-.3-.4 4-4 .4.3zm171.087-2.246l.354-.354 2.404 2.404-.354.354z"/><path d="M422.584 40.743l2.404-2.404.353.354-2.404 2.404zm2.612.032l.354-.354 2.404 2.404-.354.353z"/><path d="M425.204 40.794l2.404-2.404.354.353-2.404 2.404z"/></g><g fill="#fff"><path d="M333 66.5V53.4l13.1 6.5zm36.9 0V53.4l13 6.5zm-2.7-13.1h1.1v13h-1.1zm-58 0v13.1l-13-6.6zm1.5 0h1.1v13h-1.1zm-34.6 0v13.1L263 59.9z"/><path d="M261.9 53.4h1.1v13h-1.1zM403 66.5V53.4l13 6.5z"/><path d="M416 53.4h1.1v13H416z"/></g><path d="M36.3 349.7h192.9v26.5H36.3z" class="R"/><path d="M36.3 337.8h192.9v11.9H36.3z" class="P"/><g class="O"><path d="M43.4 345.9l-4-4 .4-.3 4 4z"/><path d="M39.8 345.9l-.4-.3 4-4 .4.3zm181.01-2.132l.354-.353 2.404 2.404-.354.353z"/><path d="M220.807 343.769l2.404-2.404.354.354-2.404 2.404zm2.678-.04l.354-.353 2.404 2.404-.354.353z"/><path d="M223.41 343.821l2.403-2.405.354.353-2.403 2.405z"/></g><path d="M43.3 354h18.5v18.5H43.3z" class="Q"/><g fill="#ebebeb"><path d="M53.1 365l1.7 4.3-1.7.7-1.8-4.3-2.9 2.3v-12.1l8.4 8.5zm86.9-3.2c2.3-2 5-3.4 8-4.2l2.6 2.6c-.8 3-2.2 5.7-4.2 8-4.2-1.2-7.6 2.1-7.6 2.1l-.3-.3 5.3-5.3c.5.3 1.2.2 1.6-.4.3-.5.2-1.2-.4-1.6-.5-.3-1.2-.2-1.6.4-.2.4-.2.8 0 1.2l-5.3 5.3-.3-.3c.1 0 3.4-3.4 2.2-7.5z"/><path d="M147.071 357.193l1.626-1.626 3.818 3.818-1.626 1.626zM174.1 355.9v3.3H173c-.2 0-.4-.1-.5-.4 0-.1 0-.4-.1-.8h-2.9v10l.6.1c.1 0 .2.1.3.1h.1c.3 0 .5.3.5.6v1.1h-5.6v-1.1c0-.3.2-.6.5-.6h.1c.1 0 .2 0 .3-.1l.6-.1v-10H164c0 .4-.1.7-.1.8 0 .2-.2.4-.5.4h-1.1v-3.3h11.8 0zm13.4 9.2c-2.1-.4-2.4 1.9-2.5 2.8-.2.9-.8 1.6-1.7 1.9 0 0 3.3.9 5-.8s.6-3.7-.8-3.9zm7.8-8l-5.9 8.7c-.3-.7-.9-1.1-1.7-1.3h-.4l6.5-8.6 1.5 1.2zm-66.8 13.4h-14.4v-14.4h14.4v14.4zm-13.4-1h12.4v-12.4h-12.4v12.4zm98.8-10.9a2.3 2.3 0 1 1-4.6 0 2.26 2.26 0 0 1 2.3-2.3h0a2.26 2.26 0 0 1 2.3 2.3z"/><path d="M210.8 358.2h1.8v7.6h-1.8z"/><path d="M217.7 364.6l2.1 2.9h-16.3l2.1-2.9zm-14.2 3.6h16.3v1.3h-16.3zm-122.4-2.4a4.6 4.6 0 0 1-1.7 3.6c-.7.5-1.5.8-2.3.8-1 .1-2-.1-2.9-.6-.5-.3-1-.8-1.4-1.3l-2.1-3.2c-.2-.3-.4-.5-.5-.8-.2-.4-.2-.9.1-1.2s.8-.4 1.2-.2c.2.2.4.4.5.6.3.4.6.9 1 1.3h0V358c0-.4.4-.8.8-.8.3 0 .5.1.6.3s.2.3.2.5v3.9.2c0 .1.1.3.3.3.1 0 .3-.1.3-.3v-5.2c0-.4.3-.8.7-.9.4 0 .8.3.9.7v5.2.1c0 .1.2.2.3.2s.2-.1.3-.3v-.1-4.5c0-.3.1-.6.4-.8.4-.2.9-.1 1.1.3.1.1.1.2.1.4v2.1 3.1c0 .1 0 .2.1.3s.2.1.3 0c.1 0 .2-.1.2-.3v-3.6c0-.4.4-.8.8-.8s.8.4.8.8v.9 3.6c-.1 1.1-.1 1.8-.1 2.5zm15.1.6c-2.9 0-5.2-2.3-5.2-5.2s2.3-5.2 5.2-5.2 5.2 2.3 5.2 5.2h0c.1 2.8-2.3 5.2-5.2 5.2zm0-8.6a3.33 3.33 0 0 0-3.3 3.3 3.33 3.33 0 0 0 3.3 3.3 3.33 3.33 0 0 0 3.3-3.3h0c0-1.8-1.4-3.3-3.3-3.3z"/><path d="M98.042 364.944l1.343-1.343 5.02 5.02-1.343 1.343z"/></g><path d="M547.5 107.4h123.4v129.3H547.5z" class="R"/><path d="M547.5 107.4h123.4v11.9H547.5z" class="P"/><g class="O"><path d="M554.6 115.5l-4-4 .4-.4 4 4z"/><path d="M551 115.5l-.4-.4 4-4 .4.4zm111.435-2.229l.354-.353 2.404 2.404-.354.353z"/><path d="M662.487 113.267l2.404-2.404.354.353-2.404 2.404zm2.564.022l.354-.354 2.404 2.404-.354.354z"/><path d="M665.16 113.348l2.403-2.405.354.353-2.403 2.405z"/></g><path d="M553 125.6h112.4v21.2H553z" class="Q"/><path d="M558 129.4h13.3v13.3H558z" class="P"/><path d="M578.9 129.4h1.1v13.3h-1.1zm10.8 4.9h64.6v3.7h-64.6z" class="O"/><path d="M553 146.8h112.4V168H553z" class="R"/><path d="M558 150.6h13.3v13.3H558z" fill="#dbdbdb"/><path d="M578.9 150.6h1.1v13.3h-1.1zm10.8 4.9h64.6v3.7h-64.6zM553 167.9h112.4v21.2H553z" class="Q"/><path d="M558 171.8h13.3v13.3H558z" class="P"/><path d="M578.9 171.8h1.1v13.3h-1.1zm10.8 4.9h64.6v3.7h-64.6z" class="O"/><path d="M553 189.1h112.4v21.2H553z" class="R"/><path d="M558 193h13.3v13.3H558z" fill="#fff"/><path d="M578.9 193h1.1v13.3h-1.1zm10.8 4.9h64.6v3.7h-64.6zM553 210.3h112.4v21.2H553z" class="Q"/><path d="M558 214.2h13.3v13.3H558z" fill="#a6a6a6"/><path d="M578.9 214.2h1.1v13.3h-1.1zm10.8 4.9h64.6v3.7h-64.6z" class="O"/><defs ><path id="B" d="M341.7 500.5c0 .7-.6 1.3-1.3 1.3s-1.3-.6-1.3-1.3.6-1.3 1.3-1.3h0c.7 0 1.3.6 1.3 1.3z"/><path id="C" d="M448.1 528.8c0 .7-.6 1.3-1.3 1.3s-1.3-.6-1.3-1.3.6-1.3 1.3-1.3h0c.7 0 1.3.5 1.3 1.3z"/></defs></svg>