<svg xmlns="http://www.w3.org/2000/svg" viewBox="0 0 887.9 569.7" xmlns:v="https://vecta.io/nano"><path d="M276.4.3h611.5v391.6H276.4z" fill="#e6e6e6"/><path d="M292.4 49.5h576.5v319.3H292.4z" fill="#fff"/><path d="M276.2 0h611.5v26H276.2z" fill="#84f469"/><g fill="#fff"><circle cx="295.5" cy="13.3" r="4.8"/><circle cx="313.7" cy="13.3" r="4.8"/><circle cx="332" cy="13.3" r="4.8"/></g><path d="M707.3 79.4H519.6c-.9-.1-1.6-1-1.4-1.9a1.7 1.7 0 0 1 1.4-1.4h187.7c.9.1 1.6 1 1.4 1.9a1.7 1.7 0 0 1-1.4 1.4zM577.2 97.5H457.9c-.9-.1-1.6-1-1.4-1.9a1.7 1.7 0 0 1 1.4-1.4h119.3c.9.1 1.6 1 1.4 1.9 0 .8-.6 1.3-1.4 1.4zm130.1.4H587.9c-.9-.1-1.6-1-1.4-1.9a1.7 1.7 0 0 1 1.4-1.4h119.3c.9.1 1.6 1 1.4 1.9 0 .7-.6 1.3-1.3 1.4zm-129.8 17.8H458.2c-.9-.1-1.6-1-1.4-1.9a1.7 1.7 0 0 1 1.4-1.4h119.3c.9.1 1.6 1 1.4 1.9-.1.7-.6 1.3-1.4 1.4zm.3 18.2H458.5c-.9-.1-1.6-1-1.4-1.9a1.7 1.7 0 0 1 1.4-1.4h119.3c.9.1 1.6 1 1.4 1.9a1.7 1.7 0 0 1-1.4 1.4zm54.2-18.2h-34.2c-.9-.1-1.6-1-1.4-1.9a1.7 1.7 0 0 1 1.4-1.4H632c.9.1 1.6 1 1.4 1.9a1.7 1.7 0 0 1-1.4 1.4h0zm0 17.8h-34.2c-.9-.1-1.6-1-1.4-1.9a1.7 1.7 0 0 1 1.4-1.4H632c.9.1 1.6 1 1.4 1.9-.1.8-.7 1.3-1.4 1.4h0zm57.3 0h-34.2c-.9-.1-1.6-1-1.4-1.9a1.7 1.7 0 0 1 1.4-1.4h34.2c.9.1 1.6 1 1.4 1.9-.1.8-.6 1.3-1.4 1.4zM491.2 79.4H457c-.9-.1-1.6-1-1.4-1.9a1.7 1.7 0 0 1 1.4-1.4h34.2c.9.1 1.6 1 1.4 1.9a1.7 1.7 0 0 1-1.4 1.4zm85.6 208.3H457.5c-.9-.1-1.6-1-1.4-1.9a1.7 1.7 0 0 1 1.4-1.4h119.3c.9.1 1.6 1 1.4 1.9a1.7 1.7 0 0 1-1.4 1.4h0zm-.6 36.3H456.9c-.9-.1-1.6-1-1.4-1.9a1.7 1.7 0 0 1 1.4-1.4h119.3c.9.1 1.6 1 1.4 1.9-.1.7-.6 1.3-1.4 1.4zm.3 18.2H457.2c-.9-.1-1.6-1-1.4-1.9a1.7 1.7 0 0 1 1.4-1.4h119.3c.9.1 1.6 1 1.4 1.9a1.7 1.7 0 0 1-1.4 1.4h0zm51-17.9h-34.2c-.9-.1-1.6-1-1.4-1.9a1.7 1.7 0 0 1 1.4-1.4h34.2c.9.1 1.6 1 1.4 1.9-.1.8-.7 1.3-1.4 1.4h0zm0 17.9h-34.2c-.9-.1-1.6-1-1.4-1.9a1.7 1.7 0 0 1 1.4-1.4h34.2c.9.1 1.6 1 1.4 1.9a1.7 1.7 0 0 1-1.4 1.4h0zm57.3-17.9h-34.2c-.9-.1-1.6-1-1.4-1.9a1.7 1.7 0 0 1 1.4-1.4h34.2c.9.1 1.6 1 1.4 1.9 0 .8-.6 1.3-1.4 1.4zm22.6-18.5H519.7c-.9-.1-1.6-1-1.4-1.9a1.7 1.7 0 0 1 1.4-1.4h187.7c.9.1 1.6 1 1.4 1.9-.1.8-.6 1.3-1.4 1.4zm-216.1 0h-34.2c-.9-.1-1.6-1-1.4-1.9a1.7 1.7 0 0 1 1.4-1.4h34.2c.9.1 1.6 1 1.4 1.9 0 .8-.6 1.3-1.4 1.4z" fill="#ccc"/><path d="M149.8 461v50.1h-14.3l-9.5-52.5zm-113.4 0v50.1H22.1l-9.5-52.5zM112 91.5S89 75 86.1 82.9s17.3 22.3 17.3 22.3l8.6-13.7z" fill="#ffb9b9"/><path d="M30.4 112.7c0 28.6 12.3 29.5 32.4 29.5s40.3-.9 40.3-29.5-16.4-51.8-36.4-51.8-36.3 23.2-36.3 51.8z" fill="#2f2e41"/><path d="M79.6 112.3s-2.9 21.6 10.8 23-44.6 5.8-44.6 5.8 15.1-13.7 7.2-24.5 26.6-4.3 26.6-4.3z" fill="#ffb9b9"/><path d="M152.3 497.8l5 42.4s25.2 30.9 9.3 28.8-25.9.5-25.9-2.4-.4-13.2-2.5-13.2-3.9 16.2-3.9 16.2-6.5-.5-7.2-1.2-1.4-41.9-1.4-41.9-2.2-12.2 2.2-18 3.6-10.8 3.6-10.8h20.8v.1h0zm-114.6-.4l5 42.4s25.2 30.9 9.3 28.8-25.9.5-25.9-2.4-.3-13.2-2.4-13.2-3.9 16.2-3.9 16.2-6.5-.5-7.2-1.2-1.4-41.9-1.4-41.9-2.2-12.2 2.2-18 3.6-10.8 3.6-10.8h20.7v.1zm77.2-252s23 65.4 24.5 79.8-1.4 63.3-1.4 63.3 20.9 84.5 16.5 85.2-28.3 4.1-29.1.5-3.3-9.2-2.6-11.3-2.2-10.1-2.2-14.4-10.1-27-9.4-30.6-12.2-56.8-14.4-61.1-7.8-34.5-7.8-34.5L55.9 413c-.7 2.2-3.6 5.8-2.2 6.5s-2.2 5.8-2.2 5.8L44 456.6c0 1.5 1.4 17.7-1.4 18.4s-32.3.7-33.7-4.4 15.3-63.3 15.3-63.3 12.2-36.7 8.6-46 3.6-65.4 6.5-69.8 3.6-30.2 3.6-30.2l72-15.9z" fill="#2f2e41"/><circle cx="67" cy="101.2" r="23" fill="#ffb9b9"/><g fill="#84f469"><path d="M79.6 130.3s-25.9.7-27.3-1.4-37.4 5-37.4 19.4 20.9 70.5 20.9 70.5 7.9 40.3 5.8 44.6 79.8-9.3 77.7-16.5-14.4-23 1.4-36.7 22.3-28 22.3-28l-18.7-49.6s-18.7-2.9-23 0-21.7-2.3-21.7-2.3z"/><path d="M137.9 185.7l5-3.6s46.7-48.9 34.5-58.3-30.2-18-38.8-18.7-15.8-7.1-15.8-7.1-9.3-16.5-16.5-5.8-15.1 14.4-5 18 16.5 2.2 21.6 5.8 24.5 9.3 15.8 11.5a81.83 81.83 0 0 0-14.4 5L115 149l22.9 36.7z"/></g><path d="M56.6 307.2s18.7 27.3 5 25.9C48 331.7 41.5 313 41.5 313l15.1-5.8z" fill="#ffb9b9"/><path d="M19.9 144.7l-5 3.6s-16.5 90.6 0 114.4c16.5 23.7 18 22.3 18 22.3s2.9-2.2 4.3 12.2-.7 20.1 3.6 20.1 23.7-4.3 22.3-7.9-10.8-24.5-11.5-29.5-4.3-16.5-5.8-23c-1.4-6.5 6.5-10.1 2.9-23.7S40.1 195 40.1 190s-20.2-45.3-20.2-45.3z" fill="#84f469"/><path d="M44.8 80.7c0 7.7 10.6 14 23.7 14s25.2 4.1 25.2-3.6-12.1-24.4-25.2-24.4-23.7 6.2-23.7 14zm58 36.9s1 26.1-24.9 24.6 3.5-22.3 3.5-22.3l21.4-2.3z" fill="#2f2e41"/><path d="M390.8 207.6c0 15.2 8.8 28.2 21.6 34.4l-18.3-50.1c-2.1 4.9-3.3 10.2-3.3 15.7h0zm64.2-1.9c0-4.7-1.7-8-3.2-10.6-1.9-3.2-3.7-5.8-3.7-9 0-3.5 2.7-6.8 6.4-6.8h.5c-6.8-6.3-15.9-10.1-25.9-10.1-13.4 0-25.1 6.9-32 17.3h2.5c4 0 10.2-.5 10.2-.5 2.1-.1 2.3 2.9.2 3.2l-4.4.4 13.9 41.5 8.4-25.1-6-16.3c-2.1-.1-4-.4-4-.4-2.1-.1-1.8-3.3.2-3.2 0 0 6.3.5 10.1.5 4 0 10.2-.5 10.2-.5 2.1-.1 2.3 2.9.2 3.2l-4.4.4 13.8 41.2 3.8-12.8c1.9-5.3 3.2-9.1 3.2-12.4h0zm-25.2 5.3l-11.5 33.4c3.4 1 7.1 1.6 10.8 1.6 4.4 0 8.8-.8 12.7-2.2-.1-.2-.2-.4-.3-.5L429.8 211h0zm32.9-21.7c.2 1.2.2 2.5.2 3.9 0 3.9-.7 8.3-2.9 13.7l-11.7 33.8c11.4-6.7 19-19 19-33.1.1-6.6-1.6-12.9-4.6-18.3h0zM429.1 163c-24.6 0-44.6 20-44.6 44.6s20 44.6 44.6 44.6 44.6-20 44.6-44.6-19.9-44.6-44.6-44.6h0zm0 87.2c-23.5 0-42.6-19.1-42.6-42.6s19.1-42.6 42.6-42.6 42.6 19.1 42.6 42.6-19.1 42.6-42.6 42.6h0zm314.7-86l-37.5 21.6v43.3l10.7 6.2V192l26.8-15.5 26.8 15.5v43.3l10.7-6.2v-43.3l-37.5-21.6zm-5.4 26.5l-10.7 6.2v44.7l16.1 9.3 16.1-9.3v-44.7l-10.7-6.2v44.7l-5.4 3.1-5.4-3.1v-44.7h0zm-118.3-21.6h-67.2a4.91 4.91 0 0 0-4.9 4.9v67.2a4.91 4.91 0 0 0 4.9 4.9h67.2a4.91 4.91 0 0 0 4.9-4.9V174a4.91 4.91 0 0 0-4.9-4.9zm-30 59c0 7.3-4.3 10.7-10.6 10.7-5.7 0-9.8-3.8-11.4-7.3l5.8-3.5c1.1 2 2.8 3.5 5.2 3.5 2.3 0 3.7-.9 3.7-4.4V204h7.3v24.1zm15.9 10.6c-6.5 0-10.2-3.3-12.2-7.3l5.5-3.7c1.5 2.4 3.1 4.8 6.6 4.8 2.9 0 4.4-1.4 4.4-3.5 0-2.4-1.6-3.2-4.8-4.6l-1.7-.8c-5-2.1-8.4-4.8-8.4-10.5 0-5.2 4-9.2 10.2-9.2 4.4 0 7.6 1.5 9.9 5.6l-5.4 3.5c-1.2-2.2-2.5-3-4.5-3s-3.3 1.3-3.3 3c0 2.1 1.3 2.9 4.3 4.2l1.7.8c6 2.5 9.3 5.1 9.3 11 0 6.3-4.9 9.7-11.6 9.7z" fill="#84f469"/></svg>