<svg xmlns="http://www.w3.org/2000/svg" width="42" height="42" viewBox="0 0 42 42" fill="none"><g clip-path="url(#clip0_740_450)"><path d="M2.60938 31.4269L21.0018 41.9341L2.60938 10.4089V31.4269Z" fill="url(#paint0_linear_740_450)"></path><path d="M21.0017 -0.101807L2.60938 10.4089H39.3906L21.0017 -0.101807Z" fill="url(#paint1_linear_740_450)"></path><path d="M20.9961 41.9341L39.385 31.4269V10.4089L20.9961 41.9341Z" fill="url(#paint2_linear_740_450)"></path><path d="M2.60938 10.4089L21.0017 41.9341L39.3906 10.4089H2.60938Z" fill="url(#paint3_linear_740_450)"></path><g clip-path="url(#clip1_740_450)"><path d="M22.9442 14.916H27.7921C28.2932 20.3744 28.7943 25.8206 29.2953 31.2759H25.9661C25.6986 28.2485 25.4312 25.2151 25.1607 22.1725C25.1053 22.1695 25.0592 22.1604 25.0162 22.1604C24.5151 22.1604 24.014 22.1604 23.516 22.1604C23.4084 22.1604 23.3531 22.1817 23.3162 22.2912C22.8028 23.8885 22.2864 25.4828 21.7668 27.0802C21.4748 27.9747 21.1766 28.8692 20.8692 29.7942C20.8292 29.6694 20.7985 29.572 20.7647 29.4716C20.3374 28.1786 19.907 26.8885 19.4766 25.5954C19.1139 24.5001 18.745 23.4048 18.3884 22.3094C18.3515 22.1969 18.3084 22.1573 18.1855 22.1573C17.6906 22.1664 17.1956 22.1573 16.7007 22.1604C16.6484 22.1604 16.5992 22.1664 16.5378 22.1695C16.2795 25.209 16.0213 28.2394 15.7631 31.2789H12.4707C12.9011 25.8267 13.3284 20.3835 13.7618 14.916C15.2712 14.916 16.7714 14.916 18.2716 14.916C18.3884 14.916 18.5052 14.916 18.622 14.916H22.9473H22.9442ZM23.3008 15.8288C23.3039 15.4941 23.0118 15.199 22.6737 15.202C22.3663 15.202 22.0619 15.5002 22.0527 15.8105C22.0435 16.1178 22.3571 16.4373 22.6737 16.4373C23.0026 16.4373 23.2977 16.1543 23.3008 15.8288ZM19.1846 15.8288C19.2215 15.5032 18.914 15.2081 18.582 15.202C18.247 15.199 17.9611 15.488 17.958 15.8197C17.958 16.1483 18.2439 16.4373 18.579 16.4403C18.8987 16.4434 19.1815 16.1574 19.1846 15.8288Z" fill="white"></path><path d="M17.6585 23.7332C18.4762 26.2159 19.3062 28.7443 20.1393 31.2818H17.1113C17.2958 28.7443 17.4771 26.2128 17.6585 23.7332Z" fill="white"></path><path d="M24.0371 23.7849C24.2124 26.2098 24.3937 28.7412 24.5751 31.2787H21.584C22.4109 28.7504 23.2409 26.2159 24.0371 23.7849Z" fill="white"></path><path d="M22.944 14.9157C22.8241 14.9157 22.7042 14.9157 22.5813 14.9157C22.5967 14.2128 22.529 13.5161 22.3692 12.8315C22.2524 12.3356 22.0863 11.8609 21.782 11.4441C21.1088 10.5313 19.8699 10.5557 19.2612 11.511C19.0922 11.7788 18.9661 12.083 18.8708 12.3873C18.6157 13.2088 18.5849 14.0607 18.6187 14.9126C18.5019 14.9126 18.3851 14.9126 18.2683 14.9126C18.2314 13.9938 18.2837 13.084 18.5573 12.1986C18.7048 11.721 18.9139 11.2767 19.2889 10.9268C19.5871 10.65 19.9191 10.4583 20.3495 10.4978C20.414 10.5039 20.4786 10.5039 20.5401 10.4978C21.3086 10.4187 21.8035 10.8264 22.1816 11.4167C22.5382 11.9704 22.7135 12.5911 22.8026 13.2301C22.8795 13.7869 22.8979 14.3528 22.941 14.9126L22.944 14.9157Z" fill="white"></path><path d="M23.303 15.8287C23.2999 16.1542 23.0048 16.4402 22.6759 16.4372C22.3592 16.4372 22.0457 16.1177 22.0549 15.8104C22.0641 15.5001 22.3684 15.2019 22.6759 15.2019C23.014 15.2019 23.3061 15.494 23.303 15.8287ZM22.6728 16.3094C22.9556 16.3094 23.1739 16.1055 23.18 15.8287C23.1862 15.5518 22.971 15.3327 22.6912 15.3297C22.4115 15.3297 22.1901 15.5366 22.184 15.8104C22.1809 16.0873 22.3961 16.3064 22.6728 16.3094Z" fill="white"></path><path d="M19.1875 15.8255C19.1875 16.1541 18.9047 16.4401 18.5819 16.4371C18.2469 16.434 17.9579 16.148 17.961 15.8164C17.961 15.4848 18.2499 15.1957 18.585 15.1988C18.917 15.2018 19.2244 15.4969 19.1875 15.8255ZM18.5727 16.3062C18.8555 16.3062 19.0738 16.1024 19.0799 15.8255C19.0861 15.5517 18.8678 15.3326 18.5912 15.3265C18.3114 15.3235 18.0931 15.5304 18.087 15.8073C18.0809 16.0841 18.293 16.3032 18.5727 16.3032V16.3062Z" fill="white"></path></g></g><defs><linearGradient id="paint0_linear_740_450" x1="11.8221" y1="42.3985" x2="11.8221" y2="10.4089" gradientUnits="userSpaceOnUse"><stop stop-color="#039D55"></stop><stop offset="1" stop-color="#00CA6B"></stop></linearGradient><linearGradient id="paint1_linear_740_450" x1="21.033" y1="10.5637" x2="21.033" y2="-0.101807" gradientUnits="userSpaceOnUse"><stop stop-color="#00CA6B"></stop><stop offset="1" stop-color="#039D55"></stop></linearGradient><linearGradient id="paint2_linear_740_450" x1="30.2071" y1="42.3985" x2="30.207" y2="10.4089" gradientUnits="userSpaceOnUse"><stop stop-color="#039D55"></stop><stop offset="1" stop-color="#00CA6B"></stop></linearGradient><linearGradient id="paint3_linear_740_450" x1="21.033" y1="42.3985" x2="21.033" y2="10.4089" gradientUnits="userSpaceOnUse"><stop stop-color="#00CA6B"></stop><stop offset="1" stop-color="#039D55"></stop></linearGradient><clipPath id="clip0_740_450"><rect width="42" height="42" fill="white"></rect></clipPath><clipPath id="clip1_740_450"><rect width="16.8347" height="21.3471" fill="white" transform="translate(12.3867 9.93823)"></rect></clipPath></defs></svg>