<svg xmlns="http://www.w3.org/2000/svg" width="43" height="42" viewBox="0 0 43 42" fill="none"><g clip-path="url(#clip0_747_440)"><path d="M3.00586 31.5056L21.3809 42.003L3.00586 10.5056V31.5056Z" fill="url(#paint0_linear_747_440)"></path><path d="M21.3809 0.00292969L3.00586 10.5056H39.7532L21.3809 0.00292969Z" fill="url(#paint1_linear_747_440)"></path><path d="M21.3828 42.003L39.7552 31.5056V10.5056L21.3828 42.003Z" fill="url(#paint2_linear_747_440)"></path><path d="M3.00586 10.5056L21.3809 42.003L39.7532 10.5056H3.00586Z" fill="url(#paint3_linear_747_440)"></path><path d="M32.7503 18.491H10.0099C9.74215 18.491 9.52427 18.3046 9.55577 18.092C9.83927 16.0865 10.9759 14.2858 12.669 12.9313C14.6351 11.3589 17.352 10.385 20.355 10.385H22.4078C27.9938 10.385 32.5954 13.7555 33.207 18.092C33.2359 18.3046 33.018 18.4936 32.7503 18.4936V18.491Z" fill="white"></path><path d="M33.2211 27.5576C33.061 28.5971 32.5728 29.5289 31.8614 30.2377C30.9873 31.1118 29.7798 31.6526 28.4436 31.6526H14.3185C11.9009 31.6526 9.89539 29.8754 9.54102 27.5549H33.2211V27.5576Z" fill="white"></path><path d="M33.2774 24.762V25.77C33.2774 26.0614 32.9545 26.2425 32.713 26.0824L32.7051 26.0771C32.6763 26.0588 29.5499 24.0218 25.4103 24.279C24.0453 24.363 22.9401 24.7725 21.7694 25.203C20.4884 25.6755 19.1654 26.1664 17.467 26.2504C17.2308 26.2635 16.9945 26.2688 16.7635 26.2688C13.5374 26.2688 10.9255 25.3579 9.69175 24.7489C9.56575 24.6859 9.48438 24.5573 9.48438 24.4181V23.4075C9.48438 23.124 9.79675 22.9508 10.0382 23.103C10.0829 23.1319 13.2775 24.9116 17.3646 24.7095C18.748 24.6413 19.8689 24.2265 21.0554 23.7881C22.3127 23.3235 23.6148 22.8431 25.2816 22.7381C28.8779 22.515 31.7628 23.7435 33.0805 24.4365C33.2013 24.4995 33.2774 24.6255 33.2774 24.762Z" fill="white"></path><path d="M33.2774 21.8378V22.8668C33.2774 23.1503 32.965 23.3262 32.7261 23.174C32.7183 23.1687 32.713 23.1661 32.7051 23.1608C32.6763 23.1425 29.5499 21.3102 25.4103 21.5675C24.0453 21.6515 22.9401 22.061 21.7694 22.4915C20.4884 22.964 19.1654 23.4548 17.467 23.5388C17.2308 23.552 16.9945 23.5572 16.7635 23.5572C13.5295 23.5572 10.9124 22.4547 9.68125 21.83C9.5605 21.767 9.48438 21.6436 9.48438 21.5071V20.4912C9.48438 20.2077 9.79675 20.0345 10.0382 20.1867C10.0829 20.2156 13.2775 22.2027 17.3646 21.998C18.748 21.9297 19.8689 21.515 21.0554 21.0766C22.3127 20.612 23.6148 20.1316 25.2816 20.0266C28.8779 19.8035 31.7654 20.8456 33.0805 21.5202C33.2013 21.5806 33.2748 21.7066 33.2748 21.8405L33.2774 21.8378Z" fill="white"></path><path d="M21.6686 19.6772C21.2696 19.8111 20.8863 19.9529 20.5215 20.0894C19.4032 20.5041 18.4372 20.8611 17.2901 20.9162C17.1195 20.9241 16.9462 20.9294 16.7756 20.9294C14.4446 20.9294 12.4706 20.1445 11.502 19.6772H21.6712H21.6686Z" fill="#E6E6E6"></path><path d="M33.2728 19.8899V20.3257C33.2728 20.4674 33.1363 20.5724 32.9998 20.5357C31.9892 20.2784 31.1702 19.9293 30.6426 19.6694H33.055C33.1757 19.6694 33.2728 19.7666 33.2728 19.8873V19.8899Z" fill="#E6E6E6"></path><path d="M26.1362 25.2239C28.4567 25.2239 30.3677 26.0166 31.2812 26.476H21.1934C21.5819 26.3448 21.952 26.2083 22.309 26.077C23.4141 25.6675 24.3696 25.3158 25.5089 25.2449C25.7162 25.2318 25.9289 25.2265 26.1362 25.2265V25.2239Z" fill="#E6E6E6"></path><path d="M12.1993 26.4786H9.68192C9.57167 26.4786 9.48242 26.3894 9.48242 26.2791V25.762C9.48242 25.6334 9.60317 25.5362 9.72917 25.5677C10.808 25.8381 11.6769 26.2082 12.1993 26.4786Z" fill="#E6E6E6"></path><path d="M21.3806 10.3849C25.998 11.763 28.1453 13.2802 29.5234 15.354C29.9408 15.9814 29.4368 16.7505 28.5548 16.8266L9.98551 18.462C9.95926 18.462 9.96189 18.4935 9.98551 18.4935H32.7364C33.0251 18.4935 33.2483 18.2887 33.2063 18.0604C32.2061 12.6135 26.3471 10.0305 21.378 10.3849H21.3806Z" fill="#E6E6E6"></path><path d="M9.54102 27.5576C9.54102 27.5576 11.7303 30.0487 14.0088 30.4399C16.5393 30.873 26.9579 30.8415 29.0658 30.4399C31.2576 30.0199 32.6594 28.4869 33.2211 27.5576C33.124 28.9672 31.5228 31.6552 29.0448 31.6552H13.9248C12.1503 31.6552 9.94789 30.0461 9.54102 27.5576Z" fill="#E6E6E6"></path></g><defs><linearGradient id="paint0_linear_747_440" x1="12.1934" y1="42.003" x2="12.1934" y2="10.5056" gradientUnits="userSpaceOnUse"><stop stop-color="#E96000"></stop><stop offset="1" stop-color="#F2914E"></stop></linearGradient><linearGradient id="paint1_linear_747_440" x1="21.3809" y1="10.5056" x2="21.3809" y2="0.00292969" gradientUnits="userSpaceOnUse"><stop stop-color="#F2914E"></stop><stop offset="1" stop-color="#E96000"></stop></linearGradient><linearGradient id="paint2_linear_747_440" x1="30.5703" y1="42.528" x2="30.5703" y2="42.528" gradientUnits="userSpaceOnUse"><stop stop-color="#E96000"></stop><stop offset="1" stop-color="#F2914E"></stop></linearGradient><linearGradient id="paint3_linear_747_440" x1="21.3809" y1="42.003" x2="21.3809" y2="10.5056" gradientUnits="userSpaceOnUse"><stop offset="0.02" stop-color="#F2914E"></stop><stop offset="1" stop-color="#EC6506"></stop></linearGradient><clipPath id="clip0_747_440"><rect width="42" height="42" fill="white" transform="translate(0.380859)"></rect></clipPath></defs></svg>