<svg xmlns="http://www.w3.org/2000/svg" width="43" height="43" viewBox="0 0 43 43" fill="none"><g clip-path="url(#clip0_747_532)"><path d="M2.9375 31.8135L21.1375 42.3135L2.9375 10.8135V31.8135Z" fill="url(#paint0_linear_747_532)"></path><path d="M21.1375 0.313477L2.9375 10.8135H39.3025L21.1375 0.313477Z" fill="url(#paint1_linear_747_532)"></path><path d="M21.1367 42.3135L39.3367 31.8135V10.8135L21.1367 42.3135Z" fill="url(#paint2_linear_747_532)"></path><path d="M2.9375 10.8135L21.1375 42.3135L39.3375 10.8135H2.9375Z" fill="url(#paint3_linear_747_532)"></path><path d="M26.0023 20.6139C22.5373 19.8789 19.1423 20.3689 15.7473 21.2089C15.0823 21.3489 15.0823 21.3489 15.1173 21.9089C15.1523 22.1889 15.1873 22.4689 15.1873 22.7489C15.2923 23.7289 15.3973 24.7439 15.5373 25.7239C15.5723 26.0389 15.5723 26.3539 15.6073 26.6689L15.8523 28.9089C15.8873 29.1889 15.9223 29.4339 15.9573 29.7139C16.0273 30.3089 16.0973 30.9389 16.1323 31.5339C16.1673 31.8489 16.2023 32.1639 16.2373 32.4789C16.3073 33.2489 16.3773 34.0189 16.4473 34.8589C17.2873 34.7539 18.0573 34.6839 18.8273 34.5439C20.2973 34.2989 21.6973 33.9139 22.9573 33.1439C23.2723 32.9689 23.5523 32.7589 23.8673 32.5839C23.7273 32.5839 23.5873 32.5489 23.4123 32.5489C23.5523 32.5489 23.6923 32.5839 23.8673 32.5839C24.1123 32.4089 24.3923 32.1989 24.6373 32.0239C25.3023 31.3239 25.9673 30.6589 26.6323 29.9589C26.9823 29.3289 27.3323 28.6639 27.7173 28.0339C27.7873 27.9289 27.8223 27.8239 27.8923 27.7189C28.5923 25.9689 28.5923 24.1839 28.1023 22.3989C27.6123 20.8239 27.9273 21.0339 26.0023 20.6139ZM21.7323 31.8839C21.7673 31.8839 21.8023 31.9189 21.8373 31.9189C21.8023 31.9189 21.7673 31.9189 21.7323 31.8839ZM20.7173 25.1639C20.8573 24.1139 20.9973 23.0989 21.0673 22.0839C21.1023 21.8389 21.2423 21.8389 21.4523 21.8039C21.7673 22.0489 22.1873 22.2589 22.3973 22.5739C22.7473 23.0289 22.9223 23.5539 23.2023 24.0789C23.2723 24.3589 23.3073 24.6039 23.3773 24.8839C23.4123 25.3739 23.4473 25.8289 23.4823 26.3189V26.9489C23.4123 27.4039 23.3423 27.8589 23.2723 28.3139C23.0973 28.7689 22.9573 29.1889 22.7823 29.6439C22.3273 30.5189 21.8373 31.3939 20.9623 32.0589C20.6123 32.3389 20.2273 32.5839 19.8073 32.8639L19.7723 32.5839C19.8073 32.4089 19.8073 32.2689 19.8423 32.0939C19.9473 31.3239 20.0173 30.5539 20.1223 29.7839C20.1923 29.1539 20.2623 28.4889 20.3323 27.8589C20.4723 26.9139 20.5773 26.0389 20.7173 25.1639Z" fill="white"></path><path d="M26.2111 15.8189C25.5111 14.9089 25.7211 13.9289 25.7911 12.9489C25.4061 13.4039 25.0911 13.8239 24.7411 14.2439C24.3561 14.5239 24.0061 14.8389 23.4461 14.8039C22.7111 14.6989 22.3961 14.1739 22.0461 13.6839C21.7661 12.7739 21.4861 11.8639 21.2411 11.1289C20.9961 11.8989 20.7161 12.7739 20.4361 13.6839C20.3311 13.7889 20.2611 13.9289 20.1561 14.0339C19.8411 14.4539 19.4911 14.8039 18.8611 14.8039C18.2661 14.7339 17.9161 14.3839 17.5311 14.0689C17.2511 13.6839 16.9711 13.2989 16.6211 12.8789C16.6561 13.1939 16.7261 13.4389 16.7261 13.6839C16.7961 14.4889 16.7611 15.2939 16.1311 15.9239C15.5361 16.3089 14.9411 16.2389 14.3461 15.9239C13.9261 15.7139 13.5061 15.4339 13.1211 15.1889C13.7161 16.2389 14.4861 17.2189 14.4861 18.4789C15.7111 17.7089 17.0761 17.4639 18.4411 17.1489C19.3511 17.0789 20.2261 16.9389 21.1361 16.9389C22.0461 16.9389 22.9561 17.0439 23.8661 17.1139C25.0561 17.4639 26.2461 17.8139 27.4361 18.1639C27.5411 18.1989 27.7511 18.0939 27.7861 17.9889C28.1711 17.3239 28.5211 16.6239 28.8711 15.9589C29.0111 15.7489 29.1861 15.5389 29.3261 15.3289C28.8711 15.5389 28.4511 15.8189 28.0311 16.0289C27.3661 16.2739 26.7711 16.2739 26.2111 15.8189Z" fill="white"></path><path d="M16.4821 20.0538C17.2521 19.8438 18.0221 19.6688 18.7921 19.4588C19.5621 19.3888 20.2971 19.3188 21.0671 19.2488C21.7321 19.2838 22.3971 19.3188 23.0971 19.3188C23.4471 19.3538 23.7621 19.4238 24.1121 19.4588C24.9521 19.7038 25.7571 19.9138 26.5971 20.1588C27.1571 20.2988 27.6471 20.1238 27.8921 19.6688C28.1371 19.2488 27.9621 18.7238 27.4021 18.5488C26.3521 18.1988 25.2671 17.9188 24.2171 17.6388C23.8671 17.6038 23.5521 17.5338 23.2021 17.4988C22.5371 17.4638 21.8721 17.4288 21.1721 17.3938C20.4021 17.4638 19.6321 17.5338 18.8971 17.6038C18.0571 17.8138 17.2171 18.0238 16.3771 18.1988C16.0621 18.3038 15.7471 18.4088 15.4671 18.5138C15.1171 18.6538 14.8371 18.8988 14.8721 19.2488C14.9071 19.5288 15.0471 19.8438 15.2921 20.0188C15.6421 20.3338 16.0971 20.2638 16.4821 20.0538Z" fill="white"></path><path d="M21.3812 9.97382C21.8012 9.97382 22.0462 9.76382 22.1512 9.34382C22.1862 8.85382 21.8362 8.53882 21.3462 8.53882C20.8562 8.53882 20.5762 8.85382 20.5762 9.34382C20.7162 9.76382 20.9612 9.97382 21.3812 9.97382Z" fill="white"></path><path d="M29.9913 13.5437C29.6063 13.5437 29.3963 13.7887 29.3613 14.2087C29.3963 14.5587 29.6763 14.7337 30.0263 14.7337C30.3763 14.7337 30.6563 14.5587 30.6913 14.2087C30.6563 13.7887 30.4113 13.5437 29.9913 13.5437Z" fill="white"></path><path d="M12.247 13.5789C11.862 13.6139 11.617 13.7889 11.582 14.1389C11.582 14.5239 11.862 14.7339 12.247 14.7339C12.667 14.7339 12.912 14.5239 12.912 14.1389C12.842 13.8239 12.667 13.5439 12.247 13.5789Z" fill="white"></path><path d="M16.3429 12.1087C16.7279 12.1087 16.9729 11.9337 17.0429 11.5487C17.0079 11.1287 16.7979 10.9187 16.3779 10.9187C15.9579 10.9187 15.7479 11.1287 15.7129 11.5487C15.7129 11.9337 15.9579 12.1087 16.3429 12.1087Z" fill="white"></path><path d="M26.4578 12.1086C26.8428 12.1086 27.0528 11.8986 27.0878 11.5486C27.0878 11.1286 26.8428 10.8836 26.3878 10.9186C25.9678 10.9186 25.7578 11.1636 25.7578 11.5836C25.8628 11.9336 26.1078 12.1436 26.4578 12.1086Z" fill="white"></path></g><defs><linearGradient id="paint0_linear_747_532" x1="23.6504" y1="42.3395" x2="-3.80189" y2="14.4746" gradientUnits="userSpaceOnUse"><stop stop-color="#0461A5"></stop><stop offset="1" stop-color="#269CE7"></stop></linearGradient><linearGradient id="paint1_linear_747_532" x1="20.8994" y1="17.6147" x2="21.5147" y2="-1.02713" gradientUnits="userSpaceOnUse"><stop stop-color="#269CE7"></stop><stop offset="1" stop-color="#0461A5"></stop></linearGradient><linearGradient id="paint2_linear_747_532" x1="41.8496" y1="42.3395" x2="14.3973" y2="14.4746" gradientUnits="userSpaceOnUse"><stop stop-color="#0461A5"></stop><stop offset="1" stop-color="#269CE7"></stop></linearGradient><linearGradient id="paint3_linear_747_532" x1="21.5326" y1="42.3135" x2="24.2776" y2="11.0545" gradientUnits="userSpaceOnUse"><stop stop-color="#269CE7"></stop><stop offset="1" stop-color="#0461A5"></stop></linearGradient><clipPath id="clip0_747_532"><rect width="42" height="42" fill="white" transform="translate(0.136719 0.310547)"></rect></clipPath></defs></svg>