<svg xmlns="http://www.w3.org/2000/svg" width="43" height="42" viewBox="0 0 43 42" fill="none"><g clip-path="url(#clip0_747_474)"><path d="M3.32422 31.5107L21.7166 42.0178L3.32422 10.4929L3.32422 31.5107Z" fill="url(#paint0_linear_747_474)"></path><path d="M21.7166 -0.0175781L3.32422 10.493L40.1056 10.493L21.7166 -0.0175781Z" fill="url(#paint1_linear_747_474)"></path><path d="M21.7109 42.0178L40.0999 31.5107V10.4929L21.7109 42.0178Z" fill="url(#paint2_linear_747_474)"></path><path d="M3.32422 10.4929L21.7166 42.0178L40.1056 10.4929L3.32422 10.4929Z" fill="url(#paint3_linear_747_474)"></path><path d="M23.9373 18.3585C23.9373 18.3585 17.6931 17.7231 16.6022 22.1476C15.5113 26.5721 15.3405 27.1736 15.3405 27.1736C15.3405 27.1736 14.6775 30.0968 17.1068 30.2596C18.7484 30.3685 20.3961 30.3707 22.038 30.266M27.2466 23.1493C26.158 27.5791 26.0283 30.3248 21.5762 30.2877M22.8971 24.8053C25.0847 23.5379 27.521 22.6946 30.0621 22.3252" stroke="white" stroke-width="2.60331" stroke-linecap="round"></path><path d="M20.6469 15.6493C20.6281 15.51 19.8521 9.89966 26.6555 10.2889C26.7667 10.8871 26.7512 11.5001 26.6098 12.0927C26.4685 12.6854 26.204 13.2461 25.8315 13.7429C25.459 14.2397 24.9858 14.6629 24.4389 14.9882C23.892 15.3135 23.2821 15.5346 22.6441 15.639C22.1437 15.7208 21.6329 15.7296 21.1296 15.6652C20.973 15.6627 20.812 15.6574 20.6469 15.6493Z" fill="white" stroke="white" stroke-width="0.0223756"></path></g><defs><linearGradient id="paint0_linear_747_474" x1="12.5204" y1="42.0178" x2="12.5204" y2="10.4929" gradientUnits="userSpaceOnUse"><stop stop-color="#01937C"></stop><stop offset="1" stop-color="#00D0AF"></stop></linearGradient><linearGradient id="paint1_linear_747_474" x1="21.7149" y1="10.493" x2="21.7149" y2="-0.0175782" gradientUnits="userSpaceOnUse"><stop stop-color="#00D0AF"></stop><stop offset="1" stop-color="#01937C"></stop></linearGradient><linearGradient id="paint2_linear_747_474" x1="30.9054" y1="42.0178" x2="30.9054" y2="10.4929" gradientUnits="userSpaceOnUse"><stop stop-color="#01937C"></stop><stop offset="1" stop-color="#00D0AF"></stop></linearGradient><linearGradient id="paint3_linear_747_474" x1="21.7149" y1="42.0178" x2="21.7149" y2="10.4929" gradientUnits="userSpaceOnUse"><stop stop-color="#00D0AF"></stop><stop offset="1" stop-color="#01937C"></stop></linearGradient><clipPath id="clip0_747_474"><rect width="42" height="42" fill="white" transform="translate(0.714844)"></rect></clipPath></defs></svg>