<svg xmlns="http://www.w3.org/2000/svg" width="43" height="42" viewBox="0 0 43 42" fill="none"><g clip-path="url(#clip0_747_461)"><path d="M3.57812 31.5078L21.9548 42.006L3.57812 10.5081V31.5078Z" fill="url(#paint0_linear_747_461)"></path><path d="M21.9548 0.00610352L3.57812 10.5077H40.328L21.9548 0.00610352Z" fill="url(#paint1_linear_747_461)"></path><path d="M21.9551 42.0058L40.3283 31.5076V10.5078L21.9551 42.0058Z" fill="url(#paint2_linear_747_461)"></path><path d="M3.57812 10.5081L21.9548 42.006L40.328 10.5081H3.57812Z" fill="url(#paint3_linear_747_461)"></path><g clip-path="url(#clip1_747_461)"><path fill-rule="evenodd" clip-rule="evenodd" d="M10.2065 29.5429C10.2187 29.5476 10.2308 29.5522 10.2414 29.5577L34.2345 29.5576C34.3708 29.4975 34.4711 29.411 34.4277 29.2533C34.3834 29.0921 34.2444 29.0762 34.0982 29.0818C34.0718 29.0828 34.0454 29.0825 34.0191 29.0822C34.0068 29.0821 33.9945 29.082 33.9822 29.082H30.8178C31.4843 28.8351 32.0174 28.4548 32.3622 27.86C32.7016 27.2845 32.7922 26.6052 32.6146 25.9669C32.6335 25.9614 32.6507 25.9563 32.6669 25.9516C32.6983 25.9423 32.7257 25.9342 32.7534 25.9268C32.8337 25.9073 32.909 25.8721 32.9744 25.8234C33.0398 25.7747 33.094 25.7136 33.1335 25.6439C33.1729 25.5743 33.1968 25.4975 33.2037 25.4186C33.2106 25.3397 33.2002 25.2602 33.1734 25.1853C32.8256 24.1475 31.6589 23.2847 30.5165 23.1977C30.0761 23.1683 29.6337 23.2119 29.2089 23.3265C29.0871 22.8103 28.8903 22.313 28.6241 21.8489C28.1209 20.8965 27.6086 19.9486 27.0963 19.0006C26.8884 18.6159 26.6805 18.2313 26.4732 17.8463C26.4557 17.8137 26.4392 17.7806 26.4209 17.7437C26.412 17.7257 26.4027 17.7069 26.3926 17.6869C26.4202 17.685 26.4448 17.6836 26.4673 17.6823C26.5111 17.6797 26.5472 17.6775 26.5831 17.6737C26.622 17.673 26.6604 17.6649 26.6961 17.65C26.7317 17.635 26.7639 17.6135 26.7908 17.5866C26.8177 17.5597 26.8388 17.528 26.8529 17.4934C26.8669 17.4587 26.8736 17.4217 26.8726 17.3845C26.8781 16.7574 26.8779 16.1304 26.8719 15.5034C26.8735 15.4646 26.8667 15.4259 26.8519 15.3897C26.8372 15.3535 26.8148 15.3206 26.7861 15.2931C26.7574 15.2656 26.7231 15.244 26.6853 15.2297C26.6475 15.2154 26.607 15.2086 26.5664 15.2099C26.3022 15.2022 26.0378 15.2173 25.7765 15.255C25.0824 15.3802 24.5924 15.7919 24.2205 16.3426C24.199 16.3868 24.1628 16.423 24.1176 16.4456C24.0724 16.4683 24.0207 16.4761 23.9704 16.468C23.8431 16.4548 23.7145 16.451 23.5862 16.4473C23.5601 16.4466 23.534 16.4458 23.5079 16.445C23.2809 16.4377 23.1387 16.542 23.1363 16.7142C23.1339 16.883 23.2602 16.9903 23.4788 16.9992C23.5316 17.0014 23.5847 17.0014 23.6377 17.0013C23.7229 17.0013 23.8081 17.0012 23.8923 17.0104C23.9481 17.0254 23.996 17.0597 24.0267 17.1066C24.0853 17.1864 24.1394 17.2692 24.1935 17.352C24.2256 17.4011 24.2577 17.4502 24.2907 17.4987C24.3465 17.5614 24.3953 17.6294 24.4366 17.7016C24.6091 18.1352 24.7795 18.5696 24.9499 19.0039C25.2451 19.7565 25.5404 20.5091 25.8468 21.2575C26.1547 21.9624 26.2147 22.7437 26.0178 23.484C25.7527 24.4644 25.238 25.3228 24.6021 26.1213C24.5544 26.1596 24.4929 26.1789 24.4306 26.1749C23.3924 26.1784 22.3541 26.1784 21.3159 26.175C21.2284 26.1738 21.142 26.1565 21.0613 26.1243C20.267 25.8076 19.8908 25.1559 20.0324 24.3299C20.0366 24.3055 20.0406 24.2804 20.0446 24.2549C20.069 24.0993 20.0957 23.9298 20.1908 23.8273C20.5433 23.4471 20.6868 23.0399 20.512 22.5288C20.5361 22.5288 20.5587 22.529 20.5803 22.5292C20.6243 22.5295 20.6642 22.5298 20.7039 22.5285C20.9928 22.5191 21.1411 22.3764 21.1433 22.104C21.1446 21.9353 21.1442 21.7666 21.1439 21.5979C21.1438 21.5453 21.1437 21.4927 21.1436 21.44C21.1431 20.9489 20.8224 20.6439 20.3057 20.6439C18.7096 20.6437 17.1136 20.6437 15.5175 20.644C15.4568 20.6427 15.3961 20.6448 15.3356 20.6504C15.2047 20.6584 15.0794 20.7046 14.9768 20.7828C14.8743 20.8609 14.7993 20.9673 14.7621 21.0875C14.7151 21.2102 14.711 21.3441 14.7503 21.4692C14.7896 21.5943 14.8703 21.7039 14.9803 21.7816C15.0132 21.7992 15.0484 21.8124 15.0851 21.8207L14.4858 22.1555L12.5978 20.1259C12.6394 20.1259 12.6745 20.1259 12.7056 20.126C12.7579 20.126 12.7986 20.1261 12.8392 20.1259C13.938 20.1224 15.0368 20.118 16.1357 20.1126C16.3215 20.1117 16.4313 20.0224 16.4293 19.8834C16.4272 19.7406 16.3221 19.6604 16.1333 19.6596C15.981 19.659 15.8287 19.6592 15.6749 19.6593C15.6077 19.6594 15.5403 19.6594 15.4724 19.6594C15.4703 19.6413 15.4682 19.6258 15.4662 19.6119C15.4627 19.5863 15.4599 19.5664 15.4599 19.5465C15.4592 18.7275 15.4588 17.9085 15.4587 17.0895C15.4586 16.8609 15.4588 16.6324 15.459 16.4038C15.4593 15.9579 15.4596 15.512 15.4585 15.0661C15.4576 14.6896 15.2988 14.5413 14.9039 14.5413C13.0593 14.5412 11.2147 14.5412 9.37014 14.5413C8.95972 14.5413 8.80791 14.6835 8.80768 15.0704C8.80757 15.9422 8.80752 16.8141 8.80752 17.6859V19.6595C8.74104 19.6595 8.6763 19.6592 8.61282 19.6589C8.45107 19.6583 8.29749 19.6577 8.14404 19.6615C8.08113 19.663 7.98952 19.6697 7.9627 19.7074C7.90723 19.779 7.87848 19.8663 7.88101 19.9553C7.89718 20.0744 8.01097 20.1123 8.13276 20.1133C8.29378 20.1147 8.45481 20.1166 8.61583 20.1185C8.87433 20.1216 9.13282 20.1247 9.39132 20.1254C10.1921 20.1283 10.9929 20.1278 11.7937 20.1238C11.8423 20.1214 11.8908 20.13 11.9353 20.149C11.9797 20.1681 12.0187 20.1969 12.0491 20.2333C12.4245 20.6395 12.8022 21.0438 13.1799 21.4481C13.3422 21.622 13.5046 21.7958 13.6669 21.9698C13.7745 22.0852 13.8812 22.2013 13.9875 22.3169C14.0358 22.3694 14.084 22.4218 14.1321 22.474C14.017 22.5813 13.9139 22.6997 13.8244 22.8274C13.7461 22.9849 13.6212 23.1171 13.4651 23.2077C13.309 23.2982 13.1286 23.3432 12.9461 23.337C12.6462 23.3464 12.4442 23.5398 12.3409 23.8085C12.2783 23.9712 12.2257 24.1381 12.1802 24.306C12.1382 24.4522 12.1468 24.6074 12.2046 24.7487C12.2624 24.8899 12.3663 25.0095 12.501 25.0898C12.6029 25.143 12.7085 25.1896 12.817 25.2292C12.8038 25.2979 12.7913 25.3675 12.7787 25.4376C12.7476 25.6109 12.716 25.7872 12.6717 25.9605C12.6647 26.0209 12.6361 26.0772 12.5907 26.1198C12.5453 26.1624 12.4859 26.1887 12.4225 26.1943C12.29 26.2078 12.2441 26.3224 12.2437 26.4443C12.2435 26.5049 12.2431 26.5655 12.2427 26.6261C12.2415 26.8079 12.2403 26.9898 12.2452 27.1714C12.2514 27.3958 12.3634 27.4967 12.5984 27.4987C12.6293 27.499 12.6601 27.4993 12.691 27.4996C12.9639 27.502 13.2369 27.5045 13.5096 27.4965C13.5621 27.4879 13.6162 27.498 13.6616 27.5248C13.7069 27.5517 13.7404 27.5935 13.7557 27.6423C13.899 27.9604 14.11 28.2466 14.3752 28.4828C14.6405 28.7189 14.9542 28.8998 15.2965 29.014C15.3235 29.0239 15.3498 29.0353 15.3762 29.0466C15.3886 29.052 15.401 29.0574 15.4135 29.0625L15.4047 29.082H15.223C13.6269 29.0819 12.0309 29.082 10.4348 29.0823C10.3695 29.0719 10.3027 29.0752 10.2388 29.092C10.1634 29.1299 10.0646 29.1931 10.0519 29.2589C10.04 29.3202 10.0813 29.3933 10.1196 29.4611C10.1278 29.4757 10.1359 29.4901 10.1434 29.504C10.1531 29.5224 10.1798 29.5327 10.2065 29.5429ZM29.2969 29.071H16.9995C17.0706 29.0335 17.1446 28.9964 17.22 28.9586C17.392 28.8723 17.571 28.7826 17.7386 28.6764C18.1371 28.4236 18.446 28.0613 18.6242 27.6372C18.6384 27.5908 18.6698 27.5509 18.7126 27.525C18.7554 27.4991 18.8066 27.489 18.8567 27.4966C19.5727 27.4981 20.2887 27.4976 21.0048 27.4971C22.2052 27.4962 23.4057 27.4952 24.6061 27.5039C25.3726 27.5085 26.1206 27.2794 26.7415 26.85C26.7779 26.8258 26.8142 26.8014 26.8409 26.7834C26.8506 26.7769 26.8591 26.7712 26.8658 26.7667L27.4071 27.0322C27.5922 28.0123 28.2214 28.6976 29.2969 29.071ZM28.6298 26.9843C28.6278 26.9736 28.6258 26.9631 28.6237 26.953C28.7195 26.9348 28.8149 26.9171 28.91 26.8995C29.1195 26.8607 29.3273 26.8223 29.5338 26.7781C29.9403 26.6792 30.3262 26.5147 30.6748 26.2918C30.8595 26.1899 31.0532 26.1036 31.2536 26.0339C31.2815 26.0325 31.3092 26.0379 31.3343 26.0495C31.3594 26.0612 31.3809 26.0788 31.3969 26.1006C31.7339 26.8311 31.2864 27.7041 30.4864 27.9551C29.7568 28.184 28.8791 27.7937 28.6464 27.0567C28.6388 27.0328 28.6342 27.008 28.6298 26.9843ZM16.3503 28.0113C15.8381 28.0667 15.3115 27.8528 15.0696 27.505H17.3178C17.2029 27.6497 17.0574 27.7695 16.8906 27.8567C16.7239 27.944 16.5398 27.9966 16.3503 28.0113ZM26.3705 15.6858V17.1979H26.0638V15.6858H26.3705ZM13.1984 23.7741L12.8839 24.7336C12.7051 24.6955 12.6182 24.5995 12.6535 24.4475C12.6933 24.2731 12.7482 24.1022 12.8176 23.9365C12.8842 23.7796 13.0408 23.7727 13.1984 23.7741ZM10.6321 17.8955V16.6344H11.4671V16.8542H10.8987V17.1547H11.4117V17.3746H10.8987V17.8955H10.6321ZM10.0218 17.914C9.92453 17.914 9.84078 17.8943 9.77058 17.8549C9.70079 17.8151 9.64702 17.7588 9.60925 17.6862C9.57148 17.6131 9.55259 17.5267 9.55259 17.4269C9.55259 17.3296 9.57148 17.2442 9.60925 17.1708C9.64702 17.0973 9.70018 17.04 9.76874 16.9989C9.8377 16.9579 9.91858 16.9374 10.0114 16.9374C10.0738 16.9374 10.1318 16.9474 10.1856 16.9675C10.2398 16.9872 10.287 17.017 10.3273 17.0568C10.3679 17.0967 10.3995 17.1467 10.4221 17.2071C10.4447 17.267 10.456 17.3372 10.456 17.4177V17.4897H9.81184V17.4903C9.81184 17.5371 9.82046 17.5776 9.8377 17.6117C9.85536 17.6457 9.88019 17.672 9.91221 17.6905C9.94423 17.7089 9.98221 17.7182 10.0261 17.7182C10.0553 17.7182 10.082 17.7141 10.1062 17.7059C10.1304 17.6977 10.1511 17.6853 10.1684 17.6689C10.1856 17.6525 10.1988 17.6324 10.2078 17.6086L10.4504 17.6246C10.4381 17.6829 10.4128 17.7338 10.3747 17.7773C10.3369 17.8204 10.288 17.8541 10.2281 17.8783C10.1686 17.9021 10.0998 17.914 10.0218 17.914ZM9.83832 17.2342C9.82241 17.2622 9.81367 17.2932 9.81209 17.3272H10.209C10.209 17.2894 10.2008 17.2559 10.1844 17.2268C10.168 17.1976 10.1452 17.1749 10.116 17.1584C10.0873 17.1416 10.0538 17.1332 10.0157 17.1332C9.97584 17.1332 9.94054 17.1424 9.90975 17.1609C9.87937 17.179 9.85556 17.2034 9.83832 17.2342ZM11.7513 17.853C11.821 17.8937 11.9038 17.914 11.9994 17.914C12.0951 17.914 12.1776 17.8937 12.247 17.853C12.3168 17.812 12.3705 17.7549 12.4083 17.6819C12.4461 17.6084 12.465 17.5232 12.465 17.4263C12.465 17.3286 12.4461 17.2432 12.4083 17.1701C12.3705 17.0967 12.3168 17.0396 12.247 16.9989C12.1776 16.9579 12.0951 16.9374 11.9994 16.9374C11.9038 16.9374 11.821 16.9579 11.7513 16.9989C11.6819 17.0396 11.6283 17.0967 11.5905 17.1701C11.5528 17.2432 11.5339 17.3286 11.5339 17.4263C11.5339 17.5232 11.5528 17.6084 11.5905 17.6819C11.6283 17.7549 11.6819 17.812 11.7513 17.853ZM12.1096 17.6738C12.0805 17.6985 12.0442 17.7108 12.0007 17.7108C11.9567 17.7108 11.9198 17.6985 11.8898 17.6738C11.8603 17.6488 11.8379 17.6147 11.8227 17.5716C11.8079 17.5285 11.8005 17.4795 11.8005 17.4245C11.8005 17.3694 11.8079 17.3204 11.8227 17.2773C11.8379 17.2342 11.8603 17.2001 11.8898 17.1751C11.9198 17.15 11.9567 17.1375 12.0007 17.1375C12.0442 17.1375 12.0805 17.15 12.1096 17.1751C12.1388 17.2001 12.1608 17.2342 12.1755 17.2773C12.1907 17.3204 12.1983 17.3694 12.1983 17.4245C12.1983 17.4795 12.1907 17.5285 12.1755 17.5716C12.1608 17.6147 12.1388 17.6488 12.1096 17.6738ZM13.0629 17.914C12.9672 17.914 12.8845 17.8937 12.8147 17.853C12.7453 17.812 12.6918 17.7549 12.654 17.6819C12.6162 17.6084 12.5973 17.5232 12.5973 17.4263C12.5973 17.3286 12.6162 17.2432 12.654 17.1701C12.6918 17.0967 12.7453 17.0396 12.8147 16.9989C12.8845 16.9579 12.9672 16.9374 13.0629 16.9374C13.1585 16.9374 13.241 16.9579 13.3104 16.9989C13.3802 17.0396 13.434 17.0967 13.4718 17.1701C13.5095 17.2432 13.5284 17.3286 13.5284 17.4263C13.5284 17.5232 13.5095 17.6084 13.4718 17.6819C13.434 17.7549 13.3802 17.812 13.3104 17.853C13.241 17.8937 13.1585 17.914 13.0629 17.914ZM13.0641 17.7108C13.1076 17.7108 13.144 17.6985 13.1731 17.6738C13.2023 17.6488 13.2242 17.6147 13.239 17.5716C13.2542 17.5285 13.2618 17.4795 13.2618 17.4245C13.2618 17.3694 13.2542 17.3204 13.239 17.2773C13.2242 17.2342 13.2023 17.2001 13.1731 17.1751C13.144 17.15 13.1076 17.1375 13.0641 17.1375C13.0202 17.1375 12.9832 17.15 12.9533 17.1751C12.9237 17.2001 12.9013 17.2342 12.8862 17.2773C12.8714 17.3204 12.864 17.3694 12.864 17.4245C12.864 17.4795 12.8714 17.5285 12.8862 17.5716C12.9013 17.6147 12.9237 17.6488 12.9533 17.6738C12.9832 17.6985 13.0202 17.7108 13.0641 17.7108ZM13.8523 17.8555C13.9106 17.8925 13.9757 17.9109 14.0475 17.9109C14.0984 17.9109 14.1415 17.9025 14.1768 17.8857C14.2126 17.8688 14.2415 17.8477 14.2637 17.8223C14.2862 17.7964 14.3037 17.7703 14.316 17.744H14.3271V17.8955H14.5857V16.6344H14.324V17.1086H14.316C14.3045 17.0831 14.2877 17.0572 14.2655 17.031C14.2438 17.0043 14.215 16.9821 14.1793 16.9645C14.144 16.9464 14.0999 16.9374 14.0469 16.9374C13.9775 16.9374 13.9137 16.9554 13.8554 16.9916C13.7975 17.0273 13.7511 17.0813 13.7162 17.1535C13.6813 17.2253 13.6639 17.3155 13.6639 17.4238C13.6639 17.5293 13.6807 17.6184 13.7144 17.6911C13.7485 17.7633 13.7944 17.8181 13.8523 17.8555ZM14.2378 17.6677C14.2087 17.6907 14.1729 17.7022 14.1307 17.7022C14.0875 17.7022 14.0512 17.6905 14.0217 17.6671C13.9925 17.6433 13.9701 17.6104 13.9545 17.5685C13.9394 17.5263 13.9318 17.4776 13.9318 17.4226C13.9318 17.368 13.9394 17.32 13.9545 17.2785C13.9697 17.237 13.9921 17.2046 14.0217 17.1812C14.0512 17.1578 14.0875 17.1461 14.1307 17.1461C14.1729 17.1461 14.2089 17.1574 14.2384 17.18C14.268 17.2026 14.2906 17.2346 14.3062 17.276C14.3218 17.3175 14.3296 17.3664 14.3296 17.4226C14.3296 17.4788 14.3215 17.5279 14.3055 17.5698C14.2899 17.6117 14.2674 17.6443 14.2378 17.6677Z" fill="white"></path></g></g><defs><linearGradient id="paint0_linear_747_461" x1="21.9548" y1="42.006" x2="3.57295" y2="10.5111" gradientUnits="userSpaceOnUse"><stop offset="0.0208333" stop-color="#E01112"></stop><stop offset="1" stop-color="#FF5758"></stop></linearGradient><linearGradient id="paint1_linear_747_461" x1="21.9531" y1="10.5077" x2="21.9531" y2="0.00610344" gradientUnits="userSpaceOnUse"><stop stop-color="#FF5758"></stop><stop offset="1" stop-color="#E01112"></stop></linearGradient><linearGradient id="paint2_linear_747_461" x1="21.9551" y1="42.0058" x2="40.3283" y2="10.5078" gradientUnits="userSpaceOnUse"><stop offset="0.0208333" stop-color="#E01112"></stop><stop offset="1" stop-color="#FF5758"></stop></linearGradient><linearGradient id="paint3_linear_747_461" x1="21.9531" y1="42.006" x2="21.9531" y2="10.5081" gradientUnits="userSpaceOnUse"><stop stop-color="#FF5758"></stop><stop offset="1" stop-color="#E01112"></stop></linearGradient><clipPath id="clip0_747_461"><rect width="42" height="42" fill="white" transform="translate(0.953125)"></rect></clipPath><clipPath id="clip1_747_461"><rect width="26.7044" height="15.0863" fill="white" transform="translate(7.79883 14.5459)"></rect></clipPath></defs></svg>