<svg xmlns="http://www.w3.org/2000/svg" width="42" height="42" viewBox="0 0 42 42" fill="none"><path d="M2.625 31.5017L21.0017 41.9999L2.625 10.502V31.5017Z" fill="url(#paint0_linear_740_469)"></path><path d="M21.0017 0L2.625 10.5016H39.3749L21.0017 0Z" fill="url(#paint1_linear_740_469)"></path><path d="M20.998 41.9999L39.3713 31.5017V10.502L20.998 41.9999Z" fill="url(#paint2_linear_740_469)"></path><path d="M2.625 10.502L21.0017 41.9999L39.3749 10.502H2.625Z" fill="url(#paint3_linear_740_469)"></path><g clip-path="url(#clip0_740_469)"><path d="M10.6892 14.0002C11.5769 14.0002 12.4673 14.0002 13.3577 14.0029C13.409 14.0029 13.4711 14.0489 13.5061 14.0895C13.7868 14.4221 13.9082 14.825 14.0026 15.2388C14.1186 15.7364 14.232 16.2339 14.3507 16.7288C14.4208 17.0182 14.4829 17.0641 14.7851 17.0641C17.7558 17.056 20.7266 17.0506 23.6947 17.0425C25.4404 17.0398 27.1862 17.0371 28.9319 17.0398C29.1073 17.0398 29.2881 17.0668 29.4527 17.1182C29.879 17.2507 30.0733 17.6239 29.9626 18.1215C29.79 18.8949 29.5957 19.6602 29.4068 20.4309C29.0021 22.0859 28.5946 23.7382 28.1872 25.3904C28.1683 25.4662 28.1602 25.5446 28.1332 25.6176C28.082 25.7528 27.9687 25.7717 27.8661 25.669C27.1727 24.9767 26.4765 24.2871 25.7831 23.5921C25.5753 23.3839 25.5861 23.2379 25.7993 23.0378C26.0232 22.8268 26.2445 22.6132 26.4576 22.3915C26.6303 22.213 26.6114 22.1454 26.3713 22.0778C25.6077 21.8695 24.8441 21.6721 24.0805 21.4666C23.3574 21.2719 22.6369 21.0691 21.9138 20.8771C21.8383 20.8582 21.7357 20.8717 21.671 20.9122C21.6332 20.9366 21.6278 21.0475 21.644 21.1097C21.93 22.1751 22.2214 23.2406 22.5128 24.306C22.6316 24.7387 22.7503 25.1687 22.8744 25.6014C22.9365 25.8204 23.0039 25.8366 23.1685 25.6717C23.4059 25.4364 23.6407 25.1984 23.8727 24.9605C24.0427 24.7874 24.1534 24.7793 24.3233 24.9469C24.8927 25.5121 25.462 26.08 26.0259 26.6506C26.0637 26.6885 26.0961 26.775 26.0772 26.8102C26.0529 26.8561 25.9747 26.8967 25.918 26.8967C23.1496 26.8967 20.3839 26.8967 17.6155 26.8913C17.0003 26.8913 16.3851 26.894 15.7726 26.8724C15.3976 26.8588 15.1979 26.6804 15.1008 26.3072C14.9416 25.7041 14.7959 25.0957 14.6475 24.4872C14.0134 21.9074 13.3793 19.3303 12.7452 16.7504C12.6805 16.4881 12.6265 16.2231 12.5671 15.9581C12.4943 15.6363 12.354 15.4308 11.9681 15.4227C11.6983 15.4146 11.4285 15.374 11.1641 15.3145C10.6109 15.1901 10.4059 14.7926 10.5974 14.2517C10.6271 14.1706 10.6568 14.0895 10.6892 14.0002Z" fill="white"></path><path d="M24.9513 29.7822C24.838 29.7822 24.722 29.7876 24.6087 29.7822C24.0825 29.7524 23.7911 29.4712 23.7371 28.9466C23.6832 28.43 23.9611 27.9622 24.4333 27.7756C24.9136 27.5836 25.437 27.7269 25.7608 28.1434C26.0549 28.5193 26.0549 29.0926 25.7662 29.5009C25.6313 29.6929 25.464 29.8119 25.2185 29.793C25.1294 29.7876 25.0431 29.793 24.954 29.793V29.7876L24.9513 29.7822Z" fill="white"></path><path d="M18.1644 29.8116C17.9701 29.7792 17.7704 29.7656 17.5843 29.7116C17.3171 29.6358 17.1606 29.4411 17.1013 29.168C16.961 28.5055 17.2524 27.9214 17.8244 27.7375C18.2831 27.5887 18.6771 27.7212 19.0035 28.0593C19.33 28.4 19.411 28.8029 19.2464 29.2437C19.1088 29.6142 18.7931 29.7359 18.4342 29.7792C18.3479 29.79 18.2561 29.7792 18.1698 29.7792V29.8089L18.1644 29.8116Z" fill="white"></path></g><defs><linearGradient id="paint0_linear_740_469" x1="11.8134" y1="41.9999" x2="11.8134" y2="10.502" gradientUnits="userSpaceOnUse"><stop stop-color="#1455AC"></stop><stop offset="1" stop-color="#0071DA"></stop></linearGradient><linearGradient id="paint1_linear_740_469" x1="21" y1="10.5016" x2="21" y2="-3.70415e-08" gradientUnits="userSpaceOnUse"><stop stop-color="#0071DA"></stop><stop offset="1" stop-color="#1455AC"></stop></linearGradient><linearGradient id="paint2_linear_740_469" x1="30.1847" y1="41.9999" x2="30.1847" y2="10.502" gradientUnits="userSpaceOnUse"><stop stop-color="#1455AC"></stop><stop offset="1" stop-color="#0071DA"></stop></linearGradient><linearGradient id="paint3_linear_740_469" x1="21" y1="41.9999" x2="21" y2="10.502" gradientUnits="userSpaceOnUse"><stop stop-color="#0071DA"></stop><stop offset="1" stop-color="#1455AC"></stop></linearGradient><clipPath id="clip0_740_469"><rect width="19.4704" height="15.8116" fill="white" transform="translate(10.5273 14.0002)"></rect></clipPath></defs></svg>