<svg xmlns="http://www.w3.org/2000/svg" width="42" height="43" viewBox="0 0 42 43" fill="none"><g clip-path="url(#clip0_747_489)"><path d="M2.60938 31.8241L21.0006 42.3312L2.60938 10.8064V31.8241Z" fill="url(#paint0_linear_747_489)"></path><path d="M21.0006 0.295654L2.60938 10.8062H39.3884L21.0006 0.295654Z" fill="url(#paint1_linear_747_489)"></path><path d="M21.0039 42.3312L39.3917 31.8241V10.8064L21.0039 42.3312Z" fill="url(#paint2_linear_747_489)"></path><path d="M2.60938 10.8064L21.0006 42.3312L39.3884 10.8064H2.60938Z" fill="url(#paint3_linear_747_489)"></path><g clip-path="url(#clip1_747_489)"><path d="M24.8454 13.8945H28.0098C27.9917 14.2221 27.9582 14.5496 27.958 14.8772C27.9547 20.0101 27.9539 25.1431 27.9557 30.276V31.2962H25.3066C25.3924 30.8823 25.5316 30.5142 25.535 30.1449C25.5556 27.8943 25.5334 25.6433 25.5526 23.3926C25.5584 22.7066 25.3206 22.3988 24.583 22.4075C22.1707 22.436 19.7581 22.4355 17.3453 22.4061C16.5682 22.3956 16.3165 22.7211 16.3237 23.438C16.3428 25.3593 16.315 27.281 16.337 29.2021C16.345 29.8983 16.4415 30.5935 16.5041 31.368H13.8535V13.8945H17.0179C17.0049 16.0607 16.9974 18.2269 16.9746 20.393C16.9698 20.849 17.159 21.028 17.6169 21.0258C19.834 21.0154 22.0512 21.0156 24.2684 21.0265C24.7341 21.0291 24.9035 20.8455 24.8977 20.3916C24.8701 18.2261 24.861 16.0603 24.8454 13.8945Z" fill="white"></path><path d="M23.4658 24.231C23.5131 25.6634 22.5904 26.8963 21.3565 27.0623C19.9763 27.2481 18.7371 26.3748 18.4393 24.9562C18.3891 24.7168 18.5489 24.4341 18.6116 24.1714C18.793 24.3554 19.0577 24.5085 19.1413 24.7289C19.4818 25.6268 20.1537 26.2278 20.9248 26.2397C21.6964 26.2517 22.3877 25.6986 22.7102 24.7617C22.8421 24.3785 22.9126 23.9887 23.4658 24.231Z" fill="white"></path></g></g><defs><linearGradient id="paint0_linear_747_489" x1="13.5735" y1="42.3311" x2="13.5735" y2="10.8064" gradientUnits="userSpaceOnUse"><stop stop-color="#673AB7"></stop><stop offset="1" stop-color="#884DF2"></stop></linearGradient><linearGradient id="paint1_linear_747_489" x1="24.5356" y1="10.8062" x2="24.5356" y2="0.295654" gradientUnits="userSpaceOnUse"><stop stop-color="#884DF2"></stop><stop offset="1" stop-color="#673AB7"></stop></linearGradient><linearGradient id="paint2_linear_747_489" x1="31.966" y1="42.3311" x2="31.966" y2="10.8064" gradientUnits="userSpaceOnUse"><stop stop-color="#673AB7"></stop><stop offset="1" stop-color="#884DF2"></stop></linearGradient><linearGradient id="paint3_linear_747_489" x1="24.5356" y1="42.3311" x2="24.5356" y2="10.8064" gradientUnits="userSpaceOnUse"><stop stop-color="#884DF2"></stop><stop offset="1" stop-color="#673AB7"></stop></linearGradient><clipPath id="clip0_747_489"><rect width="42" height="42" fill="white" transform="translate(0 0.310547)"></rect></clipPath><clipPath id="clip1_747_489"><rect width="14.2314" height="17.5289" fill="white" transform="translate(13.7812 13.8098)"></rect></clipPath></defs></svg>