<?xml version="1.0" encoding="UTF-8"?>
<svg xmlns="http://www.w3.org/2000/svg" xmlns:xlink="http://www.w3.org/1999/xlink" viewBox="0 0 445.6 371.73">
  <defs>
    <linearGradient id="linear-gradient-2" x1="-1939.63" y1="-1580.89" x2="-1939.59" y2="-1580.86" gradientTransform="matrix(519.69 0 0 -606.04 1008038.4 -957892.76)" gradientUnits="userSpaceOnUse">
      <stop offset=".14" stop-color="#5c8246"></stop>
      <stop offset=".4" stop-color="#709b4c"></stop>
      <stop offset=".71" stop-color="#80b352"></stop>
      <stop offset=".91" stop-color="#86bb54"></stop>
    </linearGradient>
    <linearGradient id="linear-gradient-7" x1="-1938.19" y1="-1586.14" x2="-1938.24" y2="-1586.31" gradientTransform="matrix(268.59 0 0 -167.59 520626.6 -265638.1)" xlink:href="#linear-gradient"></linearGradient>
    <linearGradient id="linear-gradient" x1="-1939.67" y1="-1580.87" x2="-1939.69" y2="-1580.9" gradientTransform="matrix(532.1 0 0 -606.29 1032146.05 -958285.81)" gradientUnits="userSpaceOnUse">
      <stop offset="0" stop-color="#5c8246"></stop>
      <stop offset=".33" stop-color="#5e8644"></stop>
      <stop offset=".64" stop-color="#639141"></stop>
      <stop offset=".93" stop-color="#6ba33c"></stop>
      <stop offset="1" stop-color="#6ea83b"></stop>
    </linearGradient>
    <linearGradient id="linear-gradient-6" x1="-1938.29" y1="-1586.25" x2="-1938.2" y2="-1586.25" gradientTransform="matrix(268.59 0 0 -167.59 520626.6 -265638.1)" xlink:href="#linear-gradient-3"></linearGradient>
    <linearGradient id="linear-gradient-5" x1="-1476.62" y1="-1931.08" x2="-1472.7" y2="-1931.08" gradientTransform="matrix(1.69 0 0 -3.95 2544.48 -7436.31)" xlink:href="#linear-gradient-3"></linearGradient>
    <linearGradient id="linear-gradient-3" x1="-1704.01" y1="-2687.16" x2="-1700.1" y2="-2687.16" gradientTransform="matrix(4.51 0 0 -1.69 7716.52 -4381.87)" gradientUnits="userSpaceOnUse">
      <stop offset=".09" stop-color="#86bb54"></stop>
      <stop offset=".29" stop-color="#80b352"></stop>
      <stop offset=".6" stop-color="#709b4c"></stop>
      <stop offset=".86" stop-color="#5c8246"></stop>
    </linearGradient>
    <linearGradient id="linear-gradient-4" x1="-1939.66" y1="-1580.88" x2="-1939.62" y2="-1580.88" gradientTransform="matrix(519.13 0 0 -606.53 1006957.02 -958664.33)" xlink:href="#linear-gradient-3"></linearGradient>
    <clipPath id="clip-path" transform="translate(-.4 -1.67)">
      <path class="cls-2" d="M0 0h448v374H0z"></path>
    </clipPath>
    <clipPath id="clip-path-3" transform="translate(-.4 -1.67)">
      <path class="cls-2" d="M.51-1.31h103.71v58.34H.51z"></path>
    </clipPath>
    <clipPath id="clip-path-2" transform="translate(-.4 -1.67)">
      <path class="cls-2" d="M2.58 27.85C2.58 42.32 24.87 54 52.36 54s49.78-11.72 49.78-26.19S79.86 1.67 52.36 1.67 2.58 13.39 2.58 27.85"></path>
    </clipPath>
    <clipPath id="clip-path-5" transform="translate(-.4 -1.67)">
      <path class="cls-2" d="M236.39 242.98h71.65v71.65h-71.65z"></path>
    </clipPath>
    <mask id="mask-2" x="27.37" y="168.78" width="21.84" height="26.56" maskUnits="userSpaceOnUse">
      <g transform="translate(-.4 -1.67)">
        <g id="c-2" data-name="c">
          <path id="a-2" data-name="a" class="cls-1" d="M39.13 172.46a1.2 1.2 0 0 0-1.16 0L28.43 178a1.13 1.13 0 0 0-.57 1v11a1.18 1.18 0 0 0 .57 1l9.57 5.52a1.15 1.15 0 0 0 1.16 0l9.52-5.52a1.13 1.13 0 0 0 .56-1v-11a1.18 1.18 0 0 0-.56-1z"></path>
        </g>
      </g>
    </mask>
    <mask id="mask" x="27.37" y="170.64" width="21.54" height="24.4" maskUnits="userSpaceOnUse">
      <g transform="translate(-.4 -1.67)">
        <g id="c">
          <path id="a" class="cls-1" d="M39.13 172.46a1.2 1.2 0 0 0-1.16 0L28.43 178a1.13 1.13 0 0 0-.57 1v11a1.18 1.18 0 0 0 .57 1l9.57 5.52a1.15 1.15 0 0 0 1.16 0l9.52-5.52a1.13 1.13 0 0 0 .56-1v-11a1.18 1.18 0 0 0-.56-1z"></path>
        </g>
      </g>
    </mask>
    <radialGradient id="radial-gradient" cx="-1938.29" cy="-1582.13" r=".14" gradientTransform="matrix(453.82 0 0 -453.82 879678.94 -718000.65)" gradientUnits="userSpaceOnUse">
      <stop offset="0" stop-color="#acaed1"></stop>
      <stop offset=".3" stop-color="#acaed1"></stop>
      <stop offset=".75" stop-color="#4b4d84"></stop>
      <stop offset="1" stop-color="#4b4d84"></stop>
    </radialGradient>
    <style>.cls-1{fill:#fff}.cls-2,.cls-44{fill:none}.cls-6{clip-path:url(#clip-path-3)}.cls-8{fill:#d73126}.cls-11{fill:#d0632c}.cls-12{fill:#4e4e4e}.cls-13{fill:#6f994b}.cls-25{fill-rule:evenodd;fill:#a80000}.cls-26{fill:#b23f46}.cls-28{fill:#5796d6}.cls-34{fill:#e8e8e8}.cls-37{clip-path:url(#clip-path-5)}.cls-41{fill:#272425}.cls-42{fill:#373a3e}.cls-44{stroke:#79d6fc;stroke-miterlimit:10;stroke-width:1.66px}.cls-49{fill:#cacaca}.cls-50{fill:#8d1915}.cls-51{fill:#b0b0b0}</style>
  </defs>
  <g id="Layer_2" data-name="Layer 2">
    <g style="clip-path:url(#clip-path)" id="BACKGROUND">
      <g id="g3438">
        <g style="clip-path:url(#clip-path-2)" id="g3440">
          <g id="g3442">
            <g id="g3448">
              <g id="g3450">
                <path id="path3462" d="M2.58 27.85C2.58 42.32 24.87 54 52.36 54s49.78-11.72 49.78-26.19S79.86 1.67 52.36 1.67 2.58 13.39 2.58 27.85" transform="translate(-.4 -1.67)" style="fill:url(#radial-gradient)"></path>
              </g>
            </g>
          </g>
        </g>
        <g class="cls-6" id="g3464">
          <g id="g3466">
            <g id="g3472">
              <path id="path3474" d="M52.36 52.1c26.42 0 47.84-10.86 47.84-24.25S78.78 3.61 52.36 3.61 4.53 14.47 4.53 27.85 25.94 52.1 52.36 52.1" transform="translate(-.4 -1.67)" style="fill:#777aae"></path>
            </g>
          </g>
        </g>
        <g class="cls-6" id="g3476">
          <g id="g3478">
            <g id="g3484">
              <path id="path3486" d="M29.63 30.86a8 8 0 0 0 4.82-1.19 6.48 6.48 0 0 0 2.08-4c.34-1.76.21-3-.39-3.66s-1.94-1-3.94-1h-3.47l-1.92 9.9zm-11.36 12.2a.55.55 0 0 1-.53-.64l5.1-26.25a.55.55 0 0 1 .53-.43h11c3.45 0 6 .93 7.64 2.78s2.13 4.48 1.49 7.73A11.88 11.88 0 0 1 39.75 33a10.58 10.58 0 0 1-4 2.4 18.1 18.1 0 0 1-5.5.71h-4.46l-1.27 6.54a.55.55 0 0 1-.53.44z" transform="translate(-.4 -1.67)"></path>
            </g>
            <g id="g3488">
              <path id="path3490" class="cls-1" d="M29.18 21.5h3c2.42 0 3.26.53 3.54.84.48.53.57 1.63.26 3.2a5.91 5.91 0 0 1-1.88 3.7 7.41 7.41 0 0 1-4.49 1.08h-2.15zm5.19-6.31h-11a1.09 1.09 0 0 0-1.06.88l-5.1 26.24a1.08 1.08 0 0 0 .23.9 1.1 1.1 0 0 0 .83.39H24a1.09 1.09 0 0 0 1.06-.88l1.19-6.1h4a18.91 18.91 0 0 0 5.67-.73 11.3 11.3 0 0 0 4.21-2.52 12.51 12.51 0 0 0 3.91-7c.67-3.44.13-6.19-1.61-8.18s-4.44-3-8.05-3M26.15 31.4h3.48a8.4 8.4 0 0 0 5.15-1.3 6.89 6.89 0 0 0 2.28-4.35c.38-1.95.21-3.33-.51-4.13s-2.18-1.2-4.35-1.2h-3.91l-2.14 11m8.22-15.12c3.3 0 5.72.86 7.23 2.6s2 4.16 1.37 7.27a11.83 11.83 0 0 1-1.26 3.51 11.48 11.48 0 0 1-2.33 2.92 10 10 0 0 1-3.8 2.28 17.74 17.74 0 0 1-5.34.68h-4.89l-1.36 7h-5.72l5.1-26.24h11" transform="translate(-.4 -1.67)"></path>
            </g>
            <g id="g3492">
              <path id="path3494" d="M56.61 36.08a.54.54 0 0 1-.53-.64l2.25-11.61c.22-1.11.17-1.9-.14-2.24s-.77-.54-2.45-.54h-4.09l-2.84 14.59a.54.54 0 0 1-.53.44h-5.67a.55.55 0 0 1-.42-.2.53.53 0 0 1-.11-.44l5.1-26.24a.54.54 0 0 1 .53-.44h5.67a.55.55 0 0 1 .42.24.56.56 0 0 1 .11.45l-1.23 6.34h4.4c3.35 0 5.62.59 6.94 1.8s1.77 3.22 1.25 5.89L62.9 35.64a.54.54 0 0 1-.53.44z" transform="translate(-.4 -1.67)"></path>
            </g>
            <g id="g3496">
              <path id="path3498" class="cls-1" d="M53.38 8.22h-5.67a1.07 1.07 0 0 0-1.06.87l-5.1 26.24a1.08 1.08 0 0 0 .23.9 1.06 1.06 0 0 0 .83.39h5.67a1.08 1.08 0 0 0 1.06-.87l2.75-14.16h3.65c1.68 0 2 .36 2 .37s.24.62 0 1.76l-2.19 11.62a1.08 1.08 0 0 0 1.06 1.28h5.76a1.08 1.08 0 0 0 1.06-.87l2.37-12.22c.56-2.86.08-5-1.41-6.39s-3.82-2-7.31-2h-3.74l1.1-5.69a1.07 1.07 0 0 0-1.06-1.28m0 1.08-1.35 7h5q4.77 0 6.58 1.66c1.2 1.11 1.57 2.9 1.08 5.39l-2.32 12.24h-5.76l2.26-11.61c.25-1.32.16-2.22-.29-2.7s-1.39-.72-2.84-.72H51.2l-2.92 15h-5.67l5.1-26.21h5.67" transform="translate(-.4 -1.67)"></path>
            </g>
            <g id="g3500">
              <path id="path3502" d="M74.25 30.86a8 8 0 0 0 4.82-1.19 6.44 6.44 0 0 0 2.08-4c.35-1.76.22-3-.39-3.66s-1.93-1-3.94-1h-3.47l-1.92 9.9zm-11.36 12.2a.55.55 0 0 1-.53-.64l5.1-26.25a.55.55 0 0 1 .54-.43h11c3.45 0 6 .93 7.64 2.78s2.13 4.46 1.49 7.73A11.88 11.88 0 0 1 84.37 33a10.51 10.51 0 0 1-4 2.4 18.1 18.1 0 0 1-5.5.71h-4.46l-1.27 6.54a.55.55 0 0 1-.53.44z" transform="translate(-.4 -1.67)"></path>
            </g>
            <g id="g3504">
              <path id="path3506" class="cls-1" d="M73.8 21.5h3c2.42 0 3.26.53 3.54.84.48.53.57 1.63.26 3.2a5.91 5.91 0 0 1-1.88 3.7 7.41 7.41 0 0 1-4.49 1.08h-2.15zm5.2-6.31H68a1.09 1.09 0 0 0-1.06.88l-5.1 26.24a1.08 1.08 0 0 0 1.06 1.29h5.72a1.08 1.08 0 0 0 1.06-.88l1.19-6.1h4a18.87 18.87 0 0 0 5.67-.73 11.3 11.3 0 0 0 4.21-2.52 12.51 12.51 0 0 0 3.91-7c.67-3.44.13-6.19-1.61-8.18s-4.43-3-8.05-3M70.77 31.4h3.48a8.4 8.4 0 0 0 5.15-1.3 6.89 6.89 0 0 0 2.28-4.35c.38-1.95.21-3.33-.51-4.13s-2.18-1.2-4.35-1.2h-3.91l-2.14 11M79 16.28c3.31 0 5.72.86 7.23 2.6s2 4.16 1.37 7.27a11.83 11.83 0 0 1-1.26 3.51A11.48 11.48 0 0 1 84 32.58a10 10 0 0 1-3.8 2.28 17.7 17.7 0 0 1-5.34.68H70l-1.36 7h-5.75L68 16.28h11" transform="translate(-.4 -1.67)"></path>
            </g>
          </g>
        </g>
      </g>
      <path class="cls-8" d="M167.34 14.43a.47.47 0 0 1 0 .17v9a.64.64 0 0 1-.34.56l-7.68 4.33V37a.64.64 0 0 1-.33.56l-16 9h-.11a.65.65 0 0 1-.34 0h-.16l-16-9A.65.65 0 0 1 126 37V10.16a1.1 1.1 0 0 1 0-.18.08.08 0 0 0 0-.05v-.16l.06-.08h.07s0-.05.07-.06l8-4.52a.67.67 0 0 1 .67 0l8 4.52a.18.18 0 0 0 .07.05h.06l.06.08.05.06a.3.3 0 0 1 0 .1v.05a1.1 1.1 0 0 1 0 .18v16.79l6.89-3.76V14.6a.47.47 0 0 1 0-.17v-.22l.06-.07a.18.18 0 0 1 .07-.05l.07-.06 8-4.52a.72.72 0 0 1 .67 0L167 14l.08.06h.06l.06.08.05.06a.42.42 0 0 1 0 .1.14.14 0 0 1 0 .06zM166 23.18v-7.45l-2.8 1.58-3.88 2.18v7.45l6.68-3.76zm-8 13.48V29.2l-3.81 2.13-10.88 6.09v7.52zm-30.7-25.37v25.37l14.7 8.28v-7.52l-7.67-4.26h-.13l-.06-.07-.05-.07V32.87a.28.28 0 0 1 0-.09V15.05l-3.87-2.18-2.81-1.58zm7.35-4.9L128 10.16l6.68 3.76 6.67-3.77-6.67-3.76zm3.47 23.49L142 27.7V11.29l-2.8 1.58-3.87 2.18v16.41zm20.57-19L152 14.6l6.68 3.76 6.67-3.76zm-.69 8.61-3.88-2.18-2.8-1.58v7.45l3.87 2.18 2.81 1.58zm-15.34 16.79 9.79-5.47 4.89-2.74-6.67-3.76-7.67 4.33-7 4zM173.91 12.79v20h7.37v3.43H170V12.79zm21.2 9.92v-2.1h3.73v15.57h-3.71v-2.11a5 5 0 0 1-2.13 1.82 6.14 6.14 0 0 1-2.78.67 8.08 8.08 0 0 1-3.31-.65 7.6 7.6 0 0 1-2.58-1.78 8.2 8.2 0 0 1-1.68-2.59 8.35 8.35 0 0 1-.59-3.15 8.37 8.37 0 0 1 2.28-5.75 7.71 7.71 0 0 1 2.56-1.8 8.35 8.35 0 0 1 3.31-.65 6.34 6.34 0 0 1 2.77.67 5 5 0 0 1 2.12 1.83zm-.33 7.59a5.37 5.37 0 0 0 .35-1.9 5.31 5.31 0 0 0-.35-1.91 4.93 4.93 0 0 0-1-1.58 4.58 4.58 0 0 0-3.41-1.46 4.42 4.42 0 0 0-1.91.41 4.61 4.61 0 0 0-1.46 1.05 4.55 4.55 0 0 0-.94 1.58 5.64 5.64 0 0 0-.33 1.91 5.54 5.54 0 0 0 .33 1.9 4.4 4.4 0 0 0 .94 1.56 4.7 4.7 0 0 0 1.46 1.08 4.56 4.56 0 0 0 1.91.4 4.5 4.5 0 0 0 1.93-.4 4.64 4.64 0 0 0 1.48-1.07 5 5 0 0 0 1-1.56zm7 5.88V20.61h10.09v3.58h-6.38v12h-3.71zm23.56-13.47v-2.1H229v15.57h-3.71v-2.11a4.93 4.93 0 0 1-2.12 1.82 6.15 6.15 0 0 1-2.79.67 8.11 8.11 0 0 1-3.31-.65 7.6 7.6 0 0 1-2.58-1.78 8.39 8.39 0 0 1 0-11.49 7.82 7.82 0 0 1 2.56-1.8 8.39 8.39 0 0 1 3.31-.65 6.41 6.41 0 0 1 2.78.67 5 5 0 0 1 2.12 1.83zM225 30.3a5.39 5.39 0 0 0 .33-1.9 5.52 5.52 0 0 0-.33-1.91 4.73 4.73 0 0 0-.95-1.58 4.55 4.55 0 0 0-1.5-1.06 4.61 4.61 0 0 0-1.92-.4 4.42 4.42 0 0 0-1.91.41 4.44 4.44 0 0 0-2.41 2.63 5.62 5.62 0 0 0-.31 1.91 5.78 5.78 0 0 0 .31 1.9 4.55 4.55 0 0 0 .94 1.56 4.63 4.63 0 0 0 1.47 1.08 4.56 4.56 0 0 0 1.91.4 4.5 4.5 0 0 0 1.93-.4 4.73 4.73 0 0 0 1.5-1.07 5.11 5.11 0 0 0 .95-1.56zm19-9.69h3.77l-6.1 15.57H237l-6.1-15.57h3.76l4.68 11.92L244 20.62zm11.87-.4c5.06 0 8.51 4.4 7.86 9.54h-12.38a4.44 4.44 0 0 0 4.65 3.92 6.69 6.69 0 0 0 4.73-2.42l2.51 1.9c-2.26 2.34-4.09 3.42-7 3.42-5.14 0-8.62-3.2-8.62-8.19a8.13 8.13 0 0 1 8.15-8.19zm-4.46 6.84h8.92a4.38 4.38 0 0 0-4.49-3.95 4.29 4.29 0 0 0-4.47 3.95zm14.75 9.11V12.79h3.71v23.38h-3.71z" transform="translate(-.4 -1.67)"></path>
      <path d="M343.69 343.53a.34.34 0 0 0-.31-.29l-2.71-.05-2.37-2.31a.9.9 0 0 0-.8-.1l-1.08.34a7.33 7.33 0 0 0-.52-1.28 3.66 3.66 0 0 0-3.25-2.24h-.28l-.12-.15a2.84 2.84 0 0 0-2.26-.91c-1.76.05-3.5 1.32-4.92 3.57a13.94 13.94 0 0 0-2 5.11l-3.46 1.07c-1 .32-1.05.36-1.18 1.31-.1.73-2.76 21.31-2.76 21.31l22.33 3.88 9.66-2.4s-3.94-26.67-3.97-26.86zm-8.39-2.07-1.73.54a9.64 9.64 0 0 0-.53-3.2c1.33.26 1.96 1.76 2.26 2.66zm-2.89.9-3.73 1.15a8.8 8.8 0 0 1 1.88-3.65 3.75 3.75 0 0 1 1.27-.92 8.5 8.5 0 0 1 .58 3.42zm-2.4-4.63a1.82 1.82 0 0 1 1.06.27 5.24 5.24 0 0 0-1.36 1.06 10.21 10.21 0 0 0-2.31 4.85l-3.06.95c.6-2.86 2.96-7.05 5.66-7.13z" transform="translate(-.4 -1.67)" style="fill:#9cb952"></path>
      <path d="m343.38 343.24-2.71-.05-2.37-2.31a.56.56 0 0 0-.3-.14v32.05l9.66-2.4s-3.94-26.67-4-26.85a.36.36 0 0 0-.28-.3z" transform="translate(-.4 -1.67)" style="fill:#6e8845"></path>
      <path class="cls-1" d="m332.64 348.21-1.13 4.2a6.38 6.38 0 0 0-2.73-.48c-2.18.14-2.2 1.52-2.18 1.86.12 1.88 5.06 2.29 5.34 6.69.22 3.46-1.84 5.83-4.8 6a7.22 7.22 0 0 1-5.51-1.87l.75-3.21s2 1.49 3.55 1.39a1.39 1.39 0 0 0 1.36-1.5c-.15-2.45-4.18-2.3-4.43-6.33-.22-3.39 2-6.82 6.92-7.13a6.08 6.08 0 0 1 2.86.38z" transform="translate(-.4 -1.67)"></path>
      <path d="M360.4 357c-1.12-.61-1.69-1.11-1.69-1.81 0-.89.8-1.46 2-1.46a7.3 7.3 0 0 1 2.73.6l1-3.11s-.93-.73-3.68-.73c-3.83 0-6.48 2.19-6.48 5.27 0 1.74 1.24 3.08 2.89 4 1.33.76 1.81 1.3 1.81 2.1s-.67 1.49-1.9 1.49a8.56 8.56 0 0 1-3.59-.95l-1.08 3.11a8.27 8.27 0 0 0 4.32 1.08c3.93 0 6.76-1.94 6.76-5.43.05-1.83-1.38-3.16-3.09-4.16zM376.09 350.46a6 6 0 0 0-4.64 2.32h-.07l1.69-8.8h-4.39l-4.25 22.39h4.38l1.46-7.65c.57-2.89 2.07-4.67 3.46-4.67 1 0 1.37.67 1.37 1.62a9.74 9.74 0 0 1-.19 1.94l-1.65 8.76h4.38l1.72-9a16.34 16.34 0 0 0 .32-2.86c-.01-2.51-1.31-4.05-3.59-4.05zM389.58 350.46c-5.27 0-8.76 4.77-8.76 10.07 0 3.4 2.09 6.13 6 6.13 5.18 0 8.67-4.64 8.67-10.07.03-3.14-1.81-6.13-5.91-6.13zm-2.16 12.84c-1.49 0-2.13-1.27-2.13-2.86 0-2.51 1.31-6.61 3.69-6.61 1.55 0 2.06 1.34 2.06 2.64-.04 2.7-1.3 6.83-3.62 6.83zM406.73 350.46a6 6 0 0 0-4.64 2.61H402l.26-2.35h-3.88c-.19 1.59-.54 4-.89 5.81l-3 16h4.39l1.2-6.48h.1a5.11 5.11 0 0 0 2.57.57c5.15 0 8.51-5.27 8.51-10.61-.02-2.91-1.32-5.55-4.53-5.55zm-4.19 12.9a2.76 2.76 0 0 1-1.81-.64l.73-4.09c.51-2.73 1.94-4.55 3.46-4.55 1.34 0 1.75 1.24 1.75 2.42 0 2.83-1.67 6.86-4.13 6.86zM417.5 344.18a2.5 2.5 0 0 0-2.51 2.54 2 2 0 0 0 2.06 2.19h.07a2.47 2.47 0 0 0 2.57-2.54 2.08 2.08 0 0 0-2.19-2.19zM411.37 366.34h4.38l3-15.53h-4.42zM429.88 350.78h-3l.15-.73c.26-1.49 1.15-2.82 2.61-2.82a4.53 4.53 0 0 1 1.39.22l.86-3.43a5.78 5.78 0 0 0-2.38-.38 6.5 6.5 0 0 0-4.29 1.46 8.33 8.33 0 0 0-2.54 4.95l-.12.73h-2l-.63 3.31h2l-2.32 12.25H424l2.31-12.25h3zM440.43 350.81s-2.74 6.91-4 10.67h-.07c-.08-1.21-1.08-10.67-1.08-10.67h-4.6l2.64 14.26a.93.93 0 0 1-.1.73 7.55 7.55 0 0 1-2.38 2.64 9.89 9.89 0 0 1-2.48 1.24l1.21 3.71a10 10 0 0 0 4.28-2.38c2-1.87 3.85-4.76 5.75-8.7l5.37-11.5z" transform="translate(-.4 -1.67)"></path>
      <g id="Logo-2">
        <path class="cls-11" d="m177.27 336.39-15.49 8.47v16.9l4.42 2.43-.03-16.92 11.07-6.05 11.07 6.05v16.91l4.42-2.42v-16.92l-15.46-8.45z"></path>
        <path class="cls-11" d="m179.46 364.18-2.21 1.22-2.22-1.21v-16.92l-4.41 2.42v16.91l6.63 3.63 6.64-3.63v-16.91l-4.43-2.42v16.91z"></path>
        <path class="cls-12" d="m203.26 346.63 6.08 14.54 5.93-14.54h2.32v16.66H216v-14.52l-.27.79c-.09.22-.18.46-.29.72s-.2.51-.28.75l-5.1 12.26h-1.46L203.45 351c-.1-.22-.19-.45-.29-.71s-.19-.5-.28-.73-.19-.56-.29-.82h-.05v14.52H201v-16.63zM222.29 363.36a3.7 3.7 0 0 1-1.31-.63 2.87 2.87 0 0 1-.88-1.05 3.18 3.18 0 0 1-.32-1.46 3.26 3.26 0 0 1 .42-1.75 3 3 0 0 1 1.13-1.08 6 6 0 0 1 1.66-.62 20 20 0 0 1 2-.33c.63-.06 1.16-.12 1.59-.2a5.65 5.65 0 0 0 1.06-.26 1.26 1.26 0 0 0 .59-.44 1.29 1.29 0 0 0 .18-.73v-.24a2.11 2.11 0 0 0-.79-1.82 3.66 3.66 0 0 0-2.26-.6q-3.4 0-3.57 2.68h-1.5a3.83 3.83 0 0 1 1.36-2.79 6.89 6.89 0 0 1 7-.18 3.31 3.31 0 0 1 1.2 2.86v6.55a1.21 1.21 0 0 0 .21.78.88.88 0 0 0 .63.27 1.15 1.15 0 0 0 .26 0 2.6 2.6 0 0 0 .31-.07h.07v1a1.87 1.87 0 0 1-.42.13 2.11 2.11 0 0 1-.61.06 2 2 0 0 1-1.33-.41 1.66 1.66 0 0 1-.55-1.29v-.26h-.06a6.49 6.49 0 0 1-.66.73 4.1 4.1 0 0 1-.92.67 5.07 5.07 0 0 1-1.26.49 6.11 6.11 0 0 1-1.62.19 6.49 6.49 0 0 1-1.65-.21m3.75-1.28a4.17 4.17 0 0 0 1.35-.8 3.21 3.21 0 0 0 1.08-2.35v-2.17a5.91 5.91 0 0 1-1.49.5c-.58.12-1.19.21-1.81.29l-1.5.24a3.94 3.94 0 0 0-1.2.41 2.09 2.09 0 0 0-.8.76 2.31 2.31 0 0 0-.3 1.25 2.09 2.09 0 0 0 .24 1 1.81 1.81 0 0 0 .62.67 2.59 2.59 0 0 0 .89.37 5.67 5.67 0 0 0 1.09.1 4.94 4.94 0 0 0 1.83-.32M234 366.62a3.2 3.2 0 0 1-1.46-2.25H234a2 2 0 0 0 1.19 1.5 5.77 5.77 0 0 0 2.38.46 4.28 4.28 0 0 0 3-.92 3.33 3.33 0 0 0 1-2.54V361h-.07a5.06 5.06 0 0 1-1.65 1.56 4.78 4.78 0 0 1-2.39.54 5.67 5.67 0 0 1-2.27-.44 5 5 0 0 1-1.72-1.24 5.49 5.49 0 0 1-1.1-1.9 7.55 7.55 0 0 1-.38-2.43 7 7 0 0 1 .44-2.6 5.67 5.67 0 0 1 1.18-1.9 4.92 4.92 0 0 1 1.74-1.16 5.56 5.56 0 0 1 2.1-.4 4.71 4.71 0 0 1 2.44.57 4.93 4.93 0 0 1 1.6 1.55h.07v-1.87h1.51v11.59a4.5 4.5 0 0 1-1.18 3.24 5.81 5.81 0 0 1-4.26 1.44 6.27 6.27 0 0 1-3.64-.9m6.67-6.09a5.61 5.61 0 0 0 1-3.5 7.52 7.52 0 0 0-.24-2 4.12 4.12 0 0 0-.77-1.52 3.31 3.31 0 0 0-1.29-1 4.27 4.27 0 0 0-1.81-.35 3.55 3.55 0 0 0-2.95 1.32 5.63 5.63 0 0 0-1 3.55 7.1 7.1 0 0 0 .24 1.89 4.49 4.49 0 0 0 .74 1.52 3.44 3.44 0 0 0 1.23 1 4 4 0 0 0 1.75.36 3.68 3.68 0 0 0 3.13-1.33M248.37 363.12a5.2 5.2 0 0 1-1.86-1.33 5.8 5.8 0 0 1-1.14-2 7.59 7.59 0 0 1-.4-2.51 7.31 7.31 0 0 1 .42-2.51 6.31 6.31 0 0 1 1.17-2 5.17 5.17 0 0 1 1.82-1.33 5.78 5.78 0 0 1 2.4-.48 5.55 5.55 0 0 1 2.57.55 4.74 4.74 0 0 1 1.7 1.47 5.92 5.92 0 0 1 .92 2.11 10 10 0 0 1 .27 2.44h-9.7a6.74 6.74 0 0 0 .31 1.9 4.8 4.8 0 0 0 .81 1.53 3.72 3.72 0 0 0 1.35 1 4.46 4.46 0 0 0 1.89.37 3.74 3.74 0 0 0 2.48-.73 4 4 0 0 0 1.24-2h1.48a5 5 0 0 1-1.73 2.86 5.25 5.25 0 0 1-3.47 1.07 6.31 6.31 0 0 1-2.53-.47m6-8.39a4.1 4.1 0 0 0-.71-1.36 3.16 3.16 0 0 0-1.18-.89 4.57 4.57 0 0 0-3.41 0 3.56 3.56 0 0 0-1.27.89 4.4 4.4 0 0 0-.83 1.35 6.08 6.08 0 0 0-.4 1.67h8.07a5.88 5.88 0 0 0-.27-1.66M259.67 351.24v1.84h.05a5.05 5.05 0 0 1 1.68-1.5 5.13 5.13 0 0 1 2.6-.58 4.41 4.41 0 0 1 2.92 1 3.47 3.47 0 0 1 1.14 2.79v8.56h-1.53v-8.42a2.46 2.46 0 0 0-.77-2 3.24 3.24 0 0 0-2.13-.64 4.64 4.64 0 0 0-1.53.26 4 4 0 0 0-1.26.71 3.29 3.29 0 0 0-.85 1.08 3.13 3.13 0 0 0-.31 1.38v7.65h-1.52v-12.13zM272 362.89a2 2 0 0 1-.66-1.67v-8.79h-1.93v-1.19h1.93v-3.7h1.52v3.7h2.37v1.19h-2.37V361a1.06 1.06 0 0 0 .31.89 1.42 1.42 0 0 0 .92.25 2.67 2.67 0 0 0 .56-.06 2.54 2.54 0 0 0 .45-.13h.08v1.23a4.23 4.23 0 0 1-1.41.21 2.82 2.82 0 0 1-1.77-.5M279.72 363.12a5.25 5.25 0 0 1-1.85-1.33 6.15 6.15 0 0 1-1.18-2 8.08 8.08 0 0 1 0-5 6.15 6.15 0 0 1 1.18-2 5.25 5.25 0 0 1 1.85-1.33 6.13 6.13 0 0 1 2.48-.48 6 6 0 0 1 2.46.48 5.34 5.34 0 0 1 1.85 1.33 5.58 5.58 0 0 1 1.15 2 7.86 7.86 0 0 1 .4 2.51 7.55 7.55 0 0 1-.4 2.51 5.75 5.75 0 0 1-1.15 2 5.47 5.47 0 0 1-1.85 1.33 6 6 0 0 1-2.46.47 6.13 6.13 0 0 1-2.48-.47m4.35-1.13a3.85 3.85 0 0 0 1.36-1.1 4.79 4.79 0 0 0 .81-1.63 7.39 7.39 0 0 0 0-4 4.79 4.79 0 0 0-.81-1.63 3.85 3.85 0 0 0-1.36-1.1 4.12 4.12 0 0 0-1.87-.39 4.36 4.36 0 0 0-1.88.39 3.85 3.85 0 0 0-1.36 1.1 4.64 4.64 0 0 0-.82 1.63 7.4 7.4 0 0 0 0 4 4.64 4.64 0 0 0 .82 1.63 4 4 0 0 0 1.36 1.1 4.24 4.24 0 0 0 1.88.39 4.13 4.13 0 0 0 1.87-.39M290 353.24a1.49 1.49 0 0 1-1.6-1.54 1.6 1.6 0 1 1 1.6 1.54m0-2.92a1.37 1.37 0 0 0 0 2.74 1.37 1.37 0 1 0 0-2.74m.47 2.2-.54-.73h-.18v.71h-.31v-1.72h.56c.38 0 .63.18.63.5a.46.46 0 0 1-.36.47l.52.7zm-.47-1.47h-.25v.51h.25c.2 0 .33-.09.33-.26s-.11-.25-.31-.25" transform="translate(-.4 -1.67)"></path>
      </g>
      <path class="cls-13" d="M51.13 219.7a2 2 0 0 1-1-.25l-3-1.79c-.46-.25-.23-.34-.09-.39a5.55 5.55 0 0 0 1.36-.61.22.22 0 0 1 .22 0l2.38 1.41a.32.32 0 0 0 .27 0l9-5.24a.27.27 0 0 0 .13-.25v-10.46a.27.27 0 0 0-.13-.25l-9-5.21a.26.26 0 0 0-.27 0l-9 5.21a.3.3 0 0 0-.14.25v10.46a.3.3 0 0 0 .14.25l2.47 1.43c1.34.68 2.18-.12 2.18-.91V203a.28.28 0 0 1 .27-.27H48a.28.28 0 0 1 .27.27v10.32a2.52 2.52 0 0 1-2.68 2.83 3.9 3.9 0 0 1-2.08-.56l-2.38-1.36a1.93 1.93 0 0 1-1-1.66v-10.42a1.93 1.93 0 0 1 1-1.66l9-5.24a2.08 2.08 0 0 1 1.91 0l9.05 5.24a1.92 1.92 0 0 1 .95 1.66v10.45a1.92 1.92 0 0 1-.95 1.66l-9.05 5.24a2.45 2.45 0 0 1-.95.2zm2.79-7.19c-4 0-4.79-1.81-4.79-3.36a.28.28 0 0 1 .27-.27h1.18a.23.23 0 0 1 .25.23c.18 1.2.7 1.79 3.11 1.79 1.9 0 2.72-.43 2.72-1.45 0-.59-.23-1-3.2-1.32-2.47-.25-4-.79-4-2.76s1.54-2.93 4.13-2.93c2.9 0 4.33 1 4.51 3.18a.35.35 0 0 1-.07.2.26.26 0 0 1-.18.09h-1.19a.27.27 0 0 1-.25-.2c-.27-1.25-1-1.66-2.83-1.66-2.09 0-2.34.73-2.34 1.27s.29.86 3.11 1.23 4.1.88 4.1 2.83-1.65 3.13-4.53 3.13z" transform="translate(-.4 -1.67)"></path>
      <path d="M23.05 178.81a1.17 1.17 0 0 0-.59-1l-9.61-5.53a1.36 1.36 0 0 0-.53-.16h-.09a1.09 1.09 0 0 0-.52.16l-9.61 5.53a1.15 1.15 0 0 0-.59 1v14.88a.57.57 0 0 0 .29.5.53.53 0 0 0 .57 0l5.72-3.27a1.16 1.16 0 0 0 .59-1v-7a1.15 1.15 0 0 1 .59-1l2.42-1.4a1.05 1.05 0 0 1 .59-.16.93.93 0 0 1 .57.16L15.3 182a1.17 1.17 0 0 1 .59 1v7a1.15 1.15 0 0 0 .58 1l5.72 3.27a.59.59 0 0 0 .88-.5v-14.88zm46.22-20.48a.64.64 0 0 0-.57 0 .6.6 0 0 0-.29.5v14.74a.45.45 0 0 1-.21.37.49.49 0 0 1-.41 0l-2.4-1.39a1.2 1.2 0 0 0-1.16 0l-9.61 5.56a1.16 1.16 0 0 0-.59 1v11.09a1.15 1.15 0 0 0 .59 1l9.61 5.56a1.2 1.2 0 0 0 1.16 0l9.61-5.57a1.15 1.15 0 0 0 .59-1v-27.64a1.18 1.18 0 0 0-.59-1l-5.74-3.2zm-.89 28.21a.25.25 0 0 1-.13.25L65 188.7a.39.39 0 0 1-.3 0l-3.28-1.91a.27.27 0 0 1-.14-.25v-3.81a.25.25 0 0 1 .14-.24l3.28-1.91a.32.32 0 0 1 .3 0l3.29 1.91a.26.26 0 0 1 .13.24v3.81zm32.89-3.9a1.12 1.12 0 0 0 .56-1V179a1.17 1.17 0 0 0-.56-1l-9.55-5.53a1.15 1.15 0 0 0-1.16 0L81 178a1.15 1.15 0 0 0-.59 1v11.09a1.15 1.15 0 0 0 .59 1l9.54 5.44a1.16 1.16 0 0 0 1.14 0l5.78-3.22a.56.56 0 0 0 .3-.5.58.58 0 0 0-.3-.5l-9.66-5.55a.6.6 0 0 1-.29-.5v-3.47a.56.56 0 0 1 .29-.5l3-1.73a.57.57 0 0 1 .59 0l3 1.73a.59.59 0 0 1 .3.5v2.72a.59.59 0 0 0 .88.5l5.72-3.34z" transform="translate(-.4 -1.67)" style="fill:#363636"></path>
      <path class="cls-13" d="M91 182.12a.24.24 0 0 1 .23 0l1.84 1.07a.22.22 0 0 1 .11.2v2.13a.25.25 0 0 1-.11.21l-1.84 1.06a.2.2 0 0 1-.23 0l-1.83-1.06a.26.26 0 0 1-.12-.21v-2.13a.23.23 0 0 1 .12-.2z" transform="translate(-.4 -1.67)"></path>
      <path id="a-3" data-name="a" d="M39.13 172.46a1.2 1.2 0 0 0-1.16 0L28.43 178a1.13 1.13 0 0 0-.57 1v11a1.18 1.18 0 0 0 .57 1l9.57 5.52a1.15 1.15 0 0 0 1.16 0l9.52-5.52a1.13 1.13 0 0 0 .56-1v-11a1.18 1.18 0 0 0-.56-1z" transform="translate(-.4 -1.67)" style="fill:url(#linear-gradient)"></path>
      <g style="mask:url(#mask)">
        <path class="cls-2" d="M38 172.46 28.38 178a1.19 1.19 0 0 0-.61 1v11a1.08 1.08 0 0 0 .29.73l10.75-18.41a1.25 1.25 0 0 0-.86.13zm.93 24.18a1.59 1.59 0 0 0 .27-.12l9.52-5.52a1.14 1.14 0 0 0 .59-1v-11a1.12 1.12 0 0 0-.34-.79l-10.09 18.43z" transform="translate(-.4 -1.67)"></path>
        <path d="m48.7 178-9.59-5.51a1.82 1.82 0 0 0-.3-.11l-10.75 18.38a1.18 1.18 0 0 0 .32.27l9.62 5.52a1.16 1.16 0 0 0 .89.11L49 178.2a1.37 1.37 0 0 0-.25-.23z" transform="translate(-.4 -1.67)" style="fill:url(#linear-gradient-2)"></path>
      </g>
      <g style="mask:url(#mask-2)">
        <path class="cls-2" d="M49.31 190v-11a1.19 1.19 0 0 0-.61-1l-9.59-5.51a1 1 0 0 0-.37-.13l10.5 17.93a.41.41 0 0 0 .07-.25zm-20.93-12a1.19 1.19 0 0 0-.61 1v11a1.22 1.22 0 0 0 .61 1l9.62 5.52a1.09 1.09 0 0 0 .75.14L28.45 178h-.07z" transform="translate(-.4 -1.67)"></path>
        <path d="m37.66 170.44-.14.07h.18z" transform="translate(-.4 -1.67)" style="fill:url(#linear-gradient-3);fill-rule:evenodd"></path>
        <path d="M48.72 191a1.31 1.31 0 0 0 .57-.72l-10.52-18a1.12 1.12 0 0 0-.82.13L28.43 178l10.27 18.68a1.64 1.64 0 0 0 .43-.13l9.59-5.55z" transform="translate(-.4 -1.67)" style="fill:url(#linear-gradient-4);fill-rule:evenodd"></path>
        <path d="m49.61 190.83-.07-.11v.16h.07z" transform="translate(-.4 -1.67)" style="fill:url(#linear-gradient-5);fill-rule:evenodd"></path>
        <path d="m48.72 191-9.57 5.51a1.28 1.28 0 0 1-.43.14l.18.34 10.62-6.15v-.13l-.28-.46a1 1 0 0 1-.52.75z" transform="translate(-.4 -1.67)" style="fill:url(#linear-gradient-6);fill-rule:evenodd"></path>
        <path d="m48.72 191-9.57 5.51a1.28 1.28 0 0 1-.43.14l.18.34 10.62-6.15v-.13l-.28-.46a1 1 0 0 1-.52.75z" transform="translate(-.4 -1.67)" style="fill:url(#linear-gradient-7);fill-rule:evenodd"></path>
      </g>
      <path d="M344.63 115.7c-2.17 0-2.81-1.29-2.81-3.23a17 17 0 0 1 .18-2.13c.48-3.35 1.64-5.26 4.44-5.26 1.9 0 2.82.86 2.82 2.44v.76h1.88v-.86c0-2.3-1.36-4.48-4.72-4.48-4.56 0-6.43 2.53-7.12 7.49a12.82 12.82 0 0 0-.16 1.95c0 2.92 1.13 5.58 5.15 5.58a6.43 6.43 0 0 0 5.95-3.4l-1.8-1.23a4.21 4.21 0 0 1-3.83 2.37zm12.37-9.23c-3.65 0-5.23 1.91-5.77 5.72a11.9 11.9 0 0 0-.1 1.33c0 2.46 1.13 4.42 4.25 4.42 3.65 0 5.25-2 5.78-5.75a11.05 11.05 0 0 0 .1-1.37c0-2.5-1.16-4.35-4.26-4.35zm1.52 5.72c-.4 2.76-1.24 3.61-2.84 3.61-1.29 0-1.92-.54-1.92-2.18a10.16 10.16 0 0 1 .12-1.43c.4-2.74 1.18-3.58 2.8-3.58 1.31 0 2 .54 2 2.19a9.32 9.32 0 0 1-.12 1.39zm11.93-9-.61 3.7c0 .32 0 .22.1.52a4.36 4.36 0 0 0-2.3-.74c-3.27 0-5.11 1.52-5.7 5.75a8.76 8.76 0 0 0-.1 1.35c0 3.08 1.78 4.23 4.17 4.23a3.93 3.93 0 0 0 2.76-.64l.2 1.25h1.89l2.14-15.47zm-1.88 12.07a4.4 4.4 0 0 1-2.29.67c-1.44 0-1.83-.77-1.83-2a12.39 12.39 0 0 1 .14-1.6c.45-3.2 1.46-3.77 2.76-3.77a4.12 4.12 0 0 1 2.11.49l-.89 6.2zm10.27-8.74c-3.61 0-5.31 1.75-5.88 5.72a11.51 11.51 0 0 0-.1 1.39c0 2.72 1.36 4.36 4.36 4.36a5.22 5.22 0 0 0 5-2.81l-2-.82a3 3 0 0 1-2.7 1.49c-1.46 0-2.06-.4-2.06-1.73a2 2 0 0 1 .06-.65h7.13c.1-1 .22-1.75.22-2.35 0-2-.75-4.6-4-4.6zm1.36 4.9h-4.34c.43-1 1.16-2.62 2.66-2.62 1.17 0 1.74.69 1.74 1.88a3.16 3.16 0 0 1-.06.74zm10.26-5.14.24-2.06h-5.6l-.23 2.06h1.46l-1.58 10.28h-1.46l-.24 2h5.57l.24-2h-1.47l1.61-10.33zm11.32 3.08.71-2.06h-1.92l-1.38.3a5.3 5.3 0 0 0-2.8-.88c-2.82 0-5.23 1.39-5.23 4.55a3.36 3.36 0 0 0 .69 2.09 1.88 1.88 0 0 0-1.11 1.59 1.53 1.53 0 0 0 .36.95 3.86 3.86 0 0 0-1.91 3.34c0 2.72 2.78 3.3 4.91 3.3 2.69 0 5.88-.62 5.88-4.11 0-1.19-.73-2.12-2.84-2.52l-3.81-.73c-.43-.08-.53-.22-.53-.42a.42.42 0 0 1 .47-.46h.26a7.7 7.7 0 0 0 1.72.18c2.74 0 5.19-1.21 5.19-4.35a2.85 2.85 0 0 0-.28-1.23 4.32 4.32 0 0 0 .95.42zm-5.43 8.34c.75.14 1 .43 1 .93 0 1.63-1.72 1.83-3 1.83-1.89 0-2.6-.46-2.6-1.49a2.47 2.47 0 0 1 .85-2zm-.81-5.28c-1.15 0-1.78-.42-1.78-1.43a2.13 2.13 0 0 1 2.33-2.35c1.19 0 1.76.5 1.76 1.49a2.07 2.07 0 0 1-2.34 2.24zm13.25-5.9a5.35 5.35 0 0 0-3.31 1.54l-.18-.76h-2.2l-1.52 11.31h2.62l1.15-8.57a5.7 5.7 0 0 1 2.52-1.19c1 0 1.35.49 1.35 1.41a11 11 0 0 1-.06 1.13l-1 7.22h2.63l1-7.28c0-.34.08-.91.08-1.23 0-1.91-.89-3.58-3.1-3.58zm8.09 9.26v-.28l1.15-8.2h-4.37l-.27 2.06h1.91c-.16 0-.26.18-.28.34l-.79 5.46c0 .27-.05.81-.05 1a2.16 2.16 0 0 0 2.29 2.42h1.34l.29-2h-.84c-.3 0-.4-.54-.4-.78zm1.7-12.7H416c-.16 0-.16-.44-.18-.29l-.35 2.13c0 .13 0 .42.14.42h2.56c.16 0 .16-.51.18-.65l.36-1.64c0-.15 0 0-.14 0zm5.35 12.77c-.65 0-1-.28-1-.89l.83-5.56h3l.9-2.06h-3.63l.61-4.52-2.76.9-.49 3.62h-1.6l-.28 2.06h1.86c-.18 1-.36.36-.38.56l-.71 4.88a3 3 0 0 0 0 .59c0 1.91 1.38 2.63 3 2.63a5.55 5.55 0 0 0 3.75-1.29l-1.22-1.54a3.14 3.14 0 0 1-1.94.66zm9.64-9.33c-3.61 0-5.31 1.75-5.88 5.72a11.51 11.51 0 0 0-.1 1.39c0 2.72 1.36 4.36 4.36 4.36a5.22 5.22 0 0 0 5-2.81l-2-.82a3 3 0 0 1-2.7 1.49c-1.46 0-2.06-.4-2.06-1.73a2 2 0 0 1 .06-.65h7.13c.1-1 .22-1.75.22-2.35 0-2-.75-4.6-4-4.6zm1.36 4.9h-4.34c.43-1 1.16-2.62 2.66-2.62 1.17 0 1.74.69 1.74 1.88a3.16 3.16 0 0 1-.06.74zm9.93-4.9a4.07 4.07 0 0 0-2.72 1.42l-.16-.64h-2.17l-1.52 11.31h2.64l1.17-8.75a4.46 4.46 0 0 1 2.23-.79 10.34 10.34 0 0 1 1.36 0l.34-2.34a6.23 6.23 0 0 0-1.17-.2zm-138.4 15.47a6.62 6.62 0 0 1-3.94-5.5 7.79 7.79 0 0 1 3.54-6.11 2.77 2.77 0 0 0 .22 2.55 2.33 2.33 0 0 0 2.39.93c2.1-.47 2.19-2.83.95-4.2s-2.42-2.89-1.95-4.86a5 5 0 0 1 1.58-2.57c-.58 1.55 1.06 3.08 2.15 3.84a57.27 57.27 0 0 1 5.67 3.87 7.61 7.61 0 0 1 2.88 6.39c-.29 2.77-2.45 4.69-4.86 5.67 5.11-1.15 10.39-5.2 10.49-11 .09-4.76-3.1-8.42-7.07-10.52l-.2-.11a2 2 0 0 1 .14.7 2.32 2.32 0 0 0 .06-.47 2.17 2.17 0 0 1-.07.57V101a2.39 2.39 0 0 1-.3.72l.06-.07a2.46 2.46 0 0 1-4 .24c-1.7-2.22 0-4.63.28-7 .31-3-1.51-5.83-3.77-7.55 1.25 2.05-.39 4.76-1.7 6.28s-2.81 2.7-4.21 4a36.8 36.8 0 0 0-4.19 4.63c-2.47 3.37-4 7.6-2.87 11.81s4.67 6.87 8.7 7.81z" transform="translate(-.4 -1.67)" style="fill:#c94529"></path>
      <path class="cls-25" d="M98.41 293.45v5.14h9.3a5.32 5.32 0 0 0 5.3-5.29v-2a5.25 5.25 0 0 0-5.3-5.29h-4.64v-2.37h9.19v-5.19h-8.82a5.42 5.42 0 0 0-5.31 5.37v1.79a5.32 5.32 0 0 0 5.31 5.3h4.39v2.5m-59.27-1.21s5-.43 5-6.86a6.8 6.8 0 0 0-6-7H36.65v20.29h5.46v-4.88l4.72 4.88h8.07zm-2.1-4.2h-4.35v-4.6h4.38a2.27 2.27 0 0 1 1.23 2.31 2.32 2.32 0 0 1-1.26 2.29zM67 278.45h-5.51a5.33 5.33 0 0 0-5.3 5.3v14.84h5.54V295h5.2v3.56h5.37v-14.81c0-4.33-3.91-5.3-5.28-5.3zm-.09 10.86h-5.22v-4.93s0-1.1 1.74-1.1h1.9c1.53 0 1.56 1.1 1.56 1.1v4.93zm7.93-10.86h5.78v20.14h-5.76zm8.13 0v20.14h13.54v-5.2h-7.76v-14.94z" transform="translate(-.4 -1.67)"></path>
      <path class="cls-25" d="M2.37 298.59h22.47s-4.29-19.6 9.92-27.54c3.1-1.51 13-7.14 29.13 4.81.51-.43 1-.76 1-.76s-14.8-14.77-31.26-13.1c-8.28.74-18.46 8.28-24.43 18.24s-6.83 18.35-6.83 18.35z" transform="translate(-.4 -1.67)"></path>
      <path class="cls-25" d="M2.37 298.59h22.47s-4.29-19.6 9.92-27.54c3.1-1.51 13-7.14 29.13 4.81.51-.43 1-.76 1-.76s-14.8-14.77-31.26-13.1c-8.28.74-18.46 8.28-24.43 18.24s-6.83 18.35-6.83 18.35z" transform="translate(-.4 -1.67)"></path>
      <path class="cls-25" d="M2.37 298.59h22.47s-4.29-19.6 9.92-27.54c3.1-1.51 13-7.14 29.13 4.81.51-.43 1-.76 1-.76s-14.8-14.77-31.26-13.1c-8.3.74-18.5 8.28-24.47 18.24S2.37 298.6 2.37 298.6zm46.83-35 .11-1.9a12.93 12.93 0 0 0-2.76-1l-.11 1.88c.93.29 1.84.65 2.76 1.02z" transform="translate(-.4 -1.67)"></path>
      <path class="cls-25" d="m46.49 269.62-.11 1.79a17.06 17.06 0 0 1 2.82.33l.11-1.77a20.29 20.29 0 0 0-2.82-.35zM36 260.74h.28l-.62-1.74a23.22 23.22 0 0 0-2.72.17l.54 1.68c.84-.07 1.66-.11 2.52-.11zm1.38 10.46.65 2a16.22 16.22 0 0 1 2.48-1l-.63-1.88a23.9 23.9 0 0 0-2.54.88zm-12.93-7.48-1.28-2c-.71.38-1.46.77-2.22 1.24l1.3 2c.75-.47 1.46-.89 2.2-1.27zm5.84 12.81 1.36 2.05a16.42 16.42 0 0 1 1.68-2L32 274.63a15.45 15.45 0 0 0-1.75 1.9zm-4.14 9.16 2.31 1.83a24.13 24.13 0 0 1 .6-3.32L27 282.58a28.32 28.32 0 0 0-.86 3.11zm-12.5-13.52-2-1.77c-.75.71-1.45 1.42-2.11 2.12l2.19 1.89c.6-.75 1.27-1.53 1.92-2.24zm-8.57 12.72-3.27-1.2c-.54 1.23-1.13 2.65-1.41 3.42l3.24 1.19c.36-.97.97-2.3 1.44-3.41zm20.62 8a32.31 32.31 0 0 0 .34 3.58l3.41 1.23c-.26-1.1-.5-2.37-.69-3.69z" transform="translate(-.4 -1.67)"></path>
      <path class="cls-26" d="m20.21 102 14.51 3.6c2.52-1 4-2.24 4-3.6v-5.77c0-3.19-8.31-5.81-18.59-5.81S1.58 93 1.58 96.23V102c0 3.2 8.31 5.81 18.59 5.81V102zM34.73 111.44l-14.51-3.6v5.81l14.51 3.61c2.52-1 4-2.24 4-3.61v-5.81c.04 1.36-1.48 2.61-4 3.6z" transform="translate(-.4 -1.67)"></path>
      <path class="cls-26" d="M1.66 107.84v5.81c0 3.19 8.31 5.81 18.59 5.81v-5.81C10 113.62 1.66 111 1.66 107.84z" transform="translate(-.4 -1.67)"></path>
      <path d="M53.75 112.6a7.59 7.59 0 0 1-7.75-7.46v-.28a7.65 7.65 0 0 1 7.52-7.77 1.71 1.71 0 0 1 .32 0 7.78 7.78 0 0 1 5.93 2.27l-2.1 2.46a5.57 5.57 0 0 0-3.85-1.7 4.46 4.46 0 0 0-4.37 4.55.66.66 0 0 1 0 .14 4.45 4.45 0 0 0 4.19 4.71h.17a5.42 5.42 0 0 0 4-1.72l2.11 2.13a7.66 7.66 0 0 1-6.17 2.67zm15.25-.22v-1.25a4.4 4.4 0 0 1-3.49 1.47c-2.17 0-3.95-1.24-3.95-3.53 0-2.52 1.91-3.67 4.64-3.67a8.19 8.19 0 0 1 2.82.47v-.19c0-1.35-.84-2.11-2.48-2.11a8.4 8.4 0 0 0-3.17.62l-.82-2.49a10 10 0 0 1 4.47-.93c3.57 0 5.13 1.85 5.13 5v6.64zm.06-4.65a5.2 5.2 0 0 0-2.13-.43c-1.4 0-2.27.56-2.27 1.59 0 .89.73 1.4 1.78 1.4 1.52 0 2.56-.83 2.56-2zm13.32 4.65-3-4.71-1.14 1.2v3.51h-3.31V96.71h3.31v8.37l3.83-4.19H86l-4.38 4.54 4.54 7h-3.82zm15.47-4.62h-8a2.67 2.67 0 0 0 2.76 2.24 3.79 3.79 0 0 0 2.79-1.14l1.88 1.66a6.09 6.09 0 0 1-10.73-3.8 5.73 5.73 0 0 1 5.47-6h.21c3.84 0 5.6 3 5.6 6.26a6.59 6.59 0 0 1-.02.78zm-5.56-4.54a2.56 2.56 0 0 0-2.5 2.45h4.93a2.46 2.46 0 0 0-2.44-2.41z" transform="translate(-.4 -1.67)" style="fill:#434345"></path>
      <path class="cls-26" d="M106.45 107.86h-2.52v4.54h-3.3V97.33h6.14c3.58 0 5.75 2.12 5.75 5.19 0 3.53-2.7 5.34-6.07 5.34zm2.72-5.27c0-1.48-1-2.27-2.69-2.27h-2.55v4.6h2.62a2.33 2.33 0 0 0 2.6-2 2.28 2.28 0 0 0 0-.26zm15.21 9.79v-6h-6.1v6H115v-15h3.31v5.94h6.1v-5.99h3.32v15zm12.75-4.52h-2.51v4.54h-3.31V97.33h6.14c3.58 0 5.75 2.12 5.75 5.19 0 3.53-2.7 5.34-6.07 5.34zm2.72-5.27c0-1.48-1-2.27-2.69-2.27h-2.55v4.6h2.66a2.33 2.33 0 0 0 2.6-2 2.28 2.28 0 0 0 0-.26z" transform="translate(-.4 -1.67)"></path>
      <path class="cls-28" d="M407.74 275.64H404v7.09c0 2.06-.88 3.74-3 3.74s-3-1.68-3-3.74v-7.07h-3.78v7.07c0 4.08 2.63 7.39 6.72 7.39s6.76-3.31 6.76-7.39zm34.11-4.31h3.76v18.43h-3.76zm-50.68 4.15c-3.24-.76-5.29 2.47-5.37 2.65s0 .15-.18.13-.12-.13-.12-.13l-.41-2.47h-3.37v14.08h3.78v-7.62a4.11 4.11 0 0 1 4.92-2.84 5.38 5.38 0 0 1 2.35 1.08v-4.29a7 7 0 0 0-1.6-.59m25.35 3.57a3.78 3.78 0 1 1-3.78 3.78 3.8 3.8 0 0 1 3.78-3.78m-3.65 15.34V287.43a.17.17 0 0 1 .14-.17c.12 0 .14.09.18.17a4.49 4.49 0 0 0 5.38 2.57 7.45 7.45 0 1 0-9.48-7.17v11.56zm23.77-11.56a3.78 3.78 0 1 1-3.78-3.78 3.78 3.78 0 0 1 3.78 3.78m-.1 6.93h3.8v-6.93a7.46 7.46 0 1 0-9.48 7.17 4.48 4.48 0 0 0 5.37-2.57.19.19 0 0 1 .19-.17c.14 0 .14.17.14.17m-65.67-12.91h-1.51v12h1.55c3.21 0 5.27-.29 5.27-6 0-5.53-1.84-6-5.31-6m-1 15.22h-4.31v-18.41h4.62c5.59 0 9.82 1 9.82 9.21s-4.49 9.2-10.13 9.2M350.73 269.86c-2.18-2.19-4.29-4.3-4.9-6.65-.63 2.35-2.71 4.44-4.9 6.65-3.29 3.28-7 7-7 12.6a11.93 11.93 0 0 0 23.86 0c0-5.6-3.74-9.32-7-12.6M339 285.24c-.74 0-3.43-4.67 1.58-9.64l3.32 3.62a.28.28 0 0 1 0 .4c-.8.82-4.16 4.19-4.58 5.37-.11.23-.24.23-.3.23m6.86 6.12a4.09 4.09 0 0 1-4.1-4.1 4.33 4.33 0 0 1 1-2.72c.73-.9 3.07-3.45 3.07-3.45s2.32 2.59 3.07 3.45a4 4 0 0 1 1 2.72 4.11 4.11 0 0 1-4.1 4.1m7.85-6.65c-.08.19-.29.53-.57.53-.48 0-.52-.23-.88-.76-.78-1.16-7.62-8.31-8.9-9.68-1.12-1.22-.17-2.06.29-2.52l2.21-2.21s4.9 4.65 6.92 7.8a7.39 7.39 0 0 1 .93 6.84" transform="translate(-.4 -1.67)"></path>
      <path d="M1.3 343.13a4.6 4.6 0 0 1 4.13-2.78h40a4.58 4.58 0 0 1 4.64 4.65v15.32a4.58 4.58 0 0 1-4.33 4.42H31.17c.65 1.62 1.31 3.22 2 4.84-2.9-1.6-5.75-3.24-8.68-4.81-6.38-.05-12.78 0-19.19 0a4.61 4.61 0 0 1-4.33-4.42" transform="translate(-.4 -1.67)" style="fill:#845c82;fill-rule:evenodd"></path>
      <path d="M20.83 343.5a1.76 1.76 0 0 1 2.68.36 1.65 1.65 0 0 1 .07 1.57 23.65 23.65 0 0 0-1.84 6.48 43.19 43.19 0 0 0-.7 8.72 1.7 1.7 0 0 1-1.11 1.84 2.13 2.13 0 0 1-1.93-.87 20.65 20.65 0 0 1-4.3-8.39c-.9 1.77-1.79 3.55-2.66 5.32a12.87 12.87 0 0 1-2.23 3.41c-.41.41-1.11.77-1.64.36a6.08 6.08 0 0 1-1.33-2.76A117.06 117.06 0 0 1 3.09 346a1.7 1.7 0 0 1 .89-2 1.94 1.94 0 0 1 1.91.19 2.08 2.08 0 0 1 .53 1.29c.53 3.52 1.14 7 2 10.49l4.35-8.29a2.63 2.63 0 0 1 .87-1.07 1.42 1.42 0 0 1 1.76.17 2.94 2.94 0 0 1 .61 1.45 37 37 0 0 0 1.86 6.7 38.54 38.54 0 0 1 2-9.65 6.91 6.91 0 0 1 .95-1.83m8.18 1.81a5.09 5.09 0 0 1 4.33 1.52 6.7 6.7 0 0 1 1.52 3.56 11 11 0 0 1-1.21 6.47 7.18 7.18 0 0 1-2.49 2.86 5.1 5.1 0 0 1-5.36-.17 5.9 5.9 0 0 1-2.25-3.77 10.37 10.37 0 0 1 2.9-9.29 4.73 4.73 0 0 1 2.56-1.18m.31 3.38a3.51 3.51 0 0 0-1.64 1.57 6 6 0 0 0-.48 5.56 1.67 1.67 0 0 0 1.11 1.07 1.92 1.92 0 0 0 1.52-.61 5.51 5.51 0 0 0 1.62-3.16 5.46 5.46 0 0 0-.65-4 1.37 1.37 0 0 0-1.48-.46m12.23-3.38a5 5 0 0 1 4.26 1.43 6.61 6.61 0 0 1 1.62 3.81 11 11 0 0 1-1.19 6.24 7.1 7.1 0 0 1-2.56 2.93 5.14 5.14 0 0 1-5.17-.08 5.35 5.35 0 0 1-2.15-2.83 10.42 10.42 0 0 1 2.34-10.12 5.3 5.3 0 0 1 2.85-1.38m.34 3.38a3.83 3.83 0 0 0-1.74 1.79 5.91 5.91 0 0 0-.31 5.44 1.5 1.5 0 0 0 1.18 1 2.29 2.29 0 0 0 1.57-.78 5.6 5.6 0 0 0 1.5-3.5 5 5 0 0 0-.75-3.48 1.34 1.34 0 0 0-1.45-.44" transform="translate(-.4 -1.67)" style="fill-rule:evenodd;fill:#fff"></path>
      <path d="M58.34 345.72a9.12 9.12 0 0 1 4.06 0V349a5 5 0 0 0-3.4 0 3.81 3.81 0 0 0-2 3.41 4 4 0 0 0 1.6 3.65 4.6 4.6 0 0 0 3.74.24v3.26a8 8 0 0 1-5-.17 6.64 6.64 0 0 1-4-4.27 9.11 9.11 0 0 1-.14-4.55 6.67 6.67 0 0 1 5-4.88m9.81-.17a6.52 6.52 0 0 1 4.76 1.11 6.41 6.41 0 0 1 2.15 4.16 11.94 11.94 0 0 1-.22 5.21 5.63 5.63 0 0 1-2.76 3.36 6.92 6.92 0 0 1-4.47.36 5 5 0 0 1-3.24-2.44 10.08 10.08 0 0 1-1-5.46 7.34 7.34 0 0 1 1.54-4.5 5.4 5.4 0 0 1 3.41-1.74m.51 3.12a2 2 0 0 0-1.28 1.52 12.44 12.44 0 0 0-.2 4 3.77 3.77 0 0 0 .68 2.08 1.81 1.81 0 0 0 2.66-.12 3.36 3.36 0 0 0 .6-1.79 11.82 11.82 0 0 0 0-3.36 3.59 3.59 0 0 0-.79-1.89 1.77 1.77 0 0 0-1.67-.43m64.46-2.9a9.52 9.52 0 0 1 4.28 0v3.29a5.08 5.08 0 0 0-3.29 0 3.74 3.74 0 0 0-2 3.12 4.15 4.15 0 0 0 1.52 3.94 4.48 4.48 0 0 0 3.8.27v3.28a8.21 8.21 0 0 1-5.23-.31 6.66 6.66 0 0 1-3.69-4.3 9.06 9.06 0 0 1-.08-4.48 6.64 6.64 0 0 1 4.72-4.73m-55.91.09h4.67c.55 2.52 1.09 5.06 1.57 7.59.43-2.56 1-5.07 1.64-7.59h4.79c.63 4.57 1.23 9.14 1.84 13.68h-3.71c-.34-3.11-.63-6.26-1-9.37-.74 3.11-1.52 6.26-2.27 9.37h-2.49c-.79-3.11-1.57-6.26-2.39-9.4-.31 3.12-.63 6.26-.94 9.4h-3.51c.58-4.54 1.16-9.11 1.74-13.68m16.73 0h4.66c.56 2.52 1.09 5.06 1.57 7.59.46-2.53 1-5.07 1.65-7.59h4.76c.63 4.57 1.23 9.14 1.84 13.68h-3.65c-.34-3.11-.66-6.26-1-9.37-.75 3.11-1.5 6.26-2.28 9.37H99c-.79-3.14-1.59-6.26-2.39-9.4-.31 3.14-.63 6.26-.94 9.4h-3.5c.61-4.54 1.19-9.11 1.77-13.68m15.54.05c2.49-.05 5 0 7.49 0v2.92h-3.77v2.52h3.26v2.82h-3.26v2.52h3.8v2.92h-7.5v-13.68m8.56-.05h4.68a6.28 6.28 0 0 1 4.14 1.45 3.73 3.73 0 0 1 .94 3.73 3.87 3.87 0 0 1-2 2.34c1 2.06 2 4.11 2.94 6.16h-3.96c-1-2.1-2-4.2-3-6.28v6.28h-3.7V346m3.69 2.64v3.26a3.64 3.64 0 0 0 2-.48 1.59 1.59 0 0 0 .17-2.1 3 3 0 0 0-2.13-.68m16.73-2.61h7.47v2.92h-3.8v2.52h3.27v2.82h-3.27v2.52H146v2.92h-7.49v-13.7" transform="translate(-.4 -1.67)" style="fill-rule:evenodd"></path>
      <path style="fill:#c44e2d" d="M138.03 260.06h39.84l-3.63 40.67-16.32 4.52-16.27-4.52-3.62-40.67z"></path>
      <path style="fill:#d26531" d="m171.13 298.14 3.1-34.75h-16.28v38.4l13.18-3.65z"></path>
      <path class="cls-34" d="m151.35 278.47-.46-5.1h7.06v-4.99h-12.51l.12 1.34 1.22 13.74h11.17v-4.99h-6.6zM157.93 291.43l-5.56-1.5-.36-3.98h-5l.7 7.84 10.21 2.83h.03v-5.19h-.02z"></path>
      <path d="M142.13 250.68h2.51v1.88h2.3v-1.88h2.51v5.68h-2.51v-1.9h-2.3v1.9h-2.51v-5.68zM152.85 253.2h-2.23v-2.52h7v2.52h-2.23v5.06h-2.54v-5.06zM158.73 250.68h2.64l1.63 2.67 1.62-2.67h2.65v7.58h-2.53v-3.75L163 257.2l-1.74-2.69v3.75h-2.48v-7.58zM168.53 250.68h2.53v5.08h3.57v2.5h-6.1v-7.58z" transform="translate(-.4 -1.67)"></path>
      <path class="cls-1" d="M157.93 283.46h6.14l-.58 6.47-5.56 1.5v5.19l10.23-2.83.07-.85 1.17-13.13.12-1.34h-11.59v4.99zM157.93 271.48V273.37H169.98l.1-1.12.23-2.53.12-1.34h-12.5v3.1z"></path>
      <g id="layer1">
        <g id="g3013">
          <path id="polygon2989" style="fill:#384edd" d="m234.44 260.06-3.63 40.67-16.31 4.52-16.27-4.52-3.63-40.67h39.84z"></path>
          <path id="polygon2991" style="fill:#4365eb" d="m227.71 298.14 3.1-34.75h-16.29v38.4l13.19-3.65z"></path>
          <path id="polygon2993" class="cls-34" d="m202.91 278.47.45 4.99h11.16v-4.99h-11.61z"></path>
          <path id="polygon2995" class="cls-34" d="M214.52 268.38h-12.51l.46 4.99h12.05v-4.99z"></path>
          <path id="polygon2997" class="cls-34" d="M214.52 296.62v-5.19h-.02l-5.56-1.5-.35-3.98h-5.01l.7 7.84 10.22 2.83h.02z"></path>
          <path id="path2999" d="M204.37 250.68h6v2.53h-3.47v2.52h3.51v2.53h-6z" transform="translate(-.4 -1.67)"></path>
          <path id="path3001" d="M211.62 250.68h6v2.2h-3.51v.44h3.51v5.05h-6v-2.31h3.52v-.44h-3.52z" transform="translate(-.4 -1.67)"></path>
          <path id="path3003" d="M218.87 250.68h6v2.2h-3.47v.44h3.51v5.05h-6v-2.31h3.52v-.44h-3.52z" transform="translate(-.4 -1.67)"></path>
          <path id="polygon3005" class="cls-1" d="m220.65 283.46-.58 6.47-5.57 1.5v5.19l10.23-2.83.07-.85 1.18-13.13.12-1.34.9-10.09h-12.5v4.99h7.03l-.45 5.1h-6.58v4.99h6.15z"></path>
        </g>
      </g>
      <g class="cls-37">
        <path style="fill:#d4a138" d="M292.18 259.71h-40.72l3.81 41.39 16.55 4.69 16.53-4.69 3.83-41.39z"></path>
        <path style="fill:#e2bd39" d="M271.82 263.08v39.21l13.39-3.8 3.27-35.41h-16.66z"></path>
        <path class="cls-1" d="M282.47 268.16h-20.6l-1.43 15.5.03-.1h17.5l-.57 6.56-5.58 1.61-5.67-1.64-.34-3.97h-5.15l.74 7.93 10.42 2.96 10.42-2.96 1.43-15.56H265.1l.23-5.19h12.9l.18 2.97h5.2l-1.14-8.11z"></path>
        <path d="M272.21 269.83h-9.95l-1.43 15.49v-.09h11.35v-5.07h-6l.24-5.19h5.76zm-6 18h-5.14l.73 7.93 10.42 2.95v-5.28l-5.67-1.63z" transform="translate(-.4 -1.67)" style="fill:#e9e9e9"></path>
        <path class="cls-41" d="M267.85 253.6h-3.62v2.6H270.45v-7.73h-2.6v5.13z"></path>
        <g class="cls-37">
          <path class="cls-41" d="M279.8 250.18h-6.32v2.71c.84.84 1.29 1.25 2.51 2.47h-2.51v2.47h6.32v-2.47l-2.53-2.47h2.53z" transform="translate(-.4 -1.67)"></path>
        </g>
      </g>
      <g id="Logotype">
        <g id="Wordmark">
          <path class="cls-42" d="M378.07 21.81h-6.24v.66c1.95 0 2.27.42 2.27 2.89v4.46c0 2.48-.32 2.93-2.27 2.93-1.5-.21-2.51-1-3.9-2.54l-1.6-1.74c2.16-.39 3.31-1.75 3.31-3.28 0-1.92-1.64-3.38-4.71-3.38h-6.13v.66c1.95 0 2.27.42 2.27 2.89v4.46c0 2.48-.32 2.93-2.27 2.93v.66h6.93v-.66c-2 0-2.26-.45-2.26-2.93v-1.25h.59l3.87 4.84h10.14c5 0 7.14-2.64 7.14-5.82s-2.16-5.78-7.14-5.78zm-14.6 5.68v-4.63h1.43a2.13 2.13 0 0 1 2.26 2.33 2.12 2.12 0 0 1-2.26 2.3zm14.7 4.84h-.24c-1.25 0-1.43-.31-1.43-1.91v-7.56h1.67c3.63 0 4.29 2.64 4.29 4.7s-.66 4.77-4.29 4.77zM339.39 28.78l2.41-7.11c.7-2.05.38-2.65-1.85-2.65v-.69h6.55V19c-2.19 0-2.72.53-3.59 3.07l-4 11.92h-.45l-3.53-10.89-3.62 10.9h-.45L327 22.09c-.84-2.54-1.39-3.07-3.42-3.07v-.69h7.74V19c-2.06 0-2.61.49-1.88 2.65l2.33 7.11 3.52-10.45h.66zM351.24 33.87c-3.83 0-7-2.83-7-6.28s3.14-6.23 7-6.23 7 2.82 7 6.23-3.17 6.28-7 6.28zm0-11.43c-3.21 0-4.32 2.89-4.32 5.15s1.11 5.16 4.32 5.16 4.36-2.86 4.36-5.16-1.12-5.15-4.36-5.15zM393.82 32.72v.69h-8v-.69c2.33 0 2.75-.6 2.75-4.08v-5.57c0-3.49-.42-4.05-2.75-4.05v-.69h7.21c3.59 0 5.58 1.84 5.58 4.32s-2 4.28-5.58 4.28h-2v1.71c.03 3.48.45 4.08 2.79 4.08zm-.77-13.14h-2v6.06h2a2.72 2.72 0 0 0 2.86-3 2.76 2.76 0 0 0-2.86-3.06zM422.56 30.14l-.17.63c-.32 1.15-.7 1.56-3.17 1.56h-.49c-1.81 0-2.13-.41-2.13-2.89v-1.6c2.72 0 2.93.24 2.93 2.05h.66V24.7h-.66c0 1.81-.21 2.06-2.93 2.06v-3.9h1.92c2.47 0 2.86.41 3.17 1.56l.18.67h.55l-.24-3.28h-10.24v.66c1.95 0 2.26.42 2.26 2.89v4.46c0 2.27-.27 2.84-1.8 2.92-1.47-.22-2.47-1-3.84-2.53L407 28.47c2.16-.39 3.31-1.75 3.31-3.28 0-1.92-1.63-3.38-4.7-3.38h-6.13v.66c1.95 0 2.26.42 2.26 2.89v4.46c0 2.48-.31 2.93-2.26 2.93v.66h6.93v-.66c-1.95 0-2.26-.45-2.26-2.93v-1.25h.59l3.87 4.84h14.32l.21-3.27zm-18.46-2.65v-4.63h1.42a2.14 2.14 0 0 1 2.27 2.33 2.13 2.13 0 0 1-2.27 2.3zM429.64 33.87a5.16 5.16 0 0 1-3.14-1.19 2.59 2.59 0 0 0-.56 1.19h-.66v-4.81h.7a3.87 3.87 0 0 0 3.93 3.66 1.8 1.8 0 0 0 2-1.68c0-.9-.81-1.6-2.23-2.26l-2-.94a3.79 3.79 0 0 1-2.44-3.35c0-1.67 1.57-3.1 3.73-3.1a4.37 4.37 0 0 1 2.72.91 2 2 0 0 0 .45-.94h.66v4.11h-.73c-.24-1.64-1.15-3-3-3-1 0-1.88.56-1.88 1.43s.73 1.39 2.41 2.16l1.91.94a3.65 3.65 0 0 1 2.34 3.14c.04 2.19-1.85 3.73-4.21 3.73zM440.17 33.87a5.15 5.15 0 0 1-3.17-1.19 2.49 2.49 0 0 0-.56 1.19h-.66v-4.81h.69a3.87 3.87 0 0 0 3.94 3.66 1.8 1.8 0 0 0 2-1.68c0-.9-.8-1.6-2.23-2.26l-2-.94a3.78 3.78 0 0 1-2.43-3.35c0-1.67 1.56-3.1 3.72-3.1a4.35 4.35 0 0 1 2.72.91 1.87 1.87 0 0 0 .45-.94h.67v4.11h-.73c-.25-1.64-1.15-3-3-3-1 0-1.88.56-1.88 1.43s.73 1.39 2.4 2.16l1.92.94a3.63 3.63 0 0 1 2.33 3.14c.07 2.19-1.84 3.73-4.18 3.73z" transform="translate(-.4 -1.67)"></path>
        </g>
        <g id="W_Mark" data-name="W Mark">
          <path class="cls-42" d="M306.24 11a14.59 14.59 0 0 1 5.76 1.18 14.74 14.74 0 0 1 2.53 1.37 15.15 15.15 0 0 1 2.19 1.81 15.42 15.42 0 0 1 1.82 2.2 14.93 14.93 0 0 1 1.36 2.52 14.84 14.84 0 0 1 0 11.55 14.93 14.93 0 0 1-1.36 2.52 15.42 15.42 0 0 1-1.82 2.2 15.15 15.15 0 0 1-2.19 1.81 14.74 14.74 0 0 1-2.53 1.37 14.84 14.84 0 0 1-11.55 0 14.29 14.29 0 0 1-2.52-1.37 14.72 14.72 0 0 1-4-4 14.29 14.29 0 0 1-1.37-2.52 14.84 14.84 0 0 1 0-11.55 14.29 14.29 0 0 1 1.37-2.52 14.72 14.72 0 0 1 4-4 14.29 14.29 0 0 1 2.52-1.37 14.64 14.64 0 0 1 5.79-1.2m0-.95A15.79 15.79 0 1 0 322 25.85a15.79 15.79 0 0 0-15.79-15.79z" transform="translate(-.4 -1.67)"></path>
          <path class="cls-42" d="M293.08 25.85a13.18 13.18 0 0 0 7.42 11.85l-6.28-17.2a13.13 13.13 0 0 0-1.14 5.35zm22-.66a6.94 6.94 0 0 0-1.08-3.63 6.13 6.13 0 0 1-1.3-3.08 2.28 2.28 0 0 1 2.3-2.34h.17a13.16 13.16 0 0 0-19.88 2.48h.85c1.38 0 3.51-.16 3.51-.16a.54.54 0 0 1 .08 1.08s-.71.08-1.5.12L303 33.94l2.88-8.64-2.05-5.62c-.71 0-1.38-.12-1.38-.12a.54.54 0 0 1 .08-1.08s2.17.16 3.47.16 3.5-.16 3.5-.16a.54.54 0 0 1 .09 1.08s-.72.08-1.51.12l4.76 14.15 1.35-4.3a15 15 0 0 0 .93-4.34zM306.47 27l-4 11.48a13.43 13.43 0 0 0 3.72.53 13.19 13.19 0 0 0 4.37-.74 1.62 1.62 0 0 1-.1-.18zm11.31-7.46a9.56 9.56 0 0 1 .09 1.35 12.46 12.46 0 0 1-1 4.72l-4 11.62a13.14 13.14 0 0 0 4.93-17.69z" transform="translate(-.4 -1.67)"></path>
        </g>
      </g>
      <circle cx="170.19" cy="187.27" r="4.76" style="fill:#79d6fc"></circle>
      <path class="cls-44" d="M170.58 179.26a53.38 53.38 0 0 1 16.8 2.46c5.4 1.86 8.71 4.67 8.71 7.22s-3.51 5.64-9.3 7.56a53.65 53.65 0 0 1-16.21 2.21c-6.22 0-12.11-.71-16.53-2.22-5.6-1.92-9-5-9-7.55s3.17-5.32 8.48-7.18a54.11 54.11 0 0 1 17-2.5z" transform="translate(-.4 -1.67)"></path>
      <path class="cls-44" d="M162.16 184.13a53.34 53.34 0 0 1 10.52-13.33c4.3-3.74 8.4-5.21 10.61-3.94s3.13 5.87 1.9 11.84a53.5 53.5 0 0 1-6.19 15.14c-3.11 5.39-6.67 10.14-10.19 13.21-4.46 3.9-8.77 5.31-11 4s-3-5.4-2-10.93a54 54 0 0 1 6.34-16z" transform="translate(-.4 -1.67)"></path>
      <path class="cls-44" d="M162.17 193.86a53.45 53.45 0 0 1-6.29-15.78c-1.1-5.59-.32-9.87 1.88-11.15s6.65.21 11.21 4.26a53.77 53.77 0 0 1 10 12.92c3.11 5.39 5.45 10.84 6.36 15.43 1.15 5.8.22 10.24-2 11.55s-6.19-.08-10.46-3.75a53.93 53.93 0 0 1-10.69-13.48z" transform="translate(-.4 -1.67)"></path>
      <path d="m220.21 199.71-5.85-8.85a6 6 0 0 0 5.62-6.32c0-4-2.83-6.54-6.8-6.54h-8.71v21.69h2.7v-8.62h4.33l5.52 8.62zm-7.35-11h-5.69v-8.3h5.69a4.15 4.15 0 1 1 0 8.3zm17.4 11.38a8.53 8.53 0 0 0 6.24-2.41l-1.17-1.59a6.83 6.83 0 0 1-4.84 2 5.53 5.53 0 0 1-5.66-5.43h12.71V192c0-4.71-2.79-8.42-7.54-8.42-4.49 0-7.74 3.68-7.74 8.23 0 4.91 3.35 8.24 8 8.24zm4.88-9.24h-10.31a5.24 5.24 0 0 1 5.14-5.24 5.09 5.09 0 0 1 5.17 5.25zm18.6 8.85v-10.8c0-3.8-2.76-5.3-6.08-5.3a8.19 8.19 0 0 0-6.27 2.6l1.13 1.69a6.27 6.27 0 0 1 4.82-2.18c2.27 0 4 1.21 4 3.32v2.83a6.56 6.56 0 0 0-5.21-2.15c-2.66 0-5.5 1.66-5.5 5.17a5.23 5.23 0 0 0 5.5 5.21 6.8 6.8 0 0 0 5.21-2.18v1.78zm-6.74-1.36c-2.28 0-3.87-1.43-3.87-3.41s1.59-3.45 3.87-3.45a5.28 5.28 0 0 1 4.33 2v3a5.28 5.28 0 0 1-4.33 2zm18.56 1.76a6.71 6.71 0 0 0 5.75-2.73l-1.62-1.5a4.74 4.74 0 0 1-4 2c-3.35 0-5.43-2.6-5.43-6.08s2.08-6.05 5.43-6.05a4.63 4.63 0 0 1 4 2.05l1.62-1.5a6.71 6.71 0 0 0-5.75-2.73c-4.69 0-7.84 3.58-7.84 8.23s3.15 8.25 7.84 8.25zm13.14 0a4 4 0 0 0 2.92-1l-.71-1.82a2.32 2.32 0 0 1-1.66.65c-1.07 0-1.59-.85-1.59-2v-9.75h3.18V184h-3.18v-4.29h-2.46V184h-2.61v2.15h2.61v10.27c0 2.35 1.17 3.68 3.48 3.68z" transform="translate(-.4 -1.67)" style="fill:#79d6fc;fill-rule:evenodd"></path>
      <path id="path893" d="M204.13 86.49h8.48L191.2 123.4l-21.56-36.91h8.67l12.89 22.22z" transform="translate(-.4 -1.67)" style="fill:#73b684;fill-rule:evenodd"></path>
      <path id="path895" d="M196.12 86.48h8.06l-13 22.27-12.89-22.27h7.94l5 8.57z" transform="translate(-.4 -1.67)" style="fill:#3e4a5d;fill-rule:evenodd"></path>
      <path id="path897" d="M217.68 93.77a.79.79 0 0 1 .45-.68 1.84 1.84 0 0 1 1-.28.79.79 0 0 1 .85.52l4.84 16.17 4.8-16.17a.8.8 0 0 1 .83-.52 1.71 1.71 0 0 1 1 .3.83.83 0 0 1 .46.68.51.51 0 0 1 0 .09.37.37 0 0 0 0 .11l-5.58 18.1a1.37 1.37 0 0 1-1.45.79c-.77 0-1.24-.26-1.41-.79L217.73 94a.74.74 0 0 1 0-.22zM232 107.71v-7.08a.7.7 0 0 1 .35-.57 1.32 1.32 0 0 1 .81-.25 1.28 1.28 0 0 1 .78.26.72.72 0 0 1 .35.56v7.08a3.12 3.12 0 0 0 .93 2.2 3 3 0 0 0 4.42 0 3.1 3.1 0 0 0 .94-2.22v-7.09a.66.66 0 0 1 .34-.54 1.32 1.32 0 0 1 .81-.25 1.36 1.36 0 0 1 .81.23.69.69 0 0 1 .32.56v7.11a5 5 0 0 1-1.61 3.66 5.43 5.43 0 0 1-7.64 0 5 5 0 0 1-1.61-3.66zm12.72-.06v-2.86a4.85 4.85 0 0 1 1.61-3.62 5.43 5.43 0 0 1 3.86-1.52 5.28 5.28 0 0 1 3.71 1.43 4.61 4.61 0 0 1 1.57 3.58 3.59 3.59 0 0 1-.19 1.26 1.25 1.25 0 0 1-.59.68 2.32 2.32 0 0 1-.75.26 5.55 5.55 0 0 1-.92.06h-6v.81a3 3 0 0 0 1.09 2.4 4.83 4.83 0 0 0 4.4.63 6.8 6.8 0 0 0 1.08-.53 1.34 1.34 0 0 1 .66-.26.81.81 0 0 1 .66.34 1.11 1.11 0 0 1 .28.69c0 .42-.42.85-1.25 1.28a6.61 6.61 0 0 1-3.1.66 6.52 6.52 0 0 1-4.39-1.46 4.79 4.79 0 0 1-1.71-3.83zm2.28-2.26h5.09a1.86 1.86 0 0 0 1-.17.8.8 0 0 0 .25-.7 3.12 3.12 0 0 0-3.13-3.07 3.17 3.17 0 0 0-2.23.85 2.77 2.77 0 0 0-.94 2.11zm9.62 6.07a1.45 1.45 0 0 1 .41-1 1.39 1.39 0 0 1 1-.42 1.35 1.35 0 0 1 1 .42 1.45 1.45 0 0 1 .41 1 1.39 1.39 0 0 1-.41 1 1.35 1.35 0 0 1-1 .42 1.42 1.42 0 0 1-1.43-1.42zm2 6.51a1 1 0 0 1 .27-.72.91.91 0 0 1 .66-.29 1.36 1.36 0 0 0 1.41-.78 6.49 6.49 0 0 0 .33-2.37V100.6a.66.66 0 0 1 .31-.57 1.36 1.36 0 0 1 .81-.22 1.45 1.45 0 0 1 .83.22.66.66 0 0 1 .33.57v13.21a6.63 6.63 0 0 1-.94 3.75 3.16 3.16 0 0 1-2.83 1.39c-.79 0-1.18-.32-1.18-1zm2.36-23a1.17 1.17 0 0 1 .42-.9 1.4 1.4 0 0 1 1-.38 1.37 1.37 0 0 1 1 .38 1.16 1.16 0 0 1 .41.9 1.22 1.22 0 0 1-.41.91 1.37 1.37 0 0 1-1 .39 1.43 1.43 0 0 1-1-.39 1.24 1.24 0 0 1-.43-.91zm4.29 15.9a1.19 1.19 0 0 1 .23-.7.67.67 0 0 1 .56-.34 1.23 1.23 0 0 1 .64.33 4.65 4.65 0 0 0 1.18.64 4.73 4.73 0 0 0 1.81.31 3.18 3.18 0 0 0 2-.49 1.48 1.48 0 0 0 .62-1.22 1.7 1.7 0 0 0-.69-1.43 4.57 4.57 0 0 0-1.67-.81q-1-.27-2-.6a3.78 3.78 0 0 1-1.68-1.09 2.91 2.91 0 0 1-.68-2 3.69 3.69 0 0 1 1.11-2.68 4.54 4.54 0 0 1 3.39-1.13 7.63 7.63 0 0 1 2.67.45c.8.3 1.21.64 1.21 1a1.41 1.41 0 0 1-.26.73.75.75 0 0 1-.65.41 7.47 7.47 0 0 1-1.06-.39 4.75 4.75 0 0 0-1.88-.4 2.65 2.65 0 0 0-1.88.59 1.79 1.79 0 0 0-.62 1.32 1.35 1.35 0 0 0 .69 1.2 5.73 5.73 0 0 0 1.69.68 18.13 18.13 0 0 1 2 .6 3.71 3.71 0 0 1 1.68 1.21 3.48 3.48 0 0 1 .68 2.22 3.23 3.23 0 0 1-1.21 2.66 5.18 5.18 0 0 1-3.38 1 7 7 0 0 1-3.18-.67c-.88-.45-1.32-.91-1.32-1.4z" transform="translate(-.4 -1.67)" style="fill:#060606;fill-rule:evenodd"></path>
      <g id="g12">
        <path id="polygon14" class="cls-49" d="m342.55 181.01 8.8 11.59v-11.59h1.76v14.38h-1.86l-8.8-11.68v11.68h-1.76v-14.38h1.86z"></path>
        <path id="path16" class="cls-49" d="M367.78 196.5a10.49 10.49 0 0 1-3.75.66q-7.81 0-7.81-7.49 0-7.09 7.54-7.09a13 13 0 0 1 4 .6v1.61a10.67 10.67 0 0 0-3.82-.7q-5.88 0-5.88 5.58 0 6 5.79 6a9.87 9.87 0 0 0 2.05-.24v-4.89h1.86v6z" transform="translate(-.4 -1.67)"></path>
        <path id="path18" class="cls-49" d="M370.75 191.51v-8.83h1.86v8.83c0 2.76 1.38 4.14 4.12 4.14s4.13-1.38 4.13-4.14v-8.83h1.86v8.83q0 5.66-6 5.65c-3.97 0-5.97-1.88-5.97-5.65z" transform="translate(-.4 -1.67)"></path>
        <path id="polygon20" class="cls-49" d="M395.02 193.88v1.51h-9.38v-14.38h1.86v12.87h7.52z"></path>
        <path id="polygon22" class="cls-49" d="m402.93 179.11 7.15 16.28h-2.06l-1.86-4.52h-4.76l.51-1.51h3.62l-2.68-6.52-5.14 12.55h-1.93l7.15-16.28z"></path>
        <path id="path24" class="cls-49" d="M412.44 197.06v-14.38h6.13c2.74 0 4.1 1.15 4.1 3.45 0 1.87-1.33 3.25-4 4.15l4.94 6.78h-2.46l-4.57-6.47v-1.21q4.13-.66 4.12-3.17c0-1.33-.76-2-2.29-2h-4.1v12.84z" transform="translate(-.4 -1.67)"></path>
        <path id="path26" class="cls-49" d="M430.57 182.68v10.24q0 4.14-4.88 4.14v-1.51c2 0 3-.88 3-2.63v-10.24z" transform="translate(-.4 -1.67)"></path>
        <path id="path28" class="cls-49" d="M433.89 196.56v-1.71a14.61 14.61 0 0 0 4.88.8q3.72 0 3.72-2.71c0-1.54-.92-2.32-2.74-2.32h-1.85c-3 0-4.52-1.3-4.52-3.92s1.93-4.12 5.79-4.12a17.41 17.41 0 0 1 4.67.6v1.71a13.2 13.2 0 0 0-4.67-.8c-2.62 0-3.92.87-3.92 2.61 0 1.54.88 2.31 2.65 2.31h1.85c3.06 0 4.6 1.31 4.6 3.93q0 4.22-5.58 4.22a19 19 0 0 1-4.88-.6z" transform="translate(-.4 -1.67)"></path>
        <path id="polygon30" d="m343.02 180.54 8.8 11.59v-11.59h1.76v14.38h-1.86l-8.8-11.68v11.68h-1.76v-14.38h1.86z"></path>
        <path id="path32" d="M368.25 196a10.45 10.45 0 0 1-3.75.66q-7.81 0-7.81-7.49 0-7.09 7.54-7.09a13 13 0 0 1 4 .6v1.61a10.64 10.64 0 0 0-3.82-.7q-5.88 0-5.88 5.58 0 6 5.79 6a10 10 0 0 0 2.06-.24v-4.89h1.85v6z" transform="translate(-.4 -1.67)"></path>
        <path id="path34" d="M371.22 191v-8.83h1.86V191c0 2.76 1.38 4.14 4.12 4.14s4.13-1.38 4.13-4.14v-8.83h1.86V191q0 5.66-6 5.65c-4 0-6-1.88-6-5.65z" transform="translate(-.4 -1.67)"></path>
        <path id="polygon36" d="M395.49 193.41v1.51h-9.38v-14.38h1.86v12.87h7.52z"></path>
        <path id="polygon38" d="m403.4 178.64 7.15 16.28h-2.06l-1.86-4.52h-4.76l.51-1.51H406l-2.68-6.52-5.14 12.55h-1.93l7.15-16.28z"></path>
        <path id="path40" d="M412.91 196.59v-14.38H419c2.74 0 4.1 1.15 4.1 3.45 0 1.87-1.33 3.25-4 4.15l4.94 6.78h-2.46l-4.58-6.47v-1.21q4.13-.66 4.12-3.17c0-1.33-.76-2-2.29-2h-4.1v12.84z" transform="translate(-.4 -1.67)"></path>
        <path id="path42" class="cls-50" d="M431 182.21v10.24q0 4.14-4.88 4.14v-1.51c2 0 3-.88 3-2.63v-10.24z" transform="translate(-.4 -1.67)"></path>
        <path id="path44" class="cls-50" d="M434.36 196.09v-1.71a14.61 14.61 0 0 0 4.88.8q3.72 0 3.72-2.71c0-1.54-.92-2.32-2.74-2.32h-1.85c-3 0-4.52-1.3-4.52-3.92s1.93-4.12 5.79-4.12a17.41 17.41 0 0 1 4.67.6v1.71a13.2 13.2 0 0 0-4.67-.8q-3.93 0-3.93 2.61c0 1.54.89 2.31 2.66 2.31h1.85c3.06 0 4.6 1.31 4.6 3.93q0 4.22-5.58 4.22a19 19 0 0 1-4.88-.6z" transform="translate(-.4 -1.67)"></path>
      </g>
      <g id="g48">
        <path id="polygon50" class="cls-51" d="m307.45 197.38 14.16 7.78 14.23-7.88 2.66-22.01-16.91-5.8-16.79 5.91 2.65 22z"></path>
        <path id="polygon52" class="cls-50" d="m321.56 203.31 12.79-7.09 2.47-19.68-15.26-5.2v31.97z"></path>
        <path id="polygon54" style="fill:#bc211d" d="M321.55 203.31v-31.97l-14.87 5.3 2.28 19.68 12.59 6.99z"></path>
        <path id="path56" d="m326.15 190-4.2 2h-4.43l-2.08 5.21-3.87.07L322 174.17zm-.4-1-3.75-7.43-3.09 7.33H322z" transform="translate(-.4 -1.67)" style="fill:#f1f1f1"></path>
        <path id="polygon58" class="cls-51" d="M325.09 187.24h-3.53l-.01 3.08h4.88l2.28 5.28 3.71.07-10.87-23.17.03 7.41 3.51 7.33z"></path>
      </g>
    </g>
  </g>
</svg>
